<svg width="394" height="51" viewBox="0 0 394 51" fill="none" xmlns="http://www.w3.org/2000/svg">
<path d="M11.74 9.78H13.96C14.28 9.78 14.72 9.76 15.28 9.72C15.84 9.64 16.28 9.6 16.6 9.6C17.44 9.6 17.86 10.16 17.86 11.28V11.64C17.86 11.72 17.86 11.92 17.86 12.24C17.82 12.6 17.8 12.92 17.8 13.2L17.74 16.5V38.16C17.74 41 17.68 42.82 17.56 43.62C17.48 44.46 17.2 45.34 16.72 46.26C15.24 49.14 12.54 50.58 8.62 50.58C6.26 50.58 4.34 50.04 2.86 48.96C1.34 47.92 0.58 46.56 0.58 44.88C0.58 44.12 0.84 43.46 1.36 42.9C1.84 42.38 2.44 42.12 3.16 42.12C4.52 42.12 5.2 42.8 5.2 44.16C5.2 45.16 4.66 45.74 3.58 45.9C3.18 45.98 2.98 46.14 2.98 46.38C2.98 47.14 3.56 47.82 4.72 48.42C5.84 49.06 7.12 49.38 8.56 49.38C10.56 49.38 12.22 48.9 13.54 47.94C14.86 46.98 15.66 45.64 15.94 43.92C16.1 42.96 16.18 41 16.18 38.04V18.6C16.18 14.52 16.04 12.22 15.76 11.7C15.52 11.18 14.86 10.92 13.78 10.92C13.54 10.92 12.88 10.96 11.8 11.04L10.18 11.16C10.14 11.16 10.08 11.16 10 11.16C9.2 11.16 8.8 10.9 8.8 10.38C8.8 9.86 9.12 9.6 9.76 9.6H10L11.74 9.78ZM16.24 0.42C16.8 0.42 17.28 0.639999 17.68 1.08C18.08 1.52 18.28 2.04 18.28 2.64C18.28 3.24 18.06 3.76 17.62 4.2C17.22 4.6 16.7 4.8 16.06 4.8C15.5 4.8 15.02 4.6 14.62 4.2C14.22 3.76 14.02 3.24 14.02 2.64C14.02 2.04 14.22 1.52 14.62 1.08C15.06 0.639999 15.6 0.42 16.24 0.42ZM58.1463 35.88C58.1463 34.36 58.1463 33.6 58.1463 33.6C57.4263 35 56.6063 36.12 55.6863 36.96C53.5263 38.92 50.8063 39.9 47.5263 39.9C43.6063 39.9 40.7263 38.8 38.8863 36.6C37.8863 35.4 37.2263 33.94 36.9063 32.22C36.7463 31.22 36.6663 29.58 36.6663 27.3V18.54C36.6663 14.94 36.5463 12.76 36.3063 12C36.0663 11.24 35.3663 10.86 34.2063 10.86C33.6463 10.86 33.0063 10.9 32.2863 10.98C31.2463 11.1 30.6663 11.16 30.5463 11.16C29.7863 11.16 29.4063 10.88 29.4063 10.32C29.4063 9.84 29.7063 9.6 30.3063 9.6H30.4863L32.1663 9.78H35.6463L36.2463 9.72L37.2063 9.6C37.9263 9.6 38.2863 10.34 38.2863 11.82V12.18C38.2463 12.5 38.2263 12.96 38.2263 13.56V27.48C38.2263 29.6 38.3263 31.14 38.5263 32.1C38.8063 33.7 39.4663 35.04 40.5063 36.12C42.1463 37.84 44.5063 38.7 47.5863 38.7C51.6663 38.7 54.5663 37.28 56.2863 34.44C57.5263 32.4 58.1463 29.36 58.1463 25.32V18.54C58.1463 14.5 57.9863 12.22 57.6663 11.7C57.3863 11.14 56.7463 10.86 55.7463 10.86C55.1463 10.86 54.4863 10.9 53.7663 10.98L52.0263 11.16C51.2663 11.16 50.8863 10.9 50.8863 10.38C50.8863 9.86 51.2063 9.6 51.8463 9.6H52.0263L53.6463 9.78H56.6463C57.2463 9.78 57.6663 9.76 57.9063 9.72C58.1463 9.64 58.4063 9.6 58.6863 9.6C59.4463 9.6 59.8263 10.4 59.8263 12C59.8263 12.56 59.8063 12.96 59.7663 13.2C59.7663 13.32 59.7663 13.92 59.7663 15C59.7263 16.12 59.7063 17.18 59.7063 18.18V30.3C59.7063 34.34 59.8463 36.64 60.1263 37.2C60.4063 37.72 61.0663 37.98 62.1063 37.98C62.2263 37.98 62.8663 37.92 64.0263 37.8C64.8263 37.72 65.4463 37.68 65.8863 37.68C66.6463 37.68 67.0263 37.94 67.0263 38.46C67.0263 38.98 66.6663 39.24 65.9463 39.24H65.8263L64.0863 39.12L62.7063 39.06H61.9863C61.8663 39.06 61.6663 39.08 61.3863 39.12C61.1063 39.12 60.8663 39.12 60.6663 39.12C60.3863 39.16 60.0463 39.18 59.6463 39.18C59.0463 39.18 58.6463 39.02 58.4463 38.7C58.2463 38.34 58.1463 37.66 58.1463 36.66V35.88ZM88.6094 39.9C83.8894 39.9 80.4094 38.22 78.1694 34.86C78.2494 35.58 78.3094 36.08 78.3494 36.36C78.4294 37.96 78.4694 38.66 78.4694 38.46C78.4694 39.34 78.2094 39.78 77.6894 39.78C77.0894 39.78 76.7894 39.38 76.7894 38.58C76.7894 38.1 76.8494 37.36 76.9694 36.36C77.0894 35.32 77.1494 33.94 77.1494 32.22C77.1494 30.34 77.0894 28.88 76.9694 27.84C76.8494 26.8 76.7894 26.26 76.7894 26.22C76.7894 25.54 77.0494 25.2 77.5694 25.2C78.1294 25.2 78.4094 25.7 78.4094 26.7C78.4094 26.74 78.3894 26.94 78.3494 27.3C78.3094 27.62 78.2894 27.98 78.2894 28.38C78.2494 28.94 78.2294 29.5 78.2294 30.06C78.2294 32.62 79.1894 34.7 81.1094 36.3C83.0294 37.9 85.5294 38.7 88.6094 38.7C91.4894 38.7 93.8094 38.02 95.5694 36.66C97.3294 35.3 98.2094 33.52 98.2094 31.32C98.2094 29.32 97.5494 27.86 96.2294 26.94C94.9094 26.02 92.5894 25.36 89.2694 24.96C85.3894 24.52 82.7894 24.02 81.4694 23.46C80.3494 22.98 79.4494 22.2 78.7694 21.12C78.0894 20 77.7494 18.8 77.7494 17.52C77.7494 15.12 78.7094 13.1 80.6294 11.46C82.5894 9.82 85.0294 9 87.9494 9C91.9094 9 94.9494 10.64 97.0694 13.92V11.04C97.0694 9.88 97.3094 9.3 97.7894 9.3C98.2694 9.3 98.5094 9.62 98.5094 10.26C98.5094 10.46 98.4494 10.96 98.3294 11.76C98.3294 11.84 98.3094 12.1 98.2694 12.54C98.2294 12.98 98.2094 13.38 98.2094 13.74L98.1494 15.96C98.1494 17.6 98.1694 18.6 98.2094 18.96C98.2494 19.28 98.2894 19.6 98.3294 19.92C98.3294 20.28 98.3294 20.46 98.3294 20.46C98.3294 21.14 98.0694 21.48 97.5494 21.48C97.0694 21.48 96.8294 21.16 96.8294 20.52V20.4L96.9494 19.02C96.9894 18.54 97.0094 18.4 97.0094 18.6C97.0094 16.12 96.1694 14.1 94.4894 12.54C92.8494 10.98 90.6894 10.2 88.0094 10.2C85.5294 10.2 83.4694 10.86 81.8294 12.18C80.2294 13.46 79.4294 15.12 79.4294 17.16C79.4294 19.12 80.0494 20.54 81.2894 21.42C82.5694 22.26 84.8894 22.86 88.2494 23.22C91.8094 23.58 94.4494 24.14 96.1694 24.9C98.6494 25.98 99.8894 27.94 99.8894 30.78C99.8894 33.46 98.8294 35.66 96.7094 37.38C94.6294 39.06 91.9294 39.9 88.6094 39.9ZM116.821 11.76C116.781 12 116.761 12.66 116.761 13.74V26.34C116.761 30.3 117.001 33.14 117.481 34.86C118.201 37.42 119.841 38.7 122.401 38.7C124.441 38.7 125.881 38.02 126.721 36.66C127.561 35.26 127.981 32.9 127.981 29.58V27.78C127.981 27.66 127.981 27.54 127.981 27.42C127.941 27.3 127.921 27.22 127.921 27.18C127.921 26.34 128.201 25.92 128.761 25.92C129.321 25.92 129.601 26.34 129.601 27.18V28.68C129.601 31.48 129.401 33.68 129.001 35.28C128.241 38.36 126.041 39.9 122.401 39.9C117.601 39.9 115.201 36.46 115.201 29.58V13.74C115.201 12.46 115.101 11.68 114.901 11.4C114.741 11.08 114.261 10.92 113.461 10.92C113.221 10.92 112.621 10.96 111.661 11.04L110.281 11.16C109.521 11.16 109.141 10.88 109.141 10.32C109.141 9.84 109.501 9.6 110.221 9.6C110.541 9.6 111.021 9.64 111.661 9.72C112.301 9.76 112.781 9.78 113.101 9.78C114.341 9.78 115.101 9.4 115.381 8.64C115.541 8.2 115.621 7.42 115.621 6.3V6C115.621 4.32 115.661 3.28 115.741 2.88C115.861 2.44 116.101 2.22 116.461 2.22C116.901 2.22 117.121 2.54 117.121 3.18V3.3L116.941 6.18C116.901 6.82 116.881 7.58 116.881 8.46C116.881 9.34 117.461 9.78 118.621 9.78H120.601C121.041 9.78 121.701 9.76 122.581 9.72C123.501 9.64 124.181 9.6 124.621 9.6C125.421 9.6 125.821 9.86 125.821 10.38C125.821 10.9 125.381 11.16 124.501 11.16H124.381L122.521 11.1C122.201 11.1 121.541 11.06 120.541 10.98C119.701 10.94 119.041 10.92 118.561 10.92C117.481 10.92 116.901 11.2 116.821 11.76ZM168.136 28.02C168.136 32.7 168.296 35.52 168.616 36.48C168.936 37.44 169.856 37.92 171.376 37.92C171.656 37.92 172.076 37.9 172.636 37.86C173.196 37.82 173.616 37.8 173.896 37.8H174.196C175.076 37.8 175.516 38.04 175.516 38.52C175.516 39.04 175.156 39.3 174.436 39.3C174.236 39.3 174.156 39.3 174.196 39.3L172.096 39.12L169.636 38.94L167.896 38.88H166.756L165.076 38.94L162.556 39.12L160.456 39.3C160.416 39.3 160.356 39.3 160.276 39.3C159.516 39.3 159.136 39.06 159.136 38.58C159.136 38.06 159.576 37.8 160.456 37.8H160.756C161.036 37.8 161.456 37.82 162.016 37.86C162.616 37.9 163.056 37.92 163.336 37.92C164.856 37.92 165.776 37.44 166.096 36.48C166.416 35.52 166.576 32.7 166.576 28.02V18.6C166.576 15.68 166.576 14.42 166.576 14.82C166.496 12.74 166.196 11.54 165.676 11.22C165.356 11.02 164.836 10.92 164.116 10.92C163.876 10.92 163.216 10.96 162.136 11.04L160.516 11.16C160.476 11.16 160.416 11.16 160.336 11.16C159.536 11.16 159.136 10.9 159.136 10.38C159.136 9.86 159.476 9.6 160.156 9.6H160.336L162.136 9.78H165.016C165.256 9.78 165.616 9.76 166.096 9.72C166.576 9.64 166.936 9.6 167.176 9.6C167.816 9.6 168.136 10.06 168.136 10.98V28.02ZM166.756 0.659997C167.356 0.659997 167.856 0.879997 168.256 1.32C168.696 1.76 168.916 2.28 168.916 2.88C168.916 3.48 168.696 4 168.256 4.44C167.856 4.84 167.376 5.04 166.816 5.04C166.176 5.04 165.636 4.84 165.196 4.44C164.796 4 164.596 3.48 164.596 2.88C164.596 2.24 164.796 1.72 165.196 1.32C165.636 0.879997 166.156 0.659997 166.756 0.659997ZM192.532 12.06V15.3C193.932 12.78 195.712 11.06 197.872 10.14C199.712 9.38 201.612 9 203.572 9C206.452 9 208.812 9.64 210.652 10.92C212.492 12.16 213.652 13.92 214.132 16.2C214.452 17.76 214.612 20.22 214.612 23.58V28.02C214.612 32.7 214.772 35.52 215.092 36.48C215.412 37.44 216.332 37.92 217.852 37.92C218.132 37.92 218.552 37.9 219.112 37.86C219.712 37.82 220.152 37.8 220.432 37.8H220.732C221.612 37.8 222.052 38.04 222.052 38.52C222.052 39.04 221.672 39.3 220.912 39.3C220.792 39.3 220.732 39.3 220.732 39.3L218.632 39.12L216.112 38.94L214.432 38.88H213.292L211.552 38.94L209.092 39.12L206.992 39.3C206.992 39.3 206.912 39.3 206.752 39.3C206.032 39.3 205.672 39.06 205.672 38.58C205.672 38.06 206.112 37.8 206.992 37.8H207.232C207.512 37.8 207.932 37.82 208.492 37.86C209.092 37.9 209.532 37.92 209.812 37.92C211.372 37.92 212.292 37.46 212.572 36.54C212.892 35.58 213.052 32.74 213.052 28.02V23.52C213.052 18.44 212.492 15.12 211.372 13.56C209.772 11.32 207.092 10.2 203.332 10.2C198.732 10.2 195.512 12.02 193.672 15.66C192.912 17.14 192.532 19.52 192.532 22.8V28.02C192.532 32.7 192.692 35.52 193.012 36.48C193.332 37.44 194.252 37.92 195.772 37.92C196.052 37.92 196.472 37.9 197.032 37.86C197.592 37.82 198.012 37.8 198.292 37.8H198.592C199.472 37.8 199.912 38.04 199.912 38.52C199.912 39.04 199.552 39.3 198.832 39.3C198.632 39.3 198.552 39.3 198.592 39.3L196.492 39.12L194.032 38.94L192.232 38.88H191.152L189.472 38.94L186.952 39.12L184.852 39.3C184.812 39.3 184.752 39.3 184.672 39.3C183.912 39.3 183.532 39.06 183.532 38.58C183.532 38.06 183.972 37.8 184.852 37.8H185.152C185.432 37.8 185.852 37.82 186.412 37.86C186.972 37.9 187.392 37.92 187.672 37.92C189.232 37.92 190.172 37.44 190.492 36.48C190.812 35.52 190.972 32.7 190.972 28.02V18.6C190.972 15.72 190.972 14.46 190.972 14.82C190.892 12.74 190.592 11.54 190.072 11.22C189.752 11.02 189.232 10.92 188.512 10.92C188.272 10.92 187.612 10.96 186.532 11.04L184.732 11.16C183.932 11.16 183.532 10.9 183.532 10.38C183.532 9.86 183.892 9.6 184.612 9.6C184.892 9.6 185.512 9.64 186.472 9.72C186.952 9.76 187.412 9.78 187.852 9.78H188.992C189.232 9.78 189.612 9.76 190.132 9.72C190.652 9.64 191.032 9.6 191.272 9.6C191.832 9.6 192.172 9.74 192.292 10.02C192.452 10.3 192.532 10.98 192.532 12.06ZM257.021 11.76C256.981 12 256.961 12.66 256.961 13.74V26.34C256.961 30.3 257.201 33.14 257.681 34.86C258.401 37.42 260.041 38.7 262.601 38.7C264.641 38.7 266.081 38.02 266.921 36.66C267.761 35.26 268.181 32.9 268.181 29.58V27.78C268.181 27.66 268.181 27.54 268.181 27.42C268.141 27.3 268.121 27.22 268.121 27.18C268.121 26.34 268.401 25.92 268.961 25.92C269.521 25.92 269.801 26.34 269.801 27.18V28.68C269.801 31.48 269.601 33.68 269.201 35.28C268.441 38.36 266.241 39.9 262.601 39.9C257.801 39.9 255.401 36.46 255.401 29.58V13.74C255.401 12.46 255.301 11.68 255.101 11.4C254.941 11.08 254.461 10.92 253.661 10.92C253.421 10.92 252.821 10.96 251.861 11.04L250.481 11.16C249.721 11.16 249.341 10.88 249.341 10.32C249.341 9.84 249.701 9.6 250.421 9.6C250.741 9.6 251.221 9.64 251.861 9.72C252.501 9.76 252.981 9.78 253.301 9.78C254.541 9.78 255.301 9.4 255.581 8.64C255.741 8.2 255.821 7.42 255.821 6.3V6C255.821 4.32 255.861 3.28 255.941 2.88C256.061 2.44 256.301 2.22 256.661 2.22C257.101 2.22 257.321 2.54 257.321 3.18V3.3L257.141 6.18C257.101 6.82 257.081 7.58 257.081 8.46C257.081 9.34 257.661 9.78 258.821 9.78H260.801C261.241 9.78 261.901 9.76 262.781 9.72C263.701 9.64 264.381 9.6 264.821 9.6C265.621 9.6 266.021 9.86 266.021 10.38C266.021 10.9 265.581 11.16 264.701 11.16H264.581L262.721 11.1C262.401 11.1 261.741 11.06 260.741 10.98C259.901 10.94 259.241 10.92 258.761 10.92C257.681 10.92 257.101 11.2 257.021 11.76ZM287.457 28.02C287.457 32.7 287.617 35.52 287.937 36.48C288.257 37.44 289.177 37.92 290.697 37.92C290.977 37.92 291.397 37.9 291.957 37.86C292.517 37.82 292.937 37.8 293.217 37.8H293.517C294.397 37.8 294.837 38.04 294.837 38.52C294.837 39.04 294.477 39.3 293.757 39.3C293.557 39.3 293.477 39.3 293.517 39.3L291.417 39.12L288.957 38.94L287.217 38.88H286.077L284.397 38.94L281.877 39.12L279.777 39.3C279.737 39.3 279.677 39.3 279.597 39.3C278.837 39.3 278.457 39.06 278.457 38.58C278.457 38.06 278.897 37.8 279.777 37.8H280.077C280.357 37.8 280.777 37.82 281.337 37.86C281.937 37.9 282.377 37.92 282.657 37.92C284.177 37.92 285.097 37.44 285.417 36.48C285.737 35.52 285.897 32.7 285.897 28.02V18.6C285.897 15.68 285.897 14.42 285.897 14.82C285.817 12.74 285.517 11.54 284.997 11.22C284.677 11.02 284.157 10.92 283.437 10.92C283.197 10.92 282.537 10.96 281.457 11.04L279.837 11.16C279.797 11.16 279.737 11.16 279.657 11.16C278.857 11.16 278.457 10.9 278.457 10.38C278.457 9.86 278.797 9.6 279.477 9.6H279.657L281.457 9.78H284.337C284.577 9.78 284.937 9.76 285.417 9.72C285.897 9.64 286.257 9.6 286.497 9.6C287.137 9.6 287.457 10.06 287.457 10.98V28.02ZM286.077 0.659997C286.677 0.659997 287.177 0.879997 287.577 1.32C288.017 1.76 288.237 2.28 288.237 2.88C288.237 3.48 288.017 4 287.577 4.44C287.177 4.84 286.697 5.04 286.137 5.04C285.497 5.04 284.957 4.84 284.517 4.44C284.117 4 283.917 3.48 283.917 2.88C283.917 2.24 284.117 1.72 284.517 1.32C284.957 0.879997 285.477 0.659997 286.077 0.659997ZM311.732 11.16V14.76C313.812 10.92 317.112 9 321.632 9C325.152 9 327.732 9.96 329.372 11.88C330.092 12.72 330.752 13.96 331.352 15.6C332.192 13.92 333.032 12.66 333.872 11.82C335.832 9.94 338.392 9 341.552 9C343.912 9 345.912 9.5 347.552 10.5C349.232 11.46 350.332 12.8 350.852 14.52C351.132 15.44 351.292 16.54 351.332 17.82C351.372 19.1 351.392 20.52 351.392 22.08V28.02C351.392 32.66 351.552 35.48 351.872 36.48C352.192 37.44 353.112 37.92 354.632 37.92C354.912 37.92 355.332 37.9 355.892 37.86C356.452 37.82 356.872 37.8 357.152 37.8H357.452C358.332 37.8 358.772 38.04 358.772 38.52C358.772 39.04 358.412 39.3 357.692 39.3C357.532 39.3 357.452 39.3 357.452 39.3L355.352 39.12L352.892 38.94L351.212 38.88H350.012L348.272 38.94L345.812 39.12L343.712 39.3C343.672 39.3 343.612 39.3 343.532 39.3C342.772 39.3 342.392 39.06 342.392 38.58C342.392 38.06 342.832 37.8 343.712 37.8H344.012C344.292 37.8 344.712 37.82 345.272 37.86C345.832 37.9 346.252 37.92 346.532 37.92C348.092 37.92 349.032 37.46 349.352 36.54C349.672 35.58 349.832 32.74 349.832 28.02V21.54C349.832 18.5 349.772 16.6 349.652 15.84C349.532 15.04 349.132 14.18 348.452 13.26C346.972 11.22 344.592 10.2 341.312 10.2C337.672 10.2 335.012 11.6 333.332 14.4C332.292 16.16 331.772 18.92 331.772 22.68V28.02C331.772 32.74 331.912 35.58 332.192 36.54C332.512 37.46 333.472 37.92 335.072 37.92C335.352 37.92 335.772 37.9 336.332 37.86C336.892 37.82 337.312 37.8 337.592 37.8H337.832C338.712 37.8 339.152 38.04 339.152 38.52C339.152 39.04 338.792 39.3 338.072 39.3H337.832L335.792 39.12L333.332 38.94L331.532 38.88H330.392L328.712 38.94L326.192 39.12L324.092 39.3C324.052 39.3 323.992 39.3 323.912 39.3C323.152 39.3 322.772 39.06 322.772 38.58C322.772 38.06 323.212 37.8 324.092 37.8H324.392C324.672 37.8 325.092 37.82 325.652 37.86C326.252 37.9 326.692 37.92 326.972 37.92C328.492 37.92 329.412 37.44 329.732 36.48C330.052 35.52 330.212 32.7 330.212 28.02V20.52C330.212 18.56 330.172 17.28 330.092 16.68C329.892 15.36 329.372 14.18 328.532 13.14C326.972 11.18 324.652 10.2 321.572 10.2C318.172 10.2 315.532 11.44 313.652 13.92C312.452 15.52 311.852 17.88 311.852 21V28.02C311.852 32.7 311.992 35.52 312.272 36.48C312.592 37.44 313.512 37.92 315.032 37.92C315.312 37.92 315.732 37.9 316.292 37.86C316.892 37.82 317.332 37.8 317.612 37.8H317.912C318.792 37.8 319.232 38.04 319.232 38.52C319.232 39.04 318.852 39.3 318.092 39.3C317.972 39.3 317.912 39.3 317.912 39.3L315.812 39.12L313.292 38.94L311.732 38.88H310.472L308.792 38.94L306.272 39.12L304.172 39.3C304.132 39.3 304.072 39.3 303.992 39.3C303.232 39.3 302.852 39.06 302.852 38.58C302.852 38.06 303.292 37.8 304.172 37.8H304.472C304.752 37.8 305.172 37.82 305.732 37.86C306.292 37.9 306.712 37.92 306.992 37.92C308.552 37.92 309.492 37.44 309.812 36.48C310.132 35.52 310.292 32.7 310.292 28.02V18.6C310.292 15.64 310.292 14.38 310.292 14.82C310.212 12.74 309.892 11.54 309.332 11.22C309.052 11.02 308.552 10.92 307.832 10.92C307.592 10.92 306.932 10.96 305.852 11.04L304.232 11.16C304.192 11.16 304.132 11.16 304.052 11.16C303.252 11.16 302.852 10.9 302.852 10.38C302.852 9.86 303.192 9.6 303.872 9.6H304.052L305.792 9.78H308.492C308.732 9.78 309.112 9.76 309.632 9.72C310.152 9.64 310.532 9.6 310.772 9.6C311.412 9.6 311.732 10.12 311.732 11.16ZM393.743 22.14C393.743 22.98 393.543 23.48 393.143 23.64C392.783 23.8 392.203 23.88 391.403 23.88H370.163C369.603 23.88 369.243 23.96 369.083 24.12C368.963 24.28 368.903 24.68 368.903 25.32C368.903 29.32 369.983 32.56 372.143 35.04C374.343 37.48 377.203 38.7 380.723 38.7C384.523 38.7 387.503 37.36 389.663 34.68C390.503 33.64 391.103 32.5 391.463 31.26C391.463 31.14 391.563 30.64 391.763 29.76C391.923 29.08 392.223 28.74 392.663 28.74C393.143 28.74 393.383 29.02 393.383 29.58C393.383 30.26 393.163 31.16 392.723 32.28C391.763 34.68 390.223 36.56 388.103 37.92C386.023 39.24 383.583 39.9 380.783 39.9C376.703 39.9 373.423 38.52 370.943 35.76C368.463 33 367.223 29.36 367.223 24.84C367.223 20.16 368.503 16.36 371.063 13.44C373.663 10.48 377.003 9 381.083 9C384.643 9 387.643 10.28 390.083 12.84C392.523 15.36 393.743 18.46 393.743 22.14ZM369.143 21.6C369.143 22.2 369.583 22.5 370.463 22.5H391.103C391.783 22.5 392.123 22.18 392.123 21.54C392.123 18.98 391.243 16.54 389.483 14.22C387.443 11.54 384.603 10.2 380.963 10.2C378.203 10.2 375.823 10.98 373.823 12.54C371.863 14.06 370.463 16.22 369.623 19.02C369.303 20.06 369.143 20.92 369.143 21.6Z" fill="white" fill-opacity="0.5"/>
</svg>
