<svg width="440" height="48" viewBox="0 0 440 48" fill="none" xmlns="http://www.w3.org/2000/svg">
<path d="M33.88 35.66H17.56V29.36H31.24V18.02H17.56V12.74H33.64V1.4H0.7V47H33.88V35.66ZM85.4758 1.4H70.7158V20.6H70.3558L61.2958 1.4H44.5558V47H59.3158V24.5H59.6758L69.7558 47H85.4758V1.4ZM136.647 1.4H119.787V47H136.647V1.4ZM185.133 33.74C185.133 26.06 181.293 23.36 171.993 18.92C166.113 16.1 164.553 15.26 164.553 13.28V12.98C164.553 11.72 165.453 10.7 167.733 10.7C170.313 10.7 171.093 11.48 171.093 13.88C171.093 14.96 170.973 15.56 170.793 16.4L183.873 16.94C184.113 15.5 184.173 14.3 184.173 12.32C184.173 5.9 179.733 0.619996 166.533 0.619996C153.453 0.619996 147.633 6.8 147.633 12.92V13.76C147.633 20 150.633 23.18 158.133 27.2C167.013 31.94 168.273 33.2 168.273 34.76V35.12C168.273 36.86 167.133 37.64 164.733 37.64C162.333 37.64 161.013 36.62 161.013 34.58C161.013 33.56 161.133 32.42 161.373 31.52L147.693 31.04C147.513 32.24 147.333 33.68 147.333 36.02C147.333 43.28 152.973 47.72 165.633 47.72C179.913 47.72 185.133 41.48 185.133 34.64V33.74ZM235.814 17.24C235.814 6.98 229.634 0.619996 215.054 0.619996C200.114 0.619996 194.294 7.16 194.294 17.24V31.16C194.294 40.88 199.874 47.72 215.054 47.72C229.694 47.72 235.814 41.36 235.814 31.16V17.24ZM218.834 33.74C218.834 36.08 216.974 37.34 215.054 37.34C212.954 37.34 211.214 36.08 211.214 33.68V14.72C211.214 12.32 213.194 11 214.994 11C216.794 11 218.834 12.14 218.834 14.72V33.74ZM306.334 15.2C306.334 7.28 298.654 0.619996 287.254 0.619996C275.974 0.619996 267.994 5.72 267.994 13.88V20.12C267.994 26 272.734 30.08 279.994 30.08C285.874 30.08 287.674 28.76 289.714 27.26H290.254V33.8C290.254 35.6 289.474 37.4 286.834 37.4C284.674 37.4 283.354 36.62 283.354 34.58C283.354 34.04 283.414 33.56 283.474 33.08L270.274 32.6C270.214 33.14 269.914 34.88 269.914 36.74C269.914 43.4 274.834 47.72 288.214 47.72C300.334 47.72 306.334 41.06 306.334 33.08V15.2ZM290.254 17.84C290.254 19.52 289.354 20.78 287.134 20.78C284.854 20.78 284.014 19.52 284.014 17.84V13.52C284.014 11.96 285.094 10.7 287.194 10.7C288.994 10.7 290.254 11.96 290.254 13.64V17.84ZM354.949 17C354.949 8.9 350.209 0.619996 336.049 0.619996C322.129 0.619996 316.609 8.18 316.609 16.58V31.22C316.609 39.98 321.589 47.72 336.109 47.72C348.829 47.72 354.949 40.7 354.949 31.28V17ZM338.929 34.1C338.929 36.08 337.909 37.34 335.869 37.34C333.589 37.34 332.629 36.02 332.629 33.98V14.3C332.629 12.2 333.589 11 335.869 11C337.789 11 338.929 12.38 338.929 14.3V34.1ZM403.551 17C403.551 8.9 398.811 0.619996 384.651 0.619996C370.731 0.619996 365.211 8.18 365.211 16.58V31.22C365.211 39.98 370.191 47.72 384.711 47.72C397.431 47.72 403.551 40.7 403.551 31.28V17ZM387.531 34.1C387.531 36.08 386.511 37.34 384.471 37.34C382.191 37.34 381.231 36.02 381.231 33.98V14.3C381.231 12.2 382.191 11 384.471 11C386.391 11 387.531 12.38 387.531 14.3V34.1ZM439.073 1.4H427.253C425.393 6.62 421.613 8 412.973 8V15.98H422.993V47H439.073V1.4Z" fill="white" fill-opacity="0.5"/>
</svg>
