<svg width="815" height="71" viewBox="0 0 815 71" fill="none" xmlns="http://www.w3.org/2000/svg">
<path d="M42.76 53.32L32.84 20.2C32.7333 19.8267 32.6 19.6133 32.44 19.56C32.28 19.56 32.12 19.7733 31.96 20.2L31.72 20.92L22.68 53.08C22.1467 54.9467 21.3733 55.88 20.36 55.88C19.2933 55.88 18.4933 54.92 17.96 53L9.24 22.04C8.76 20.3867 8.36 19.3467 8.04 18.92C7.45333 18.1733 6.49333 17.8 5.16 17.8H3.88C3.50667 17.8533 3.02667 17.88 2.44 17.88C1.26667 17.88 0.68 17.5067 0.68 16.76C0.68 16.12 1.26667 15.8 2.44 15.8C2.28 15.8 3.10667 15.8533 4.92 15.96L7.8 16.12C8.76 16.1733 9.66667 16.2 10.52 16.2C11.8533 16.2 13.6933 16.12 16.04 15.96C17.5867 15.8533 18.5467 15.8 18.92 15.8C19.9867 15.8 20.52 16.12 20.52 16.76C20.52 17.56 19.7733 17.96 18.28 17.96H18.04C17.2933 17.96 16.36 17.9333 15.24 17.88C14.12 17.8267 13.48 17.8 13.32 17.8C11.7733 17.8 11 18.36 11 19.48C11 19.9067 11.16 20.7067 11.48 21.88L19.56 50.92C19.88 52.0933 20.1467 52.68 20.36 52.68C20.5733 52.68 20.76 52.4133 20.92 51.88L21.08 51.16L30.36 18.36C30.7867 16.8667 31.4533 16.12 32.36 16.12C33.16 16.12 33.7467 16.76 34.12 18.04L44.36 51.96C44.6267 52.76 44.84 53.16 45 53.16C45.16 53.16 45.2933 52.9467 45.4 52.52L45.72 51.56L53.16 23.48C53.64 21.6667 53.88 20.3867 53.88 19.64C53.88 18.2533 52.5733 17.56 49.96 17.56C49.4267 17.56 48.6533 17.6133 47.64 17.72C46.6267 17.8267 45.88 17.88 45.4 17.88C44.4933 17.88 44.04 17.56 44.04 16.92C44.04 16.1733 44.6 15.8 45.72 15.8C46.2 15.8 47 15.8533 48.12 15.96C49.7733 16.12 51.7733 16.2 54.12 16.2C55.5067 16.2 56.52 16.1733 57.16 16.12L60.12 15.88L62.28 15.8C63.4 15.8 63.96 16.12 63.96 16.76C63.96 17.5067 63.4267 17.88 62.36 17.88C61.9867 17.88 61.4533 17.8533 60.76 17.8C60.0667 17.6933 59.5333 17.64 59.16 17.64C58.0933 17.64 57.3733 17.9067 57 18.44C56.68 18.92 56.1733 20.4133 55.48 22.92L47.32 52.92C46.7867 54.9467 46.04 55.96 45.08 55.96C44.0667 55.96 43.2933 55.08 42.76 53.32ZM98.7638 32.52C98.7638 33.64 98.4971 34.3067 97.9637 34.52C97.4837 34.7333 96.7104 34.84 95.6438 34.84H67.3237C66.5771 34.84 66.0971 34.9467 65.8837 35.16C65.7237 35.3733 65.6437 35.9067 65.6437 36.76C65.6437 42.0933 67.0837 46.4133 69.9637 49.72C72.8971 52.9733 76.7104 54.6 81.4037 54.6C86.4704 54.6 90.4438 52.8133 93.3238 49.24C94.4437 47.8533 95.2437 46.3333 95.7238 44.68C95.7238 44.52 95.8571 43.8533 96.1237 42.68C96.3371 41.7733 96.7371 41.32 97.3238 41.32C97.9638 41.32 98.2838 41.6933 98.2838 42.44C98.2838 43.3467 97.9904 44.5467 97.4037 46.04C96.1238 49.24 94.0704 51.7467 91.2438 53.56C88.4704 55.32 85.2171 56.2 81.4837 56.2C76.0437 56.2 71.6704 54.36 68.3637 50.68C65.0571 47 63.4037 42.1467 63.4037 36.12C63.4037 29.88 65.1104 24.8133 68.5237 20.92C71.9904 16.9733 76.4437 15 81.8837 15C86.6304 15 90.6304 16.7067 93.8837 20.12C97.1371 23.48 98.7638 27.6133 98.7638 32.52ZM65.9637 31.8C65.9637 32.6 66.5504 33 67.7237 33H95.2437C96.1504 33 96.6038 32.5733 96.6038 31.72C96.6038 28.3067 95.4304 25.0533 93.0838 21.96C90.3638 18.3867 86.5771 16.6 81.7237 16.6C78.0437 16.6 74.8704 17.64 72.2037 19.72C69.5904 21.7467 67.7237 24.6267 66.6037 28.36C66.1771 29.7467 65.9637 30.8933 65.9637 31.8ZM106.789 0.759997H110.469C110.683 0.759997 111.376 0.706665 112.549 0.599999H113.269C114.016 0.599999 114.496 0.84 114.709 1.32C114.816 1.53333 114.869 2.09333 114.869 3V40.36C114.869 46.5467 115.083 50.3067 115.509 51.64C115.936 52.92 117.189 53.56 119.269 53.56C119.643 53.56 120.203 53.5333 120.949 53.48C121.696 53.4267 122.256 53.4 122.629 53.4H123.029C124.149 53.4 124.709 53.72 124.709 54.36C124.709 55.0533 124.229 55.4 123.269 55.4C123.109 55.4 123.029 55.4 123.029 55.4L120.229 55.16L116.949 54.92L114.629 54.84H113.029L110.709 54.92L107.429 55.16L104.629 55.4C104.629 55.4 104.523 55.4 104.309 55.4C103.349 55.4 102.869 55.08 102.869 54.44C102.869 53.7467 103.456 53.4 104.629 53.4H104.949C105.323 53.4 105.883 53.4267 106.629 53.48C107.429 53.5333 108.016 53.56 108.389 53.56C110.469 53.56 111.723 52.92 112.149 51.64C112.576 50.36 112.789 46.6 112.789 40.36V12.44C112.789 7.58667 112.629 4.68 112.309 3.72C111.989 2.76 111.056 2.28 109.509 2.28C108.709 2.28 107.829 2.33333 106.869 2.44C105.429 2.6 104.629 2.68 104.469 2.68C103.403 2.68 102.869 2.33333 102.869 1.64C102.869 0.946665 103.323 0.599999 104.229 0.599999H104.469L106.789 0.759997ZM158.791 51.32V48.12C155.591 53.5067 151.057 56.2 145.191 56.2C140.071 56.2 135.884 54.3333 132.631 50.6C129.431 46.8667 127.831 42.04 127.831 36.12C127.831 30.04 129.537 25 132.951 21C136.417 17 140.764 15 145.991 15C152.071 15 156.337 17.64 158.791 22.92V12.44C158.791 7.10666 158.604 4.06666 158.231 3.32C157.857 2.57333 156.977 2.2 155.591 2.2C155.004 2.2 154.097 2.28 152.871 2.44C151.644 2.6 150.844 2.68 150.471 2.68C149.457 2.68 148.951 2.33333 148.951 1.64C148.951 0.946665 149.404 0.599999 150.311 0.599999H150.551L152.871 0.759997H156.791C157.324 0.759997 157.777 0.733331 158.151 0.679998H159.191C159.777 0.679998 160.177 0.786665 160.391 0.999999C160.657 1.21333 160.791 1.74667 160.791 2.6V4.84L160.871 8.12V43.4C160.871 48.7867 161.057 51.8533 161.431 52.6C161.804 53.2933 162.684 53.64 164.071 53.64C164.444 53.64 165.324 53.56 166.711 53.4C168.097 53.24 168.897 53.16 169.111 53.16C170.177 53.16 170.711 53.5067 170.711 54.2C170.711 54.8933 170.257 55.24 169.351 55.24H169.111L166.791 55.08H162.631C161.937 55.08 161.511 55.08 161.351 55.08C161.191 55.1333 161.004 55.1867 160.791 55.24C160.577 55.24 160.444 55.24 160.391 55.24C159.804 55.24 159.377 55.0267 159.111 54.6C158.897 54.12 158.791 53.0267 158.791 51.32ZM158.951 36.76V35.72C158.951 29.5333 158.231 25.1333 156.791 22.52C154.604 18.5733 150.951 16.6 145.831 16.6C141.297 16.6 137.537 18.4667 134.551 22.2C131.564 25.88 130.071 30.5467 130.071 36.2C130.071 41.5867 131.484 46.0133 134.311 49.48C137.191 52.8933 140.897 54.6 145.431 54.6C149.271 54.6 152.471 53.2133 155.031 50.44C156.524 48.7867 157.537 47 158.071 45.08C158.657 43.16 158.951 40.3867 158.951 36.76ZM185.033 40.36C185.033 46.6 185.246 50.36 185.673 51.64C186.1 52.92 187.326 53.56 189.353 53.56C189.726 53.56 190.286 53.5333 191.033 53.48C191.78 53.4267 192.34 53.4 192.713 53.4H193.113C194.286 53.4 194.873 53.72 194.873 54.36C194.873 55.0533 194.393 55.4 193.433 55.4C193.166 55.4 193.06 55.4 193.113 55.4L190.313 55.16L187.033 54.92L184.713 54.84H183.193L180.953 54.92L177.593 55.16L174.793 55.4C174.74 55.4 174.66 55.4 174.553 55.4C173.54 55.4 173.033 55.08 173.033 54.44C173.033 53.7467 173.62 53.4 174.793 53.4H175.193C175.566 53.4 176.126 53.4267 176.873 53.48C177.673 53.5333 178.26 53.56 178.633 53.56C180.66 53.56 181.886 52.92 182.313 51.64C182.74 50.36 182.953 46.6 182.953 40.36V27.8C182.953 23.9067 182.953 22.2267 182.953 22.76C182.846 19.9867 182.446 18.3867 181.753 17.96C181.326 17.6933 180.633 17.56 179.673 17.56C179.353 17.56 178.473 17.6133 177.033 17.72L174.873 17.88C174.82 17.88 174.74 17.88 174.633 17.88C173.566 17.88 173.033 17.5333 173.033 16.84C173.033 16.1467 173.486 15.8 174.393 15.8H174.633L177.033 16.04H180.873C181.193 16.04 181.673 16.0133 182.313 15.96C182.953 15.8533 183.433 15.8 183.753 15.8C184.606 15.8 185.033 16.4133 185.033 17.64V40.36ZM183.193 3.88C183.993 3.88 184.66 4.17333 185.193 4.76C185.78 5.34666 186.073 6.04 186.073 6.84C186.073 7.64 185.78 8.33333 185.193 8.92C184.66 9.45333 184.02 9.72 183.273 9.72C182.42 9.72 181.7 9.45333 181.113 8.92C180.58 8.33333 180.313 7.64 180.313 6.84C180.313 5.98666 180.58 5.29333 181.113 4.76C181.7 4.17333 182.393 3.88 183.193 3.88ZM209.161 19.08V23.4C211.027 20.04 213.401 17.7467 216.281 16.52C218.734 15.5067 221.267 15 223.881 15C227.721 15 230.867 15.8533 233.321 17.56C235.774 19.2133 237.321 21.56 237.961 24.6C238.387 26.68 238.601 29.96 238.601 34.44V40.36C238.601 46.6 238.814 50.36 239.241 51.64C239.667 52.92 240.894 53.56 242.921 53.56C243.294 53.56 243.854 53.5333 244.601 53.48C245.401 53.4267 245.987 53.4 246.361 53.4H246.761C247.934 53.4 248.521 53.72 248.521 54.36C248.521 55.0533 248.014 55.4 247.001 55.4C246.841 55.4 246.761 55.4 246.761 55.4L243.961 55.16L240.601 54.92L238.361 54.84H236.841L234.521 54.92L231.241 55.16L228.441 55.4C228.441 55.4 228.334 55.4 228.121 55.4C227.161 55.4 226.681 55.08 226.681 54.44C226.681 53.7467 227.267 53.4 228.441 53.4H228.761C229.134 53.4 229.694 53.4267 230.441 53.48C231.241 53.5333 231.827 53.56 232.201 53.56C234.281 53.56 235.507 52.9467 235.881 51.72C236.307 50.44 236.521 46.6533 236.521 40.36V34.36C236.521 27.5867 235.774 23.16 234.281 21.08C232.147 18.0933 228.574 16.6 223.561 16.6C217.427 16.6 213.134 19.0267 210.681 23.88C209.667 25.8533 209.161 29.0267 209.161 33.4V40.36C209.161 46.6 209.374 50.36 209.801 51.64C210.227 52.92 211.454 53.56 213.481 53.56C213.854 53.56 214.414 53.5333 215.161 53.48C215.907 53.4267 216.467 53.4 216.841 53.4H217.241C218.414 53.4 219.001 53.72 219.001 54.36C219.001 55.0533 218.521 55.4 217.561 55.4C217.294 55.4 217.187 55.4 217.241 55.4L214.441 55.16L211.161 54.92L208.761 54.84H207.321L205.081 54.92L201.721 55.16L198.921 55.4C198.867 55.4 198.787 55.4 198.681 55.4C197.667 55.4 197.161 55.08 197.161 54.44C197.161 53.7467 197.747 53.4 198.921 53.4H199.321C199.694 53.4 200.254 53.4267 201.001 53.48C201.747 53.5333 202.307 53.56 202.681 53.56C204.761 53.56 206.014 52.92 206.441 51.64C206.867 50.36 207.081 46.6 207.081 40.36V27.8C207.081 23.96 207.081 22.28 207.081 22.76C206.974 19.9867 206.574 18.3867 205.881 17.96C205.454 17.6933 204.761 17.56 203.801 17.56C203.481 17.56 202.601 17.6133 201.161 17.72L198.761 17.88C197.694 17.88 197.161 17.5333 197.161 16.84C197.161 16.1467 197.641 15.8 198.601 15.8C198.974 15.8 199.801 15.8533 201.081 15.96C201.721 16.0133 202.334 16.04 202.921 16.04H204.441C204.761 16.04 205.267 16.0133 205.961 15.96C206.654 15.8533 207.161 15.8 207.481 15.8C208.227 15.8 208.681 15.9867 208.841 16.36C209.054 16.7333 209.161 17.64 209.161 19.08ZM272.027 40.84C267.12 40.84 263.174 39.3467 260.187 36.36H259.707C258.427 36.36 257.387 36.7333 256.587 37.48C255.787 38.2267 255.387 39.2133 255.387 40.44C255.387 44.1733 258.96 46.0933 266.107 46.2L271.787 46.28C278.24 46.3867 282.987 47.0533 286.027 48.28C290.72 50.2 293.067 53.4267 293.067 57.96C293.067 61.9067 291.28 64.92 287.707 67C284.134 69.08 278.96 70.12 272.187 70.12C265.52 70.12 260.347 69.08 256.667 67C252.987 64.9733 251.147 62.0667 251.147 58.28C251.147 53.32 254.454 49.6933 261.067 47.4C255.787 46.6 253.147 44.2533 253.147 40.36C253.147 37.32 255.067 35.32 258.907 34.36C258 32.44 257.547 30.52 257.547 28.6C257.547 24.6533 258.907 21.4 261.627 18.84C264.4 16.28 267.894 15 272.107 15C275.094 15 278.214 15.9067 281.467 17.72C281.254 16.8133 281.147 16.0933 281.147 15.56C281.147 13.7467 281.84 12.2267 283.227 11C284.667 9.77333 286.454 9.16 288.587 9.16C290.4 9.16 291.894 9.66667 293.067 10.68C294.24 11.6933 294.827 12.9733 294.827 14.52C294.827 15.5867 294.48 16.52 293.787 17.32C293.147 18.0667 292.347 18.44 291.387 18.44C289.734 18.44 288.907 17.64 288.907 16.04C288.907 14.5467 289.574 13.8 290.907 13.8C290.96 13.8 291.2 13.8533 291.627 13.96C291.52 13.96 291.654 13.9867 292.027 14.04C292.4 14.04 292.587 13.8267 292.587 13.4C292.587 12.76 292.187 12.2 291.387 11.72C290.64 11.24 289.734 11 288.667 11C286.96 11 285.6 11.48 284.587 12.44C283.574 13.4 283.067 14.68 283.067 16.28C283.067 17.1333 283.28 17.9867 283.707 18.84L285.307 22.04C286.214 23.8533 286.667 25.8533 286.667 28.04C286.667 31.88 285.307 34.9733 282.587 37.32C279.92 39.6667 276.4 40.84 272.027 40.84ZM272.107 39.24C275.84 39.24 278.827 38.2267 281.067 36.2C283.307 34.1733 284.427 31.4533 284.427 28.04C284.427 24.5733 283.307 21.8 281.067 19.72C278.88 17.64 275.947 16.6 272.267 16.6C268.534 16.6 265.52 17.6933 263.227 19.88C260.934 22.0133 259.787 24.84 259.787 28.36C259.787 31.6667 260.907 34.3067 263.147 36.28C265.387 38.2533 268.374 39.24 272.107 39.24ZM272.427 68.52C278.24 68.52 282.747 67.6133 285.947 65.8C289.2 63.9867 290.827 61.4267 290.827 58.12C290.827 51.2933 284.32 47.88 271.307 47.88C265.6 47.88 261.174 48.7867 258.027 50.6C254.934 52.4133 253.387 55 253.387 58.36C253.387 61.6133 255.014 64.12 258.267 65.88C261.574 67.64 266.294 68.52 272.427 68.52ZM327.867 17.88V22.68C330.641 17.56 335.041 15 341.067 15C345.761 15 349.201 16.28 351.387 18.84C352.347 19.96 353.227 21.6133 354.027 23.8C355.147 21.56 356.267 19.88 357.387 18.76C360.001 16.2533 363.414 15 367.627 15C370.774 15 373.441 15.6667 375.627 17C377.867 18.28 379.334 20.0667 380.027 22.36C380.401 23.5867 380.614 25.0533 380.667 26.76C380.721 28.4667 380.747 30.36 380.747 32.44V40.36C380.747 46.5467 380.961 50.3067 381.387 51.64C381.814 52.92 383.041 53.56 385.067 53.56C385.441 53.56 386.001 53.5333 386.747 53.48C387.494 53.4267 388.054 53.4 388.427 53.4H388.827C390.001 53.4 390.587 53.72 390.587 54.36C390.587 55.0533 390.107 55.4 389.147 55.4C388.934 55.4 388.827 55.4 388.827 55.4L386.027 55.16L382.747 54.92L380.507 54.84H378.907L376.587 54.92L373.307 55.16L370.507 55.4C370.454 55.4 370.374 55.4 370.267 55.4C369.254 55.4 368.747 55.08 368.747 54.44C368.747 53.7467 369.334 53.4 370.507 53.4H370.907C371.281 53.4 371.841 53.4267 372.587 53.48C373.334 53.5333 373.894 53.56 374.267 53.56C376.347 53.56 377.601 52.9467 378.027 51.72C378.454 50.44 378.667 46.6533 378.667 40.36V31.72C378.667 27.6667 378.587 25.1333 378.427 24.12C378.267 23.0533 377.734 21.9067 376.827 20.68C374.854 17.96 371.681 16.6 367.307 16.6C362.454 16.6 358.907 18.4667 356.667 22.2C355.281 24.5467 354.587 28.2267 354.587 33.24V40.36C354.587 46.6533 354.774 50.44 355.147 51.72C355.574 52.9467 356.854 53.56 358.987 53.56C359.361 53.56 359.921 53.5333 360.667 53.48C361.414 53.4267 361.974 53.4 362.347 53.4H362.667C363.841 53.4 364.427 53.72 364.427 54.36C364.427 55.0533 363.947 55.4 362.987 55.4H362.667L359.947 55.16L356.667 54.92L354.267 54.84H352.747L350.507 54.92L347.147 55.16L344.347 55.4C344.294 55.4 344.214 55.4 344.107 55.4C343.094 55.4 342.587 55.08 342.587 54.44C342.587 53.7467 343.174 53.4 344.347 53.4H344.747C345.121 53.4 345.681 53.4267 346.427 53.48C347.227 53.5333 347.814 53.56 348.187 53.56C350.214 53.56 351.441 52.92 351.867 51.64C352.294 50.36 352.507 46.6 352.507 40.36V30.36C352.507 27.7467 352.454 26.04 352.347 25.24C352.081 23.48 351.387 21.9067 350.267 20.52C348.187 17.9067 345.094 16.6 340.987 16.6C336.454 16.6 332.934 18.2533 330.427 21.56C328.827 23.6933 328.027 26.84 328.027 31V40.36C328.027 46.6 328.214 50.36 328.587 51.64C329.014 52.92 330.241 53.56 332.267 53.56C332.641 53.56 333.201 53.5333 333.947 53.48C334.747 53.4267 335.334 53.4 335.707 53.4H336.107C337.281 53.4 337.867 53.72 337.867 54.36C337.867 55.0533 337.361 55.4 336.347 55.4C336.187 55.4 336.107 55.4 336.107 55.4L333.307 55.16L329.947 54.92L327.867 54.84H326.187L323.947 54.92L320.587 55.16L317.787 55.4C317.734 55.4 317.654 55.4 317.547 55.4C316.534 55.4 316.027 55.08 316.027 54.44C316.027 53.7467 316.614 53.4 317.787 53.4H318.187C318.561 53.4 319.121 53.4267 319.867 53.48C320.614 53.5333 321.174 53.56 321.547 53.56C323.627 53.56 324.881 52.92 325.307 51.64C325.734 50.36 325.947 46.6 325.947 40.36V27.8C325.947 23.8533 325.947 22.1733 325.947 22.76C325.841 19.9867 325.414 18.3867 324.667 17.96C324.294 17.6933 323.627 17.56 322.667 17.56C322.347 17.56 321.467 17.6133 320.027 17.72L317.867 17.88C317.814 17.88 317.734 17.88 317.627 17.88C316.561 17.88 316.027 17.5333 316.027 16.84C316.027 16.1467 316.481 15.8 317.387 15.8H317.627L319.947 16.04H323.547C323.867 16.04 324.374 16.0133 325.067 15.96C325.761 15.8533 326.267 15.8 326.587 15.8C327.441 15.8 327.867 16.4933 327.867 17.88ZM421.855 47.72L421.775 47.08L421.455 47.64C420.762 48.8133 419.775 50.04 418.495 51.32C415.188 54.5733 411.082 56.2 406.175 56.2C402.335 56.2 399.215 55.1867 396.815 53.16C394.415 51.1333 393.215 48.4933 393.215 45.24C393.215 42.52 394.068 40.1733 395.775 38.2C397.482 36.2267 399.748 34.9467 402.575 34.36C404.495 33.9867 406.762 33.72 409.375 33.56C413.695 33.2933 416.815 32.5467 418.735 31.32C420.655 30.04 421.615 28.0933 421.615 25.48C421.615 22.8133 420.575 20.68 418.495 19.08C416.415 17.4267 413.668 16.6 410.255 16.6C406.682 16.6 403.722 17.3733 401.375 18.92C399.082 20.4667 397.935 22.4133 397.935 24.76C397.935 25.6133 398.175 26.04 398.655 26.04C398.762 26.04 398.922 25.9333 399.135 25.72C399.135 25.6667 399.188 25.5067 399.295 25.24C399.668 24.3333 400.388 23.88 401.455 23.88C403.055 23.88 403.855 24.7333 403.855 26.44C403.855 27.3467 403.482 28.1467 402.735 28.84C402.042 29.48 401.188 29.8 400.175 29.8C398.948 29.8 397.882 29.3467 396.975 28.44C396.122 27.48 395.695 26.36 395.695 25.08C395.695 22.2 397.055 19.8 399.775 17.88C402.548 15.96 405.988 15 410.095 15C414.255 15 417.535 15.9867 419.935 17.96C422.548 20.1467 423.855 23.56 423.855 28.2V43.64L424.015 48.12C424.175 52.44 425.562 54.6 428.175 54.6C431.055 54.6 432.495 52.6267 432.495 48.68V48.28L432.415 44.76C432.362 43.2133 432.735 42.44 433.535 42.44C434.228 42.44 434.575 42.9733 434.575 44.04L434.495 47.24C434.335 53.2133 432.202 56.2 428.095 56.2C424.255 56.2 422.202 53.8533 421.935 49.16L421.855 47.72ZM406.495 54.6C410.762 54.6 414.362 53.1067 417.295 50.12C420.282 47.1333 421.775 43.5333 421.775 39.32V31.56C421.775 31.0267 421.668 30.76 421.455 30.76C421.402 30.76 421.108 31.08 420.575 31.72C418.868 33.8 415.082 35.0267 409.215 35.4C405.802 35.6133 403.242 36.0133 401.535 36.6C399.882 37.1867 398.495 38.1733 397.375 39.56C396.095 41.1067 395.455 43.0267 395.455 45.32C395.455 47.9867 396.495 50.2 398.575 51.96C400.655 53.72 403.295 54.6 406.495 54.6ZM447.767 19.08V23.4C449.634 20.04 452.007 17.7467 454.887 16.52C457.34 15.5067 459.874 15 462.487 15C466.327 15 469.474 15.8533 471.927 17.56C474.38 19.2133 475.927 21.56 476.567 24.6C476.994 26.68 477.207 29.96 477.207 34.44V40.36C477.207 46.6 477.42 50.36 477.847 51.64C478.274 52.92 479.5 53.56 481.527 53.56C481.9 53.56 482.46 53.5333 483.207 53.48C484.007 53.4267 484.594 53.4 484.967 53.4H485.367C486.54 53.4 487.127 53.72 487.127 54.36C487.127 55.0533 486.62 55.4 485.607 55.4C485.447 55.4 485.367 55.4 485.367 55.4L482.567 55.16L479.207 54.92L476.967 54.84H475.447L473.127 54.92L469.847 55.16L467.047 55.4C467.047 55.4 466.94 55.4 466.727 55.4C465.767 55.4 465.287 55.08 465.287 54.44C465.287 53.7467 465.874 53.4 467.047 53.4H467.367C467.74 53.4 468.3 53.4267 469.047 53.48C469.847 53.5333 470.434 53.56 470.807 53.56C472.887 53.56 474.114 52.9467 474.487 51.72C474.914 50.44 475.127 46.6533 475.127 40.36V34.36C475.127 27.5867 474.38 23.16 472.887 21.08C470.754 18.0933 467.18 16.6 462.167 16.6C456.034 16.6 451.74 19.0267 449.287 23.88C448.274 25.8533 447.767 29.0267 447.767 33.4V40.36C447.767 46.6 447.98 50.36 448.407 51.64C448.834 52.92 450.06 53.56 452.087 53.56C452.46 53.56 453.02 53.5333 453.767 53.48C454.514 53.4267 455.074 53.4 455.447 53.4H455.847C457.02 53.4 457.607 53.72 457.607 54.36C457.607 55.0533 457.127 55.4 456.167 55.4C455.9 55.4 455.794 55.4 455.847 55.4L453.047 55.16L449.767 54.92L447.367 54.84H445.927L443.687 54.92L440.327 55.16L437.527 55.4C437.474 55.4 437.394 55.4 437.287 55.4C436.274 55.4 435.767 55.08 435.767 54.44C435.767 53.7467 436.354 53.4 437.527 53.4H437.927C438.3 53.4 438.86 53.4267 439.607 53.48C440.354 53.5333 440.914 53.56 441.287 53.56C443.367 53.56 444.62 52.92 445.047 51.64C445.474 50.36 445.687 46.6 445.687 40.36V27.8C445.687 23.96 445.687 22.28 445.687 22.76C445.58 19.9867 445.18 18.3867 444.487 17.96C444.06 17.6933 443.367 17.56 442.407 17.56C442.087 17.56 441.207 17.6133 439.767 17.72L437.367 17.88C436.3 17.88 435.767 17.5333 435.767 16.84C435.767 16.1467 436.247 15.8 437.207 15.8C437.58 15.8 438.407 15.8533 439.687 15.96C440.327 16.0133 440.94 16.04 441.527 16.04H443.047C443.367 16.04 443.874 16.0133 444.567 15.96C445.26 15.8533 445.767 15.8 446.087 15.8C446.834 15.8 447.287 15.9867 447.447 16.36C447.66 16.7333 447.767 17.64 447.767 19.08ZM518.313 47.72L518.233 47.08L517.913 47.64C517.22 48.8133 516.233 50.04 514.953 51.32C511.646 54.5733 507.54 56.2 502.633 56.2C498.793 56.2 495.673 55.1867 493.273 53.16C490.873 51.1333 489.673 48.4933 489.673 45.24C489.673 42.52 490.526 40.1733 492.233 38.2C493.94 36.2267 496.206 34.9467 499.033 34.36C500.953 33.9867 503.22 33.72 505.833 33.56C510.153 33.2933 513.273 32.5467 515.193 31.32C517.113 30.04 518.073 28.0933 518.073 25.48C518.073 22.8133 517.033 20.68 514.953 19.08C512.873 17.4267 510.126 16.6 506.713 16.6C503.14 16.6 500.18 17.3733 497.833 18.92C495.54 20.4667 494.393 22.4133 494.393 24.76C494.393 25.6133 494.633 26.04 495.113 26.04C495.22 26.04 495.38 25.9333 495.593 25.72C495.593 25.6667 495.646 25.5067 495.753 25.24C496.126 24.3333 496.846 23.88 497.913 23.88C499.513 23.88 500.313 24.7333 500.313 26.44C500.313 27.3467 499.94 28.1467 499.193 28.84C498.5 29.48 497.646 29.8 496.633 29.8C495.406 29.8 494.34 29.3467 493.433 28.44C492.58 27.48 492.153 26.36 492.153 25.08C492.153 22.2 493.513 19.8 496.233 17.88C499.006 15.96 502.446 15 506.553 15C510.713 15 513.993 15.9867 516.393 17.96C519.006 20.1467 520.313 23.56 520.313 28.2V43.64L520.473 48.12C520.633 52.44 522.02 54.6 524.633 54.6C527.513 54.6 528.953 52.6267 528.953 48.68V48.28L528.873 44.76C528.82 43.2133 529.193 42.44 529.993 42.44C530.686 42.44 531.033 42.9733 531.033 44.04L530.953 47.24C530.793 53.2133 528.66 56.2 524.553 56.2C520.713 56.2 518.66 53.8533 518.393 49.16L518.313 47.72ZM502.953 54.6C507.22 54.6 510.82 53.1067 513.753 50.12C516.74 47.1333 518.233 43.5333 518.233 39.32V31.56C518.233 31.0267 518.126 30.76 517.913 30.76C517.86 30.76 517.566 31.08 517.033 31.72C515.326 33.8 511.54 35.0267 505.673 35.4C502.26 35.6133 499.7 36.0133 497.993 36.6C496.34 37.1867 494.953 38.1733 493.833 39.56C492.553 41.1067 491.913 43.0267 491.913 45.32C491.913 47.9867 492.953 50.2 495.033 51.96C497.113 53.72 499.753 54.6 502.953 54.6ZM553.745 40.84C548.838 40.84 544.892 39.3467 541.905 36.36H541.425C540.145 36.36 539.105 36.7333 538.305 37.48C537.505 38.2267 537.105 39.2133 537.105 40.44C537.105 44.1733 540.678 46.0933 547.825 46.2L553.505 46.28C559.958 46.3867 564.705 47.0533 567.745 48.28C572.438 50.2 574.785 53.4267 574.785 57.96C574.785 61.9067 572.998 64.92 569.425 67C565.852 69.08 560.678 70.12 553.905 70.12C547.238 70.12 542.065 69.08 538.385 67C534.705 64.9733 532.865 62.0667 532.865 58.28C532.865 53.32 536.172 49.6933 542.785 47.4C537.505 46.6 534.865 44.2533 534.865 40.36C534.865 37.32 536.785 35.32 540.625 34.36C539.718 32.44 539.265 30.52 539.265 28.6C539.265 24.6533 540.625 21.4 543.345 18.84C546.118 16.28 549.612 15 553.825 15C556.812 15 559.932 15.9067 563.185 17.72C562.972 16.8133 562.865 16.0933 562.865 15.56C562.865 13.7467 563.558 12.2267 564.945 11C566.385 9.77333 568.172 9.16 570.305 9.16C572.118 9.16 573.612 9.66667 574.785 10.68C575.958 11.6933 576.545 12.9733 576.545 14.52C576.545 15.5867 576.198 16.52 575.505 17.32C574.865 18.0667 574.065 18.44 573.105 18.44C571.452 18.44 570.625 17.64 570.625 16.04C570.625 14.5467 571.292 13.8 572.625 13.8C572.678 13.8 572.918 13.8533 573.345 13.96C573.238 13.96 573.372 13.9867 573.745 14.04C574.118 14.04 574.305 13.8267 574.305 13.4C574.305 12.76 573.905 12.2 573.105 11.72C572.358 11.24 571.452 11 570.385 11C568.678 11 567.318 11.48 566.305 12.44C565.292 13.4 564.785 14.68 564.785 16.28C564.785 17.1333 564.998 17.9867 565.425 18.84L567.025 22.04C567.932 23.8533 568.385 25.8533 568.385 28.04C568.385 31.88 567.025 34.9733 564.305 37.32C561.638 39.6667 558.118 40.84 553.745 40.84ZM553.825 39.24C557.558 39.24 560.545 38.2267 562.785 36.2C565.025 34.1733 566.145 31.4533 566.145 28.04C566.145 24.5733 565.025 21.8 562.785 19.72C560.598 17.64 557.665 16.6 553.985 16.6C550.252 16.6 547.238 17.6933 544.945 19.88C542.652 22.0133 541.505 24.84 541.505 28.36C541.505 31.6667 542.625 34.3067 544.865 36.28C547.105 38.2533 550.092 39.24 553.825 39.24ZM554.145 68.52C559.958 68.52 564.465 67.6133 567.665 65.8C570.918 63.9867 572.545 61.4267 572.545 58.12C572.545 51.2933 566.038 47.88 553.025 47.88C547.318 47.88 542.892 48.7867 539.745 50.6C536.652 52.4133 535.105 55 535.105 58.36C535.105 61.6133 536.732 64.12 539.985 65.88C543.292 67.64 548.012 68.52 554.145 68.52ZM612.278 32.52C612.278 33.64 612.011 34.3067 611.478 34.52C610.998 34.7333 610.225 34.84 609.158 34.84H580.838C580.091 34.84 579.611 34.9467 579.398 35.16C579.238 35.3733 579.158 35.9067 579.158 36.76C579.158 42.0933 580.598 46.4133 583.478 49.72C586.411 52.9733 590.225 54.6 594.918 54.6C599.985 54.6 603.958 52.8133 606.838 49.24C607.958 47.8533 608.758 46.3333 609.238 44.68C609.238 44.52 609.371 43.8533 609.638 42.68C609.851 41.7733 610.251 41.32 610.838 41.32C611.478 41.32 611.798 41.6933 611.798 42.44C611.798 43.3467 611.505 44.5467 610.918 46.04C609.638 49.24 607.585 51.7467 604.758 53.56C601.985 55.32 598.731 56.2 594.998 56.2C589.558 56.2 585.185 54.36 581.878 50.68C578.571 47 576.918 42.1467 576.918 36.12C576.918 29.88 578.625 24.8133 582.038 20.92C585.505 16.9733 589.958 15 595.398 15C600.145 15 604.145 16.7067 607.398 20.12C610.651 23.48 612.278 27.6133 612.278 32.52ZM579.478 31.8C579.478 32.6 580.065 33 581.238 33H608.758C609.665 33 610.118 32.5733 610.118 31.72C610.118 28.3067 608.945 25.0533 606.598 21.96C603.878 18.3867 600.091 16.6 595.238 16.6C591.558 16.6 588.385 17.64 585.718 19.72C583.105 21.7467 581.238 24.6267 580.118 28.36C579.691 29.7467 579.478 30.8933 579.478 31.8ZM629.664 17.88V22.68C632.437 17.56 636.837 15 642.864 15C647.557 15 650.997 16.28 653.184 18.84C654.144 19.96 655.024 21.6133 655.824 23.8C656.944 21.56 658.064 19.88 659.184 18.76C661.797 16.2533 665.21 15 669.424 15C672.57 15 675.237 15.6667 677.424 17C679.664 18.28 681.13 20.0667 681.824 22.36C682.197 23.5867 682.41 25.0533 682.464 26.76C682.517 28.4667 682.544 30.36 682.544 32.44V40.36C682.544 46.5467 682.757 50.3067 683.184 51.64C683.61 52.92 684.837 53.56 686.864 53.56C687.237 53.56 687.797 53.5333 688.544 53.48C689.29 53.4267 689.85 53.4 690.224 53.4H690.624C691.797 53.4 692.384 53.72 692.384 54.36C692.384 55.0533 691.904 55.4 690.944 55.4C690.73 55.4 690.624 55.4 690.624 55.4L687.824 55.16L684.544 54.92L682.304 54.84H680.704L678.384 54.92L675.104 55.16L672.304 55.4C672.25 55.4 672.17 55.4 672.064 55.4C671.05 55.4 670.544 55.08 670.544 54.44C670.544 53.7467 671.13 53.4 672.304 53.4H672.704C673.077 53.4 673.637 53.4267 674.384 53.48C675.13 53.5333 675.69 53.56 676.064 53.56C678.144 53.56 679.397 52.9467 679.824 51.72C680.25 50.44 680.464 46.6533 680.464 40.36V31.72C680.464 27.6667 680.384 25.1333 680.224 24.12C680.064 23.0533 679.53 21.9067 678.624 20.68C676.65 17.96 673.477 16.6 669.104 16.6C664.25 16.6 660.704 18.4667 658.464 22.2C657.077 24.5467 656.384 28.2267 656.384 33.24V40.36C656.384 46.6533 656.57 50.44 656.944 51.72C657.37 52.9467 658.65 53.56 660.784 53.56C661.157 53.56 661.717 53.5333 662.464 53.48C663.21 53.4267 663.77 53.4 664.144 53.4H664.464C665.637 53.4 666.224 53.72 666.224 54.36C666.224 55.0533 665.744 55.4 664.784 55.4H664.464L661.744 55.16L658.464 54.92L656.064 54.84H654.544L652.304 54.92L648.944 55.16L646.144 55.4C646.09 55.4 646.01 55.4 645.904 55.4C644.89 55.4 644.384 55.08 644.384 54.44C644.384 53.7467 644.97 53.4 646.144 53.4H646.544C646.917 53.4 647.477 53.4267 648.224 53.48C649.024 53.5333 649.61 53.56 649.984 53.56C652.01 53.56 653.237 52.92 653.664 51.64C654.09 50.36 654.304 46.6 654.304 40.36V30.36C654.304 27.7467 654.25 26.04 654.144 25.24C653.877 23.48 653.184 21.9067 652.064 20.52C649.984 17.9067 646.89 16.6 642.784 16.6C638.25 16.6 634.73 18.2533 632.224 21.56C630.624 23.6933 629.824 26.84 629.824 31V40.36C629.824 46.6 630.01 50.36 630.384 51.64C630.81 52.92 632.037 53.56 634.064 53.56C634.437 53.56 634.997 53.5333 635.744 53.48C636.544 53.4267 637.13 53.4 637.504 53.4H637.904C639.077 53.4 639.664 53.72 639.664 54.36C639.664 55.0533 639.157 55.4 638.144 55.4C637.984 55.4 637.904 55.4 637.904 55.4L635.104 55.16L631.744 54.92L629.664 54.84H627.984L625.744 54.92L622.384 55.16L619.584 55.4C619.53 55.4 619.45 55.4 619.344 55.4C618.33 55.4 617.824 55.08 617.824 54.44C617.824 53.7467 618.41 53.4 619.584 53.4H619.984C620.357 53.4 620.917 53.4267 621.664 53.48C622.41 53.5333 622.97 53.56 623.344 53.56C625.424 53.56 626.677 52.92 627.104 51.64C627.53 50.36 627.744 46.6 627.744 40.36V27.8C627.744 23.8533 627.744 22.1733 627.744 22.76C627.637 19.9867 627.21 18.3867 626.464 17.96C626.09 17.6933 625.424 17.56 624.464 17.56C624.144 17.56 623.264 17.6133 621.824 17.72L619.664 17.88C619.61 17.88 619.53 17.88 619.424 17.88C618.357 17.88 617.824 17.5333 617.824 16.84C617.824 16.1467 618.277 15.8 619.184 15.8H619.424L621.744 16.04H625.344C625.664 16.04 626.17 16.0133 626.864 15.96C627.557 15.8533 628.064 15.8 628.384 15.8C629.237 15.8 629.664 16.4933 629.664 17.88ZM730.611 32.52C730.611 33.64 730.345 34.3067 729.811 34.52C729.331 34.7333 728.558 34.84 727.491 34.84H699.171C698.425 34.84 697.945 34.9467 697.731 35.16C697.571 35.3733 697.491 35.9067 697.491 36.76C697.491 42.0933 698.931 46.4133 701.811 49.72C704.745 52.9733 708.558 54.6 713.251 54.6C718.318 54.6 722.291 52.8133 725.171 49.24C726.291 47.8533 727.091 46.3333 727.571 44.68C727.571 44.52 727.705 43.8533 727.971 42.68C728.185 41.7733 728.585 41.32 729.171 41.32C729.811 41.32 730.131 41.6933 730.131 42.44C730.131 43.3467 729.838 44.5467 729.251 46.04C727.971 49.24 725.918 51.7467 723.091 53.56C720.318 55.32 717.065 56.2 713.331 56.2C707.891 56.2 703.518 54.36 700.211 50.68C696.905 47 695.251 42.1467 695.251 36.12C695.251 29.88 696.958 24.8133 700.371 20.92C703.838 16.9733 708.291 15 713.731 15C718.478 15 722.478 16.7067 725.731 20.12C728.985 23.48 730.611 27.6133 730.611 32.52ZM697.811 31.8C697.811 32.6 698.398 33 699.571 33H727.091C727.998 33 728.451 32.5733 728.451 31.72C728.451 28.3067 727.278 25.0533 724.931 21.96C722.211 18.3867 718.425 16.6 713.571 16.6C709.891 16.6 706.718 17.64 704.051 19.72C701.438 21.7467 699.571 24.6267 698.451 28.36C698.025 29.7467 697.811 30.8933 697.811 31.8ZM748.157 19.08V23.4C750.024 20.04 752.397 17.7467 755.277 16.52C757.73 15.5067 760.264 15 762.877 15C766.717 15 769.864 15.8533 772.317 17.56C774.77 19.2133 776.317 21.56 776.957 24.6C777.384 26.68 777.597 29.96 777.597 34.44V40.36C777.597 46.6 777.81 50.36 778.237 51.64C778.664 52.92 779.89 53.56 781.917 53.56C782.29 53.56 782.85 53.5333 783.597 53.48C784.397 53.4267 784.984 53.4 785.357 53.4H785.757C786.93 53.4 787.517 53.72 787.517 54.36C787.517 55.0533 787.01 55.4 785.997 55.4C785.837 55.4 785.757 55.4 785.757 55.4L782.957 55.16L779.597 54.92L777.357 54.84H775.837L773.517 54.92L770.237 55.16L767.437 55.4C767.437 55.4 767.33 55.4 767.117 55.4C766.157 55.4 765.677 55.08 765.677 54.44C765.677 53.7467 766.264 53.4 767.437 53.4H767.757C768.13 53.4 768.69 53.4267 769.437 53.48C770.237 53.5333 770.824 53.56 771.197 53.56C773.277 53.56 774.504 52.9467 774.877 51.72C775.304 50.44 775.517 46.6533 775.517 40.36V34.36C775.517 27.5867 774.77 23.16 773.277 21.08C771.144 18.0933 767.57 16.6 762.557 16.6C756.424 16.6 752.13 19.0267 749.677 23.88C748.664 25.8533 748.157 29.0267 748.157 33.4V40.36C748.157 46.6 748.37 50.36 748.797 51.64C749.224 52.92 750.45 53.56 752.477 53.56C752.85 53.56 753.41 53.5333 754.157 53.48C754.904 53.4267 755.464 53.4 755.837 53.4H756.237C757.41 53.4 757.997 53.72 757.997 54.36C757.997 55.0533 757.517 55.4 756.557 55.4C756.29 55.4 756.184 55.4 756.237 55.4L753.437 55.16L750.157 54.92L747.757 54.84H746.317L744.077 54.92L740.717 55.16L737.917 55.4C737.864 55.4 737.784 55.4 737.677 55.4C736.664 55.4 736.157 55.08 736.157 54.44C736.157 53.7467 736.744 53.4 737.917 53.4H738.317C738.69 53.4 739.25 53.4267 739.997 53.48C740.744 53.5333 741.304 53.56 741.677 53.56C743.757 53.56 745.01 52.92 745.437 51.64C745.864 50.36 746.077 46.6 746.077 40.36V27.8C746.077 23.96 746.077 22.28 746.077 22.76C745.97 19.9867 745.57 18.3867 744.877 17.96C744.45 17.6933 743.757 17.56 742.797 17.56C742.477 17.56 741.597 17.6133 740.157 17.72L737.757 17.88C736.69 17.88 736.157 17.5333 736.157 16.84C736.157 16.1467 736.637 15.8 737.597 15.8C737.97 15.8 738.797 15.8533 740.077 15.96C740.717 16.0133 741.33 16.04 741.917 16.04H743.437C743.757 16.04 744.264 16.0133 744.957 15.96C745.65 15.8533 746.157 15.8 746.477 15.8C747.224 15.8 747.677 15.9867 747.837 16.36C748.05 16.7333 748.157 17.64 748.157 19.08ZM797.903 18.68C797.85 19 797.823 19.88 797.823 21.32V38.12C797.823 43.4 798.143 47.1867 798.783 49.48C799.743 52.8933 801.93 54.6 805.343 54.6C808.063 54.6 809.983 53.6933 811.103 51.88C812.223 50.0133 812.783 46.8667 812.783 42.44V40.04C812.783 39.88 812.783 39.72 812.783 39.56C812.73 39.4 812.703 39.2933 812.703 39.24C812.703 38.12 813.076 37.56 813.823 37.56C814.57 37.56 814.943 38.12 814.943 39.24V41.24C814.943 44.9733 814.676 47.9067 814.143 50.04C813.13 54.1467 810.196 56.2 805.343 56.2C798.943 56.2 795.743 51.6133 795.743 42.44V21.32C795.743 19.6133 795.61 18.5733 795.343 18.2C795.13 17.7733 794.49 17.56 793.423 17.56C793.103 17.56 792.303 17.6133 791.023 17.72L789.183 17.88C788.17 17.88 787.663 17.5067 787.663 16.76C787.663 16.12 788.143 15.8 789.103 15.8C789.53 15.8 790.17 15.8533 791.023 15.96C791.876 16.0133 792.516 16.04 792.943 16.04C794.596 16.04 795.61 15.5333 795.983 14.52C796.196 13.9333 796.303 12.8933 796.303 11.4V11C796.303 8.76 796.356 7.37333 796.463 6.84C796.623 6.25333 796.943 5.96 797.423 5.96C798.01 5.96 798.303 6.38666 798.303 7.24V7.4L798.063 11.24C798.01 12.0933 797.983 13.1067 797.983 14.28C797.983 15.4533 798.756 16.04 800.303 16.04H802.943C803.53 16.04 804.41 16.0133 805.583 15.96C806.81 15.8533 807.716 15.8 808.303 15.8C809.37 15.8 809.903 16.1467 809.903 16.84C809.903 17.5333 809.316 17.88 808.143 17.88H807.983L805.503 17.8C805.076 17.8 804.196 17.7467 802.863 17.64C801.743 17.5867 800.863 17.56 800.223 17.56C798.783 17.56 798.01 17.9333 797.903 18.68Z" fill="white" fill-opacity="0.5"/>
</svg>
