<svg width="366" height="57" viewBox="0 0 366 57" fill="none" xmlns="http://www.w3.org/2000/svg">
<path d="M41.92 55.32L34.96 55.08L24.72 55L15.76 54.76H10.88L8.64 54.68C8.26667 54.68 7.68 54.7067 6.88 54.76C6.4 54.76 5.62667 54.8133 4.56 54.92L2.56 55.08C2.50667 55.08 2.4 55.08 2.24 55.08C0.746667 55.08 2.98023e-08 54.68 2.98023e-08 53.88C2.98023e-08 53.0267 0.666667 52.6 2 52.6C2.21333 52.6 2.37333 52.6267 2.48 52.68L4.64 52.92C5.6 53.0267 6.48 53.08 7.28 53.08C8.88 53.08 9.89333 52.44 10.32 51.16C10.5333 50.5733 10.64 49.24 10.64 47.16V46.52C10.64 46.2 10.6667 44.52 10.72 41.48C10.72 41.48 10.72 39.5867 10.72 35.8V20.68C10.72 16.8933 10.72 15 10.72 15L10.64 9.32C10.64 7.18667 10.5333 5.85333 10.32 5.32C9.94667 4.04 8.93333 3.4 7.28 3.4C6.48 3.4 5.6 3.45333 4.64 3.56L2.48 3.8H2.08C0.693333 3.8 2.98023e-08 3.4 2.98023e-08 2.6C2.98023e-08 1.85333 0.72 1.48 2.16 1.48C2.48 1.48 2.61333 1.48 2.56 1.48C5.76 1.69333 7.81333 1.8 8.72 1.8L34.96 1.72L41.84 1.32C41.84 1.32 42 1.32 42.32 1.32C44.08 1.32 44.96 2.14667 44.96 3.8C44.96 4.33333 44.9333 5.37333 44.88 6.92C44.8267 8.46666 44.8 10.2267 44.8 12.2C44.8 15.3467 44.88 17.7733 45.04 19.48V19.96C45.04 21.8267 44.64 22.76 43.84 22.76C43.04 22.76 42.64 21.96 42.64 20.36V19.72C42.7467 18.6 42.8267 17.48 42.88 16.36L42.96 13.32L43.12 10.2C43.12 10.2 43.12 9.96 43.12 9.48C43.12 6.65333 42.72 4.94666 41.92 4.36C41.12 3.72 38.88 3.4 35.2 3.4H17.84C15.5467 3.4 14.16 3.77333 13.68 4.52C13.2 5.21333 12.96 7.37333 12.96 11L13.04 23.8C13.0933 24.9733 13.28 25.6933 13.6 25.96C13.92 26.1733 14.8533 26.28 16.4 26.28H24.8C29.0133 26.28 31.12 24.8933 31.12 22.12V21.88L31.04 19.64L30.88 16.6C30.88 15.16 31.2267 14.44 31.92 14.44C32.6667 14.44 33.04 15.1867 33.04 16.68C33.04 17.0533 32.96 18.0933 32.8 19.8C32.5333 22.5733 32.4 24.9467 32.4 26.92C32.4 31.5067 32.64 35.56 33.12 39.08V39.8C33.12 41.2933 32.7467 42.04 32 42.04C31.1467 42.04 30.72 41.1867 30.72 39.48C30.72 39.2667 30.72 39.1333 30.72 39.08L30.96 36.2L31.12 33.56C31.12 33.56 31.12 33.3733 31.12 33C31.12 31.0267 30.6667 29.6933 29.76 29C28.8533 28.2533 27.2 27.88 24.8 27.88H15.92C14.5333 27.88 13.68 28.0667 13.36 28.44C13.0933 28.76 12.96 29.6667 12.96 31.16V48.12C12.96 49.6133 12.9867 50.52 13.04 50.84C13.2533 51.9067 13.76 52.5733 14.56 52.84C15.0933 53 16.5867 53.08 19.04 53.08H33.84C38.64 53.08 41.5467 52.6533 42.56 51.8C43.6267 50.8933 44.16 48.4667 44.16 44.52C44.16 43.1867 44.1333 42.0133 44.08 41L43.92 37.72C43.92 36.12 44.2933 35.32 45.04 35.32C45.7333 35.32 46.08 35.9867 46.08 37.32V37.64L45.84 40.12C45.84 40.8667 45.7867 41.9867 45.68 43.48C45.6267 44.92 45.6 46.0133 45.6 46.76V51.4C45.6 52.9467 45.3333 54.0133 44.8 54.6C44.32 55.1333 43.36 55.3733 41.92 55.32ZM97.1063 52.36L67.0262 4.52C66.8129 4.2 66.6529 4.04 66.5462 4.04C66.3862 4.04 66.3062 4.30666 66.3062 4.84L66.4662 47.96C66.5196 50.04 66.8129 51.48 67.3462 52.28C67.9329 53.0267 68.9462 53.4 70.3862 53.4C70.8129 53.4 71.6396 53.3467 72.8663 53.24C73.5063 53.1867 74.1729 53.16 74.8662 53.16C75.9863 53.16 76.5463 53.5067 76.5463 54.2C76.5463 54.8933 75.9863 55.24 74.8662 55.24H74.6262C74.4662 55.24 74.1996 55.24 73.8263 55.24C73.4529 55.1867 73.1329 55.16 72.8663 55.16C72.2262 55.1067 71.4529 55.0267 70.5462 54.92C68.8929 54.76 67.9862 54.68 67.8262 54.68H62.6262C62.5196 54.68 61.6129 54.76 59.9062 54.92C59.5329 54.92 58.7596 55 57.5862 55.16C57.3196 55.16 56.9996 55.1867 56.6262 55.24C56.1996 55.24 55.9329 55.24 55.8262 55.24H55.5062C54.3862 55.24 53.8262 54.92 53.8262 54.28C53.8262 53.5333 54.4129 53.16 55.5862 53.16C56.2796 53.16 56.9462 53.1867 57.5862 53.24C58.8129 53.3467 59.6396 53.4 60.0662 53.4C61.6662 53.4 62.7596 52.8667 63.3462 51.8C63.6662 51.1067 63.8529 49.8267 63.9062 47.96L64.0662 42.04V9.56C64.0129 7 63.8796 5.42666 63.6662 4.84C63.1862 3.77333 61.9596 3.24 59.9862 3.24C59.1862 3.24 58.4662 3.26667 57.8262 3.32C56.5462 3.42666 55.8529 3.48 55.7462 3.48H55.5062C54.3862 3.48 53.8262 3.16 53.8262 2.52C53.8262 1.72 54.3862 1.32 55.5062 1.32C55.9329 1.32 56.6262 1.4 57.5862 1.56C59.9862 1.72 61.3996 1.8 61.8262 1.8C62.0929 1.8 62.4396 1.77333 62.8662 1.72C63.2929 1.72 63.6129 1.72 63.8262 1.72C64.9462 1.56 65.6929 1.48 66.0662 1.48C67.0796 1.48 67.9062 2.04 68.5462 3.16L69.3462 4.52L99.0262 51.32C99.1863 51.6933 99.3996 51.88 99.6663 51.88C99.8796 51.88 99.9863 51.5867 99.9863 51L99.8262 8.68C99.7729 6.81333 99.5596 5.53333 99.1863 4.84C98.6529 3.77333 97.5596 3.24 95.9063 3.24C95.4796 3.24 94.6529 3.29333 93.4263 3.4C92.1996 3.50667 91.5329 3.56 91.4263 3.56C90.3063 3.56 89.7463 3.18667 89.7463 2.44C89.7463 1.8 90.3063 1.48 91.4263 1.48H91.6662L93.5062 1.56C93.8796 1.61333 94.6263 1.69333 95.7462 1.8C97.3463 1.96 98.7596 2.04 99.9863 2.04H102.226C103.506 2.04 104.92 1.96 106.466 1.8C107.106 1.74667 107.88 1.66667 108.786 1.56L110.786 1.48C111.906 1.48 112.466 1.8 112.466 2.44C112.466 3.18667 111.906 3.56 110.786 3.56C110.68 3.56 110.013 3.50667 108.786 3.4C107.56 3.29333 106.733 3.24 106.306 3.24C104.653 3.24 103.56 3.77333 103.026 4.84C102.653 5.53333 102.44 6.81333 102.386 8.68L102.226 14.6V51.32C102.226 53.24 102.013 54.44 101.586 54.92C101.32 55.1867 100.893 55.32 100.306 55.32C99.3996 55.32 98.3329 54.3333 97.1063 52.36ZM157.283 1.16C158.083 1.16 158.589 1.53333 158.803 2.28C158.856 2.54666 158.883 3.24 158.883 4.36V36.68C158.883 39.24 158.909 41.4 158.963 43.16L159.123 48.68C159.123 50.5467 159.443 51.88 160.083 52.68C160.776 53.4267 161.923 53.8 163.523 53.8C163.576 53.8 163.869 53.7733 164.403 53.72C164.989 53.6667 165.736 53.6133 166.643 53.56C167.549 53.5067 168.189 53.48 168.563 53.48C169.896 53.48 170.563 53.8533 170.563 54.6C170.563 55.24 170.056 55.56 169.043 55.56C168.669 55.56 167.416 55.4533 165.283 55.24C161.016 54.8133 158.269 54.6 157.043 54.6C154.643 54.6 152.243 54.76 149.843 55.08C147.869 55.3467 146.776 55.48 146.563 55.48C145.336 55.48 144.723 55.1067 144.723 54.36C144.723 53.6667 145.309 53.32 146.483 53.32C147.123 53.32 147.816 53.3733 148.563 53.48C149.363 53.5867 150.349 53.64 151.523 53.64C153.443 53.64 154.749 53.24 155.443 52.44C156.189 51.5867 156.563 50.04 156.563 47.8C156.563 45.7733 156.589 43.96 156.643 42.36C156.696 40.7067 156.723 38.7333 156.723 36.44V12.84C156.723 8.25333 156.483 5.45333 156.003 4.44C155.523 3.37333 154.243 2.84 152.163 2.84C151.789 2.84 150.803 2.89333 149.203 3C148.403 3.05333 147.603 3.08 146.803 3.08C145.523 3.08 144.883 2.70666 144.883 1.96C144.883 1.26666 145.389 0.919995 146.403 0.919995C146.563 0.919995 146.696 0.946663 146.803 0.999999L148.963 1.32C150.029 1.48 151.363 1.56 152.963 1.56C153.229 1.56 153.549 1.53333 153.923 1.48C154.243 1.48 154.456 1.48 154.563 1.48C156.003 1.26666 156.909 1.16 157.283 1.16ZM181.954 27.64L184.834 3.48C184.994 2.36 185.58 1.82666 186.594 1.88L187.874 1.96L212.674 1.88C213.474 1.82666 213.927 2.70666 214.034 4.52C214.087 5.37333 214.22 6.25333 214.434 7.16L214.994 9.48C215.1 9.74667 215.154 10.12 215.154 10.6C215.154 11.3467 214.887 11.72 214.354 11.72C213.714 11.72 213.34 11.16 213.234 10.04L212.994 7.32C212.834 5.72 212.38 4.70666 211.634 4.28C211.1 3.90666 209.98 3.72 208.274 3.72H188.354C187.447 3.72 186.914 4.06666 186.754 4.76C186.754 4.65333 186.7 5.02666 186.594 5.88L183.954 27C183.954 27.2667 184.034 27.4 184.194 27.4C184.354 27.4 184.567 27.2667 184.834 27C186.434 25.0267 188.62 23.48 191.394 22.36C194.22 21.1867 197.207 20.6 200.354 20.6C205.9 20.6 210.354 22.1467 213.714 25.24C217.074 28.3333 218.754 32.4667 218.754 37.64C218.754 43.24 216.887 47.8 213.154 51.32C209.42 54.7867 204.567 56.52 198.594 56.52C193.154 56.52 188.594 55.2133 184.914 52.6C181.287 49.9333 179.474 46.6267 179.474 42.68C179.474 40.8667 179.927 39.3733 180.834 38.2C181.794 37.0267 182.994 36.44 184.434 36.44C186.407 36.44 187.394 37.32 187.394 39.08C187.394 40.68 186.62 41.48 185.074 41.48C184.487 41.48 183.874 41.2133 183.234 40.68C183.127 40.6267 183.02 40.6 182.914 40.6C181.9 40.6 181.394 41.4267 181.394 43.08C181.394 46.3333 182.994 49.1067 186.194 51.4C189.447 53.64 193.367 54.76 197.954 54.76C203.66 54.76 208.167 53.24 211.474 50.2C214.78 47.16 216.434 43.0533 216.434 37.88C216.434 33.08 214.994 29.32 212.114 26.6C209.287 23.8267 205.394 22.44 200.434 22.44C197.554 22.44 194.754 23 192.034 24.12C189.367 25.1867 187.287 26.6 185.794 28.36C184.78 29.5867 183.927 30.2 183.234 30.2C182.327 30.2 181.874 29.64 181.874 28.52C181.874 28.1467 181.9 27.8533 181.954 27.64ZM248.205 0.119996C254.765 0.119996 259.912 2.65333 263.645 7.72C267.432 12.7867 269.325 19.7467 269.325 28.6C269.325 37.1867 267.405 43.9867 263.565 49C259.725 54.0133 254.552 56.52 248.045 56.52C241.485 56.52 236.312 54.0133 232.525 49C228.738 43.9867 226.845 37.1333 226.845 28.44C226.845 19.8 228.765 12.92 232.605 7.8C236.498 2.68 241.698 0.119996 248.205 0.119996ZM247.965 54.76C253.992 54.76 258.658 52.44 261.965 47.8C265.325 43.16 267.005 36.5733 267.005 28.04C267.005 19.7733 265.325 13.3733 261.965 8.84C258.658 4.25333 253.965 1.96 247.885 1.96C242.072 1.96 237.485 4.36 234.125 9.16C230.818 13.9067 229.165 20.44 229.165 28.76C229.165 36.9733 230.818 43.3733 234.125 47.96C237.432 52.4933 242.045 54.76 247.965 54.76ZM283.096 27C285.07 25.6133 287.656 24.44 290.856 23.48C283.976 21.6133 280.536 18.0133 280.536 12.68C280.536 9 282.083 5.98666 285.176 3.64C288.27 1.29333 292.216 0.119996 297.016 0.119996C301.816 0.119996 305.763 1.29333 308.856 3.64C311.95 5.93333 313.496 8.89333 313.496 12.52C313.496 18.0133 310.083 21.6667 303.256 23.48C306.563 24.44 309.15 25.6133 311.016 27C315.23 30.04 317.336 34.1733 317.336 39.4C317.336 44.52 315.443 48.6533 311.656 51.8C307.923 54.9467 303.043 56.52 297.016 56.52C290.99 56.52 286.11 54.9467 282.376 51.8C278.643 48.6 276.776 44.4667 276.776 39.4C276.776 34.0667 278.883 29.9333 283.096 27ZM279.096 39.56C279.096 44.1467 280.723 47.8267 283.976 50.6C287.283 53.3733 291.63 54.76 297.016 54.76C302.456 54.76 306.803 53.3733 310.056 50.6C313.363 47.8267 315.016 44.1467 315.016 39.56C315.016 34.9733 313.363 31.2933 310.056 28.52C306.75 25.7467 302.403 24.36 297.016 24.36C291.63 24.36 287.283 25.7733 283.976 28.6C280.723 31.3733 279.096 35.0267 279.096 39.56ZM282.936 12.2C282.936 15.1867 284.27 17.6933 286.936 19.72C289.603 21.6933 292.963 22.68 297.016 22.68C301.07 22.68 304.43 21.6933 307.096 19.72C309.816 17.6933 311.176 15.1867 311.176 12.2C311.176 9.21333 309.843 6.76 307.176 4.84C304.563 2.92 301.176 1.96 297.016 1.96C292.856 1.96 289.47 2.92 286.856 4.84C284.243 6.70667 282.936 9.16 282.936 12.2ZM328.867 27.64L331.747 3.48C331.907 2.36 332.494 1.82666 333.507 1.88L334.787 1.96L359.587 1.88C360.387 1.82666 360.841 2.70666 360.947 4.52C361.001 5.37333 361.134 6.25333 361.347 7.16L361.907 9.48C362.014 9.74667 362.067 10.12 362.067 10.6C362.067 11.3467 361.801 11.72 361.267 11.72C360.627 11.72 360.254 11.16 360.147 10.04L359.907 7.32C359.747 5.72 359.294 4.70666 358.547 4.28C358.014 3.90666 356.894 3.72 355.187 3.72H335.267C334.361 3.72 333.827 4.06666 333.667 4.76C333.667 4.65333 333.614 5.02666 333.507 5.88L330.867 27C330.867 27.2667 330.947 27.4 331.107 27.4C331.267 27.4 331.481 27.2667 331.747 27C333.347 25.0267 335.534 23.48 338.307 22.36C341.134 21.1867 344.121 20.6 347.267 20.6C352.814 20.6 357.267 22.1467 360.627 25.24C363.987 28.3333 365.667 32.4667 365.667 37.64C365.667 43.24 363.801 47.8 360.067 51.32C356.334 54.7867 351.481 56.52 345.507 56.52C340.067 56.52 335.507 55.2133 331.827 52.6C328.201 49.9333 326.387 46.6267 326.387 42.68C326.387 40.8667 326.841 39.3733 327.747 38.2C328.707 37.0267 329.907 36.44 331.347 36.44C333.321 36.44 334.307 37.32 334.307 39.08C334.307 40.68 333.534 41.48 331.987 41.48C331.401 41.48 330.787 41.2133 330.147 40.68C330.041 40.6267 329.934 40.6 329.827 40.6C328.814 40.6 328.307 41.4267 328.307 43.08C328.307 46.3333 329.907 49.1067 333.107 51.4C336.361 53.64 340.281 54.76 344.867 54.76C350.574 54.76 355.081 53.24 358.387 50.2C361.694 47.16 363.347 43.0533 363.347 37.88C363.347 33.08 361.907 29.32 359.027 26.6C356.201 23.8267 352.307 22.44 347.347 22.44C344.467 22.44 341.667 23 338.947 24.12C336.281 25.1867 334.201 26.6 332.707 28.36C331.694 29.5867 330.841 30.2 330.147 30.2C329.241 30.2 328.787 29.64 328.787 28.52C328.787 28.1467 328.814 27.8533 328.867 27.64Z" fill="white" fill-opacity="0.5"/>
</svg>
