<svg width="560" height="108" viewBox="0 0 560 108" fill="none" xmlns="http://www.w3.org/2000/svg">
<path d="M0.265348 86.2609V65.0484H16.438V43.6102H0.265348V21.8711H16.438V0.132068H38.0266V21.8711H59.5401V0.132068H80.9782V21.8711H97.0005V43.4598H80.9782V65.0484H97.0005V86.4114H80.9782V108H59.5401L59.3896 86.4114H38.0266V108H16.438V86.2609H0.265348ZM38.0266 65.0484H59.3896V43.4598H38.0266V65.0484ZM108.258 75.8051V0.132068H129.847V65.0484L146.17 86.4114L162.042 65.0484V0.132068H183.555V65.0484L199.878 86.4114L215.901 65.0484V0.132068H237.339V75.8051L210.71 108H189.122L172.799 88.7432L156.776 108H135.188L108.258 75.8051ZM248.597 108V32.7031L280.792 0.132068H345.332V108H323.894V75.8051H270.186V108H248.597ZM270.186 54.2165H323.894V21.7207H291.548L270.186 43.4598V54.2165ZM358.094 108V75.8051L379.683 54.2165L358.094 32.7031V0.132068H379.683V21.8711L401.046 43.4598H411.878L433.391 21.8711V0.132068H454.83V32.7031L433.391 54.2165L454.83 75.8051V108H433.391V86.4114L411.878 65.0484H401.046L379.683 86.4114V108H358.094ZM467.592 108V0.132068H559.137V21.7207H489.181V43.4598H553.721V65.0484H489.181V86.4114H559.137V108H467.592Z" fill="white"/>
</svg>
