<svg width="355" height="44" viewBox="0 0 355 44" fill="none" xmlns="http://www.w3.org/2000/svg">
<path d="M31.94 42.24L26.72 42.06L19.04 42L12.32 41.82H8.66L6.98 41.76C6.7 41.76 6.26 41.78 5.66 41.82C5.3 41.82 4.72 41.86 3.92 41.94L2.42 42.06C2.38 42.06 2.3 42.06 2.18 42.06C1.06 42.06 0.5 41.76 0.5 41.16C0.5 40.52 1 40.2 2 40.2C2.16 40.2 2.28 40.22 2.36 40.26L3.98 40.44C4.7 40.52 5.36 40.56 5.96 40.56C7.16 40.56 7.92 40.08 8.24 39.12C8.4 38.68 8.48 37.68 8.48 36.12V35.64C8.48 35.4 8.5 34.14 8.54 31.86C8.54 31.86 8.54 30.44 8.54 27.6V16.26C8.54 13.42 8.54 12 8.54 12L8.48 7.74C8.48 6.14 8.4 5.14 8.24 4.74C7.96 3.78 7.2 3.3 5.96 3.3C5.36 3.3 4.7 3.34 3.98 3.42L2.36 3.6H2.06C1.02 3.6 0.5 3.3 0.5 2.7C0.5 2.14 1.04 1.86 2.12 1.86C2.36 1.86 2.46 1.86 2.42 1.86C4.82 2.02 6.36 2.1 7.04 2.1L26.72 2.04L31.88 1.74C31.88 1.74 32 1.74 32.24 1.74C33.56 1.74 34.22 2.36 34.22 3.6C34.22 4 34.2 4.78 34.16 5.94C34.12 7.1 34.1 8.42 34.1 9.9C34.1 12.26 34.16 14.08 34.28 15.36V15.72C34.28 17.12 33.98 17.82 33.38 17.82C32.78 17.82 32.48 17.22 32.48 16.02V15.54C32.56 14.7 32.62 13.86 32.66 13.02L32.72 10.74L32.84 8.4C32.84 8.4 32.84 8.22 32.84 7.86C32.84 5.74 32.54 4.46 31.94 4.02C31.34 3.54 29.66 3.3 26.9 3.3H13.88C12.16 3.3 11.12 3.58 10.76 4.14C10.4 4.66 10.22 6.28 10.22 9L10.28 18.6C10.32 19.48 10.46 20.02 10.7 20.22C10.94 20.38 11.64 20.46 12.8 20.46H19.1C22.26 20.46 23.84 19.42 23.84 17.34V17.16L23.78 15.48L23.66 13.2C23.66 12.12 23.92 11.58 24.44 11.58C25 11.58 25.28 12.14 25.28 13.26C25.28 13.54 25.22 14.32 25.1 15.6C24.9 17.68 24.8 19.46 24.8 20.94C24.8 24.38 24.98 27.42 25.34 30.06V30.6C25.34 31.72 25.06 32.28 24.5 32.28C23.86 32.28 23.54 31.64 23.54 30.36C23.54 30.2 23.54 30.1 23.54 30.06L23.72 27.9L23.84 25.92C23.84 25.92 23.84 25.78 23.84 25.5C23.84 24.02 23.5 23.02 22.82 22.5C22.14 21.94 20.9 21.66 19.1 21.66H12.44C11.4 21.66 10.76 21.8 10.52 22.08C10.32 22.32 10.22 23 10.22 24.12V36.84C10.22 37.96 10.24 38.64 10.28 38.88C10.44 39.68 10.82 40.18 11.42 40.38C11.82 40.5 12.94 40.56 14.78 40.56H25.88C29.48 40.56 31.66 40.24 32.42 39.6C33.22 38.92 33.62 37.1 33.62 34.14C33.62 33.14 33.6 32.26 33.56 31.5L33.44 29.04C33.44 27.84 33.72 27.24 34.28 27.24C34.8 27.24 35.06 27.74 35.06 28.74V28.98L34.88 30.84C34.88 31.4 34.84 32.24 34.76 33.36C34.72 34.44 34.7 35.26 34.7 35.82V39.3C34.7 40.46 34.5 41.26 34.1 41.7C33.74 42.1 33.02 42.28 31.94 42.24ZM73.3297 40.02L50.7697 4.14C50.6097 3.9 50.4897 3.78 50.4097 3.78C50.2897 3.78 50.2297 3.98 50.2297 4.38L50.3497 36.72C50.3897 38.28 50.6097 39.36 51.0097 39.96C51.4497 40.52 52.2097 40.8 53.2897 40.8C53.6097 40.8 54.2297 40.76 55.1497 40.68C55.6297 40.64 56.1297 40.62 56.6497 40.62C57.4897 40.62 57.9097 40.88 57.9097 41.4C57.9097 41.92 57.4897 42.18 56.6497 42.18H56.4697C56.3497 42.18 56.1497 42.18 55.8697 42.18C55.5897 42.14 55.3497 42.12 55.1497 42.12C54.6697 42.08 54.0897 42.02 53.4097 41.94C52.1697 41.82 51.4897 41.76 51.3697 41.76H47.4697C47.3897 41.76 46.7097 41.82 45.4297 41.94C45.1497 41.94 44.5697 42 43.6897 42.12C43.4897 42.12 43.2497 42.14 42.9697 42.18C42.6497 42.18 42.4497 42.18 42.3697 42.18H42.1297C41.2897 42.18 40.8697 41.94 40.8697 41.46C40.8697 40.9 41.3097 40.62 42.1897 40.62C42.7097 40.62 43.2097 40.64 43.6897 40.68C44.6097 40.76 45.2297 40.8 45.5497 40.8C46.7497 40.8 47.5697 40.4 48.0097 39.6C48.2497 39.08 48.3897 38.12 48.4297 36.72L48.5497 32.28V7.92C48.5097 6 48.4097 4.82 48.2497 4.38C47.8897 3.58 46.9697 3.18 45.4897 3.18C44.8897 3.18 44.3497 3.2 43.8697 3.24C42.9097 3.32 42.3897 3.36 42.3097 3.36H42.1297C41.2897 3.36 40.8697 3.12 40.8697 2.64C40.8697 2.04 41.2897 1.74 42.1297 1.74C42.4497 1.74 42.9697 1.8 43.6897 1.92C45.4897 2.04 46.5497 2.1 46.8697 2.1C47.0697 2.1 47.3297 2.08 47.6497 2.04C47.9697 2.04 48.2097 2.04 48.3697 2.04C49.2097 1.92 49.7697 1.86 50.0497 1.86C50.8097 1.86 51.4297 2.28 51.9097 3.12L52.5097 4.14L74.7697 39.24C74.8897 39.52 75.0497 39.66 75.2497 39.66C75.4097 39.66 75.4897 39.44 75.4897 39L75.3697 7.26C75.3297 5.86 75.1697 4.9 74.8897 4.38C74.4897 3.58 73.6697 3.18 72.4297 3.18C72.1097 3.18 71.4897 3.22 70.5697 3.3C69.6497 3.38 69.1497 3.42 69.0697 3.42C68.2297 3.42 67.8097 3.14 67.8097 2.58C67.8097 2.1 68.2297 1.86 69.0697 1.86H69.2497L70.6297 1.92C70.9097 1.96 71.4697 2.02 72.3097 2.1C73.5097 2.22 74.5697 2.28 75.4897 2.28H77.1697C78.1297 2.28 79.1897 2.22 80.3497 2.1C80.8297 2.06 81.4097 2 82.0897 1.92L83.5897 1.86C84.4297 1.86 84.8497 2.1 84.8497 2.58C84.8497 3.14 84.4297 3.42 83.5897 3.42C83.5097 3.42 83.0097 3.38 82.0897 3.3C81.1697 3.22 80.5497 3.18 80.2297 3.18C78.9897 3.18 78.1697 3.58 77.7697 4.38C77.4897 4.9 77.3297 5.86 77.2897 7.26L77.1697 11.7V39.24C77.1697 40.68 77.0097 41.58 76.6897 41.94C76.4897 42.14 76.1697 42.24 75.7297 42.24C75.0497 42.24 74.2497 41.5 73.3297 40.02ZM111.382 15.78L111.502 36.72C111.542 38.16 111.702 39.12 111.982 39.6C112.382 40.4 113.222 40.8 114.502 40.8C114.862 40.8 115.462 40.78 116.302 40.74C116.582 40.74 116.882 40.72 117.202 40.68C117.522 40.64 117.722 40.62 117.802 40.62C118.642 40.62 119.062 40.9 119.062 41.46C119.062 41.98 118.642 42.24 117.802 42.24H117.622L116.242 42.12C115.922 42.12 115.362 42.08 114.562 42C112.882 41.84 111.702 41.76 111.022 41.76H110.062C109.142 41.76 107.962 41.84 106.522 42C105.082 42.16 104.002 42.24 103.282 42.24C102.442 42.24 102.022 42 102.022 41.52C102.022 40.92 102.442 40.62 103.282 40.62C103.362 40.62 103.562 40.64 103.882 40.68C104.202 40.72 104.502 40.74 104.782 40.74C105.622 40.78 106.222 40.8 106.582 40.8C107.862 40.8 108.702 40.4 109.102 39.6C109.382 39.12 109.542 38.16 109.582 36.72L109.702 32.28L109.582 7.2C109.542 5.8 109.382 4.84 109.102 4.32C108.702 3.52 107.882 3.12 106.642 3.12C106.322 3.12 105.702 3.16 104.782 3.24C104.342 3.28 103.842 3.3 103.282 3.3C102.442 3.3 102.022 3.04 102.022 2.52C102.022 2 102.442 1.74 103.282 1.74H103.462L104.842 1.86C105.122 1.86 105.682 1.9 106.522 1.98C108.162 2.14 109.342 2.22 110.062 2.22H111.022C111.742 2.22 112.922 2.14 114.562 1.98C115.402 1.9 115.982 1.86 116.302 1.86L117.622 1.74H117.862C118.662 1.74 119.062 1.98 119.062 2.46C119.062 3.02 118.642 3.3 117.802 3.3C117.322 3.3 116.842 3.28 116.362 3.24C115.402 3.16 114.762 3.12 114.442 3.12C113.202 3.12 112.382 3.5 111.982 4.26C111.662 4.78 111.502 5.76 111.502 7.2L111.382 15.78ZM125.703 36.9L125.463 36.48L125.523 37.5L125.643 39.12C125.723 40.2 125.763 40.76 125.763 40.8V40.92C125.763 41.76 125.503 42.18 124.983 42.18C124.383 42.18 124.083 41.68 124.083 40.68C124.083 40.48 124.083 40.38 124.083 40.38C124.243 37.94 124.323 35.58 124.323 33.3C124.323 31.34 124.283 29.78 124.203 28.62C124.123 27.46 124.083 26.76 124.083 26.52C124.083 25.76 124.363 25.38 124.923 25.38C125.443 25.38 125.703 25.7 125.703 26.34C125.703 26.7 125.663 27.26 125.583 28.02C125.503 28.78 125.463 29.36 125.463 29.76C125.463 33.56 126.583 36.52 128.823 38.64C131.063 40.76 134.203 41.82 138.243 41.82C141.883 41.82 144.803 40.86 147.003 38.94C149.203 36.98 150.303 34.42 150.303 31.26C150.303 26.82 148.263 24.12 144.183 23.16C142.743 22.8 140.823 22.54 138.423 22.38C129.423 21.7 124.923 18.26 124.923 12.06C124.923 8.86 126.123 6.2 128.523 4.08C130.963 1.92 134.003 0.839997 137.643 0.839997C142.043 0.839997 145.343 2.2 147.543 4.92C148.063 5.56 148.523 6.5 148.923 7.74C148.963 7.22 148.983 6.66 148.983 6.06C148.983 5.54 148.963 5.08 148.923 4.68L148.803 3.42V3.18C148.803 2.22 149.083 1.74 149.643 1.74C150.203 1.74 150.483 2.1 150.483 2.82C150.483 2.78 150.403 3.5 150.243 4.98C150.083 6.46 150.003 8.28 150.003 10.44C150.003 12.08 150.043 13.32 150.123 14.16C150.243 15.4 150.303 16.06 150.303 16.14C150.303 16.9 150.043 17.28 149.523 17.28C148.923 17.28 148.623 16.88 148.623 16.08C148.623 15.8 148.643 15.38 148.683 14.82C148.763 14.26 148.803 13.84 148.803 13.56C148.803 10 147.823 7.22 145.863 5.22C143.903 3.22 141.203 2.22 137.763 2.22C134.483 2.22 131.823 3.12 129.783 4.92C127.783 6.72 126.783 9.06 126.783 11.94C126.783 14.7 127.723 16.8 129.603 18.24C131.483 19.64 134.463 20.52 138.543 20.88C142.103 21.2 144.683 21.64 146.283 22.2C147.923 22.76 149.243 23.7 150.243 25.02C151.523 26.66 152.163 28.78 152.163 31.38C152.163 34.9 150.923 37.74 148.443 39.9C145.963 42.06 142.703 43.14 138.663 43.14C135.863 43.14 133.343 42.64 131.103 41.64C128.903 40.64 127.243 39.28 126.123 37.56L125.703 36.9ZM175.025 0.839997C180.225 0.839997 184.445 2.8 187.685 6.72C190.925 10.6 192.545 15.7 192.545 22.02C192.545 28.3 190.985 33.4 187.865 37.32C184.745 41.2 180.665 43.14 175.625 43.14C170.305 43.14 166.025 41.22 162.785 37.38C159.585 33.5 157.985 28.4 157.985 22.08C157.985 15.8 159.565 10.7 162.725 6.78C165.885 2.82 169.985 0.839997 175.025 0.839997ZM175.265 41.82C179.905 41.82 183.625 40.02 186.425 36.42C189.265 32.78 190.685 28 190.685 22.08C190.685 16.24 189.205 11.48 186.245 7.8C183.325 4.08 179.545 2.22 174.905 2.22C170.425 2.22 166.785 4.06 163.985 7.74C161.185 11.38 159.785 16.1 159.785 21.9C159.785 27.94 161.185 32.78 163.985 36.42C166.825 40.02 170.585 41.82 175.265 41.82ZM240.116 5.1L227.396 17.64C228.276 17.4 229.256 17.28 230.336 17.28C234.296 17.28 237.396 18.32 239.636 20.4C241.876 22.48 242.996 25.34 242.996 28.98C242.996 33.22 241.576 36.64 238.736 39.24C235.896 41.84 232.156 43.14 227.516 43.14C223.396 43.14 219.976 42.16 217.256 40.2C214.576 38.2 213.236 35.68 213.236 32.64C213.236 31.32 213.616 30.2 214.376 29.28C215.136 28.32 216.036 27.84 217.076 27.84C218.596 27.84 219.356 28.5 219.356 29.82C219.356 31.02 218.796 31.62 217.676 31.62C217.476 31.62 217.196 31.54 216.836 31.38C216.476 31.18 216.176 31.08 215.936 31.08C215.136 31.08 214.736 31.8 214.736 33.24C214.736 35.56 215.936 37.56 218.336 39.24C220.776 40.92 223.656 41.76 226.976 41.76C231.376 41.76 234.836 40.62 237.356 38.34C239.916 36.06 241.196 32.98 241.196 29.1C241.196 25.7 240.276 23.1 238.436 21.3C236.596 19.46 233.956 18.54 230.516 18.54C228.156 18.54 226.316 18.92 224.996 19.68C224.716 19.84 224.476 19.92 224.276 19.92C223.956 19.92 223.796 19.74 223.796 19.38C223.796 19.18 223.856 19.02 223.976 18.9L224.516 18.42L238.436 4.86C238.996 4.3 239.276 3.94 239.276 3.78C239.276 3.62 238.996 3.54 238.436 3.54H219.056C217.416 3.54 216.516 4 216.356 4.92C216.316 5.24 216.296 5.72 216.296 6.36C216.296 8.24 216.376 9.86 216.536 11.22C216.576 11.66 216.636 12.3 216.716 13.14V13.26C216.716 14.14 216.416 14.58 215.816 14.58C215.296 14.58 215.036 14.26 215.036 13.62L215.096 13.5L215.276 11.04C215.316 10.48 215.336 9.82 215.336 9.06C215.336 8.06 215.296 7.06 215.216 6.06C215.136 5.06 215.096 4.28 215.096 3.72C215.096 2.64 215.576 2.12 216.536 2.16L218.456 2.22H238.916C240.276 2.22 241.056 2.36 241.256 2.64C241.336 2.8 241.376 3 241.376 3.24C241.376 3.64 240.956 4.26 240.116 5.1ZM254.404 21C255.884 19.96 257.824 19.08 260.224 18.36C255.064 16.96 252.484 14.26 252.484 10.26C252.484 7.5 253.644 5.24 255.964 3.48C258.284 1.72 261.244 0.839997 264.844 0.839997C268.444 0.839997 271.404 1.72 273.724 3.48C276.044 5.2 277.204 7.42 277.204 10.14C277.204 14.26 274.644 17 269.524 18.36C272.004 19.08 273.944 19.96 275.344 21C278.504 23.28 280.084 26.38 280.084 30.3C280.084 34.14 278.664 37.24 275.824 39.6C273.024 41.96 269.364 43.14 264.844 43.14C260.324 43.14 256.664 41.96 253.864 39.6C251.064 37.2 249.664 34.1 249.664 30.3C249.664 26.3 251.244 23.2 254.404 21ZM251.404 30.42C251.404 33.86 252.624 36.62 255.064 38.7C257.544 40.78 260.804 41.82 264.844 41.82C268.924 41.82 272.184 40.78 274.624 38.7C277.104 36.62 278.344 33.86 278.344 30.42C278.344 26.98 277.104 24.22 274.624 22.14C272.144 20.06 268.884 19.02 264.844 19.02C260.804 19.02 257.544 20.08 255.064 22.2C252.624 24.28 251.404 27.02 251.404 30.42ZM254.284 9.9C254.284 12.14 255.284 14.02 257.284 15.54C259.284 17.02 261.804 17.76 264.844 17.76C267.884 17.76 270.404 17.02 272.404 15.54C274.444 14.02 275.464 12.14 275.464 9.9C275.464 7.66 274.464 5.82 272.464 4.38C270.504 2.94 267.964 2.22 264.844 2.22C261.724 2.22 259.184 2.94 257.224 4.38C255.264 5.78 254.284 7.62 254.284 9.9ZM313.573 5.1L300.853 17.64C301.733 17.4 302.713 17.28 303.793 17.28C307.753 17.28 310.853 18.32 313.093 20.4C315.333 22.48 316.453 25.34 316.453 28.98C316.453 33.22 315.033 36.64 312.193 39.24C309.353 41.84 305.613 43.14 300.973 43.14C296.853 43.14 293.433 42.16 290.713 40.2C288.033 38.2 286.693 35.68 286.693 32.64C286.693 31.32 287.073 30.2 287.833 29.28C288.593 28.32 289.493 27.84 290.533 27.84C292.053 27.84 292.813 28.5 292.813 29.82C292.813 31.02 292.253 31.62 291.133 31.62C290.933 31.62 290.653 31.54 290.293 31.38C289.933 31.18 289.633 31.08 289.393 31.08C288.593 31.08 288.193 31.8 288.193 33.24C288.193 35.56 289.393 37.56 291.793 39.24C294.233 40.92 297.113 41.76 300.433 41.76C304.833 41.76 308.293 40.62 310.813 38.34C313.373 36.06 314.653 32.98 314.653 29.1C314.653 25.7 313.733 23.1 311.893 21.3C310.053 19.46 307.413 18.54 303.973 18.54C301.613 18.54 299.773 18.92 298.453 19.68C298.173 19.84 297.933 19.92 297.733 19.92C297.413 19.92 297.253 19.74 297.253 19.38C297.253 19.18 297.313 19.02 297.433 18.9L297.973 18.42L311.893 4.86C312.453 4.3 312.733 3.94 312.733 3.78C312.733 3.62 312.453 3.54 311.893 3.54H292.513C290.873 3.54 289.973 4 289.813 4.92C289.773 5.24 289.753 5.72 289.753 6.36C289.753 8.24 289.833 9.86 289.993 11.22C290.033 11.66 290.093 12.3 290.173 13.14V13.26C290.173 14.14 289.873 14.58 289.273 14.58C288.753 14.58 288.493 14.26 288.493 13.62L288.553 13.5L288.733 11.04C288.773 10.48 288.793 9.82 288.793 9.06C288.793 8.06 288.753 7.06 288.673 6.06C288.593 5.06 288.553 4.28 288.553 3.72C288.553 2.64 289.033 2.12 289.993 2.16L291.913 2.22H312.373C313.733 2.22 314.513 2.36 314.713 2.64C314.793 2.8 314.833 3 314.833 3.24C314.833 3.64 314.413 4.26 313.573 5.1ZM353.721 29.76H346.881C346.281 29.76 345.901 29.84 345.741 30C345.621 30.12 345.561 30.48 345.561 31.08V37.5C345.561 38.9 345.741 39.84 346.101 40.32C346.501 40.8 347.361 41.04 348.681 41.04H348.981L350.541 40.98C350.541 40.98 351.061 40.98 352.101 40.98C352.901 40.98 353.301 41.2 353.301 41.64C353.301 42.16 352.861 42.42 351.981 42.42C351.381 42.42 350.561 42.36 349.521 42.24C348.321 42.12 347.521 42.04 347.121 42C345.761 41.92 344.881 41.88 344.481 41.88C344.041 41.88 343.141 41.92 341.781 42C340.821 42.08 339.401 42.22 337.521 42.42H337.401C336.561 42.42 336.141 42.16 336.141 41.64C336.141 41.16 336.581 40.92 337.461 40.92C337.821 40.92 338.381 40.96 339.141 41.04C339.901 41.08 340.481 41.1 340.881 41.1C342.081 41.1 342.861 40.86 343.221 40.38C343.621 39.9 343.861 38.86 343.941 37.26L344.001 35.7V31.08C344.001 30.48 343.921 30.12 343.761 30C343.601 29.84 343.221 29.76 342.621 29.76H324.021C322.421 29.76 321.621 29.4 321.621 28.68C321.621 28.24 321.941 27.62 322.581 26.82L342.081 2.76C343.081 1.52 343.881 0.899996 344.481 0.899996C345.201 0.899996 345.561 1.44 345.561 2.52V27.06C345.561 27.66 345.621 28.04 345.741 28.2C345.861 28.32 346.141 28.38 346.581 28.38H346.881L351.861 28.26C352.021 28.22 352.241 28.2 352.521 28.2C352.801 28.16 353.001 28.14 353.121 28.14H353.421C354.381 28.14 354.861 28.4 354.861 28.92C354.861 29.48 354.481 29.76 353.721 29.76ZM342.621 28.44C343.261 28.44 343.641 28.38 343.761 28.26C343.921 28.1 344.001 27.72 344.001 27.12V3.9C344.001 3.38 343.901 3.12 343.701 3.12C343.581 3.12 343.421 3.24 343.221 3.48L323.841 27.6C323.601 27.88 323.481 28.08 323.481 28.2C323.481 28.36 323.721 28.44 324.201 28.44H342.621Z" fill="white" fill-opacity="0.5"/>
</svg>
