<svg width="368" height="90" viewBox="0 0 368 90" fill="none" xmlns="http://www.w3.org/2000/svg">
<path d="M0.417816 35.8125C0.678233 42.2188 6.6548 49.8099 18.3475 58.5859L19.6756 62.6875L19.7928 66.2031C18.4386 68.599 16.7329 69.8359 14.6756 69.9141C12.4621 70.0182 10.5871 67.362 9.05063 61.9453L2.60532 62.1797L1.4725 63.3906L1.51157 64.5625C3.41261 73.4948 7.69646 77.8307 14.3631 77.5703L16.1209 77.4922C23.4386 77.2318 27.6053 73.1562 28.6209 65.2656L28.5038 62.9609C28.2954 57.2318 22.9439 50.5651 12.4491 42.9609C10.3657 40.3307 9.285 37.8307 9.20688 35.4609C9.10271 33.0651 10.4178 31.2422 13.1522 29.9922C16.2772 29.862 18.1001 31.763 18.6209 35.6953L27.41 34.1328C27.1235 26.7891 22.4621 22.8568 13.4256 22.3359L11.6678 22.375C5.26157 22.6354 1.51157 27.1146 0.417816 35.8125ZM39.3241 88.5859H37.8006C37.5923 88.5859 37.4881 88.1693 37.4881 87.3359L37.2928 86.9453H37.1366V88.5859L36.785 87.7656C36.9152 85.526 37.0845 84.4062 37.2928 84.4062L37.1366 82.3359C37.1366 81.2161 37.41 80.6562 37.9569 80.6562L38.3084 78.9766L38.2694 76.0469L38.1131 75.6172L37.2538 73.9375V73.5469L37.6053 71.4766L36.5897 64.3672L36.7459 63.9375L36.3944 63.0781L36.7459 60.1484L36.5506 58.8984H36.3944L36.2381 60.1484L35.7303 59.7578L35.5741 61.0078H35.2225L34.7147 59.7578V59.3281H34.8709C35.1053 59.3281 35.2225 59.7448 35.2225 60.5781H35.3788V59.3281L35.0272 58.0781L35.535 57.6484V56.8281L35.3788 56.3984V55.9688L35.2225 56.3984H35.0272L34.5194 55.1484L34.8709 54.3281L35.535 55.5781H35.7303L35.3788 54.2891V53.4688L35.535 53.0391V52.6484H35.1834V52.2188C35.1834 50.1615 35.3527 49.0417 35.6913 48.8594L34.8319 42.1797L34.9881 40.9297H35.1834C35.3918 40.9297 35.4959 41.3464 35.4959 42.1797L35.6913 42.5703H36.0038L35.1834 38.8203L35.3397 36.7109L35.1444 37.1406H34.9881L34.8319 36.7109V36.3203H34.9881L34.8319 35.8906V33.7812L35.6522 33.3906L35.1444 30.0312L35.4959 29.2109V28.7812H35.1444V27.1016L35.6522 24.9922H35.1444V23.3516L35.4569 22.4922L35.6131 22.9219H35.8084V22.4922L35.3006 19.9922L35.4569 19.5625L35.3006 19.1328V18.3125L35.4569 17.8828V17.4922H35.2616L35.6131 16.2031L35.4569 15.8125V15.3828C35.4308 13.7161 35.5871 12.8828 35.9256 12.8828V12.0234C35.5871 12.0234 35.4178 11.1901 35.4178 9.52344L35.6131 9.09375L35.2616 8.27344V7.41406C35.2616 6.86719 35.6001 6.45052 36.2772 6.16406V5.34375L36.0819 5.73438H35.9256L35.0663 4.09375V3.23438L35.5741 1.98438H39.1288L39.4413 2.80469L39.6756 87.7656L39.3241 88.5859ZM39.8319 88.3125L39.2069 87.9219L34.7928 88.3516L4.05063 88.4297L2.80063 87.5703L2.76157 77.5312L2.13657 75.0312L2.76157 74.6016L2.13657 71.7109L2.0975 65.8516L1.4725 58.7422H2.0975L1.4725 58.3125V57.8828L0.769379 25.2656L0.144379 22.3359H0.730316L0.144379 21.9062L0.0662537 2.64844L1.31625 1.78906L35.8475 1.71094C36.811 1.71094 37.436 3.80729 37.7225 8H37.0975L35.2225 7.57031V8L35.8475 8.42969V8.82031L35.2225 9.25V9.67969L35.8475 11.3594L35.2225 12.6094H35.8866L35.2616 13.0391V13.8594L35.8866 13.4297H36.5116L37.7616 14.2891V14.6797H36.5116L35.8866 14.2891H35.2616V16.3594L36.5116 19.7188L34.6366 21.3984L37.1366 22.2188L36.5116 24.3281V25.5781H35.8866L35.2616 25.1484H34.6366V25.5781C34.6366 26.2812 35.4829 26.6979 37.1756 26.8281V28.0781H36.5506L34.6366 27.2578L34.0116 29.3672L35.3006 31.8672L34.6756 32.2578V32.6875L35.9256 34.7969C33.8423 34.7969 32.8006 36.75 32.8006 40.6562L31.5506 41.9062H34.0506L32.8006 45.6562L33.4647 48.1953V49.0156L32.8397 49.4453L33.4647 49.875V50.2656L32.2147 51.125L32.8397 51.5156V51.9453L32.2147 52.375V52.8047C33.4647 52.8047 34.0897 53.0781 34.0897 53.625V54.875L33.4647 55.3047V55.7344C34.8709 55.7083 35.7043 56.5417 35.9647 58.2344L35.3397 58.625C35.7824 63.599 36.6288 67.375 37.8788 69.9531H38.5428L39.1288 67.4141C38.061 67.4141 37.436 66.724 37.2538 65.3438L36.6288 64.9141L37.8788 63.6641L37.2538 63.2344V61.5547L39.1288 61.1641L39.7538 61.5547V61.9844L39.1288 62.4141V62.8047C40.3788 62.8047 41.0038 63.0911 41.0038 63.6641H40.3788L41.0038 64.0547V64.4844L40.4178 66.9844L41.0428 67.4141C42.2147 68.9245 42.6314 69.7578 42.2928 69.9141L41.6678 71.2031L43.5428 72.4531L42.9178 72.8438L43.5428 73.2344L42.2928 74.0938V74.5234L42.9178 74.9141L44.8319 75.3438V75.7734L45.4569 75.3438H46.7069L47.3319 79.0938H46.7069C44.5454 79.1198 43.2954 79.5495 42.9569 80.3828L43.5819 82.0625L40.4569 82.4531L41.0819 84.5625L38.5428 82.8828L39.1678 79.1328L38.5428 78.7031H37.9178L37.2928 81.2031L37.9178 82.8828L36.6678 83.7422C38.9074 83.7422 40.3788 84.7188 41.0819 86.6719L39.8319 88.3125ZM36.5116 86.2422L35.535 84.1328H35.0272V85.4219L35.535 87.4922C36.2121 87.4922 36.5376 87.0755 36.5116 86.2422ZM32.9178 78.5078L32.8788 78.0781L32.3319 76.8672L32.8006 76.3984L32.3319 76.4375L31.3163 77.3359L31.3553 77.7656L32.41 78.5469L32.9178 78.5078ZM33.8163 64.6406L33.7772 63.3906L32.8397 64.2891L33.3084 64.6797L33.8163 64.6406ZM28.8944 54.7969L28.3866 54.4453V54.0156C29.0376 53.9896 29.3501 53.5599 29.3241 52.7266L30.3006 52.6875L30.3397 53.0781C29.8709 54.1979 29.3892 54.7708 28.8944 54.7969ZM32.8006 51.2812L32.6444 48.7812L31.6678 48.8203L32.2147 49.25L32.2538 50.0703L31.7459 50.5L31.785 50.9297L32.2928 51.3203L32.8006 51.2812ZM33.66 47.9219V48.3125L34.1678 48.7422L34.2069 49.1719L33.66 47.9219ZM34.5194 28.2344C34.5194 34.6667 37.0584 43.4818 42.1366 54.6797H35.6913L34.5194 55.8516V57.0234C36.0558 66.0339 36.798 61.3333 36.7459 42.9219C36.6939 24.4844 35.9517 19.5885 34.5194 28.2344ZM35.9125 2.02344H66.7328L67.7094 3.39062V87.2578L66.7328 88.625H35.9125L34.9359 87.2578V3.39062L35.9125 2.02344ZM45.6781 18.7422V19.3281L37.0453 72.8438H45.1313C46.199 64.4062 47.1495 60.1875 47.9828 60.1875H54.8969C55.7563 60.1875 56.7198 64.4062 57.7875 72.8438H65.8344L57.2016 18.7422H45.6781ZM50.8734 33.7031H52.0063L54.3109 51.5547L53.7641 52.1406H49.7016L49.1547 51.5547H48.5688L50.8734 33.7031ZM57.9438 23.7031V24.5625H58.4906V23.7031H57.9438ZM63.3344 28.8594V29.1328C64.0896 29.1328 64.4672 29.5104 64.4672 30.2656H65.3266L65.0531 27.7266C64.2979 27.7266 63.9203 28.1042 63.9203 28.8594H63.3344ZM65.9125 28.2734V28.5469L66.7719 28.2734V27.7266H66.4594L65.9125 28.2734ZM65.1313 29.1328L64.8578 29.9922H65.1313L65.7172 29.4062L65.4047 29.1328H65.1313ZM62.2016 29.7188V29.9922H63.3344V29.4062H63.0609L62.2016 29.7188ZM63.0609 30.2656L62.7875 31.125L63.9203 31.3984L64.1938 31.125V30.8516L63.3344 30.2656H63.0609ZM65.9125 30.5391V31.3984L67.3188 31.125V30.8516L65.9125 30.5391ZM64.7797 31.3984L65.3266 31.9844L65.6 31.7109V31.3984H64.7797ZM65.9125 35.6953L65.6 35.9688V36.2422H66.4594L65.9125 35.6953ZM68.0869 2.02344H97.3447L98.5166 3.3125V11.6328L97.9306 14.2109L98.5166 16.75V18.0391L97.9306 19.9922L98.5166 23.1953V87.9219L97.3447 89.2109H68.0869L66.915 87.9219V3.3125L68.0869 2.02344ZM71.4463 18.4297V21.3203L70.8603 21.9062L71.4463 22.4531V67.8828L70.8603 68.4297L71.4463 69.0156V72.4531L74.3369 73.0391L74.8838 72.4531H78.3603L78.9072 73.0391H79.4931L80.0791 72.4531V50.6172L81.2119 49.4844H90.4306L92.6963 46.5938H93.2822V46.0469H92.1494V44.875H93.2822V44.2891H92.1494C91.8629 42.388 91.29 41.4375 90.4306 41.4375H81.2119L80.0791 40.2656V27.6484L81.2119 26.4766H95.5869V25.3438L95.0009 24.7578L95.5869 24.1719V23.625L95.0009 23.0391V22.4531L95.5869 20.7344H95.0009L95.5869 20.1484V18.4297H75.4697L74.8838 17.8438L71.4463 18.4297ZM104.949 19.0938V72.8438H127.839V64.8359H114.128L112.957 63.7031V51.125L114.128 49.9922H124.246V41.9844H114.128L112.957 40.8125V28.2344L114.128 27.1016H127.839V19.0938H104.949ZM125.183 87.6484L123.738 87.2969L123.621 87.6484H123.543C106.511 87.7005 98.0086 87.4922 98.0347 87.0234L97.5659 87.375L97.2144 87.0234L96.5503 87.7266L96.4722 87.375L96.6284 2.64844L96.8238 1.98438L131.589 2.02344L131.785 2.72656V6.90625L131.668 10.7344L131.785 11.7891C131.212 11.7891 130.925 13.9896 130.925 18.3906C130.691 19.875 130.118 22.0755 129.207 24.9922L129.832 27.1016C130.014 27.1016 130.17 27.1016 130.3 27.1016H130.378H131.746L131.433 54.4844V56.9453L131.043 61.7891L128.582 61.9062H128.23L128.308 61.5547V60.1484H128.23C128.23 61.0859 128.165 61.5547 128.035 61.5547V62.9609C128.217 62.9609 128.49 63.651 128.855 65.0312L129.597 65.7344H129.753C130.17 65.7344 130.626 64.9271 131.121 63.3125H131.199C131.016 64.6927 130.834 65.3828 130.652 65.3828V65.7344H130.847L131.316 64.0156V64.3281C131.16 65.7344 130.977 66.4375 130.769 66.4375V66.7891H130.925L131.589 64.3672V65.0312C131.069 67.5833 130.457 68.8594 129.753 68.8594H129.207L129.128 68.5078L128.855 68.8594L128.582 68.5078L128.933 72.3359L128.738 73.0391V73.3906H128.933V74.0547L128.66 75.4609V75.8125H128.738L129.011 75.4609L129.636 77.8828V78.2344H129.363V78.5859L129.558 79.2891L129.636 78.2344H130.027L130.378 79.6406L130.457 79.2891H130.535C130.795 80.2266 131.16 80.9297 131.628 81.3984V82.1016C131.628 82.5443 131.537 82.7656 131.355 82.7656L131.55 85.2266H131.277C131.277 84.5234 131.212 84.1719 131.082 84.1719H130.925L131.082 85.5781L131.003 86.5938C130.639 86.5938 130.457 86.138 130.457 85.2266L129.988 86.5938C129.884 85.6823 129.701 85.2266 129.441 85.2266V85.8906H129.714V86.5938H129.636L129.558 86.2422L129.441 86.5938H129.285L129.168 86.2422H129.089V86.9453H128.894L128.738 83.4688C128.946 83.4688 129.128 82.0755 129.285 79.2891C129.024 79.2891 128.842 78.9375 128.738 78.2344L128.464 78.5859L128.543 78.9375V79.6406C128.543 80.0573 128.269 80.7474 127.722 81.7109L127.644 82.0625V82.4141H127.722L127.996 82.0625V82.4141C127.293 84.263 126.928 85.4219 126.902 85.8906V86.5938L126.98 86.9453V87.2969L126.902 87.6484H125.183ZM161.693 88.2344L129.857 88.2734L128.764 87.2188V84.0156L129.857 82.4531L129.818 43.7812L128.725 37.9219V18.7812L129.779 17.7266L161.615 17.6875L162.709 18.7422L162.748 87.1797L161.693 88.2344ZM133.725 19.1719V27.2578H141.225L142.357 28.4297V73.3906H150.443V28.4297L151.615 27.2578H159.115V19.1719H133.725ZM128.803 16.5156V15.6562L129.232 15.0703V15.3438L129.467 15.0703H129.701L130.365 15.3438L133.061 15.0312L138.178 14.9922L139.076 14.7188L139.975 14.9922L143.764 14.9531L145.092 14.6406L145.326 14.9531H145.561L146.889 14.6406V14.3672L141.303 13.8203L141.068 14.0938L131.264 12.7266L131.029 13.0391C129.545 12.8568 128.803 12.5703 128.803 12.1797L128.764 3.82031L129.428 2.96094H130.522L131.42 3.23438L132.318 2.92188L134.115 3.23438C134.115 2.92188 134.779 2.42708 136.107 1.75L136.576 2.33594L137.006 1.75H137.24C137.527 1.75 137.67 2.14062 137.67 2.92188L138.139 2.88281L138.334 2.60938H138.568L139.037 3.19531H139.701L140.795 2.88281L141.029 3.74219L141.264 3.46875L142.357 3.74219H142.592C142.696 2.77865 142.917 2.29688 143.256 2.29688H143.725C144.818 2.97396 146.303 3.53385 148.178 3.97656L148.412 6.86719V7.72656L148.217 8L148.412 8.3125L148.451 11.75C148.451 12.1406 147.553 12.4401 145.756 12.6484L144.193 12.375L143.529 12.6484L143.295 12.375V12.0625L143.1 12.375H141.303L140.404 12.6875L139.506 12.4141H138.842V12.6875L149.779 13.4688V13.1953L149.545 11.1641L149.779 10.8906H150.014L149.779 10.5781V10.3047L149.975 8.85938L149.779 7.14062L149.975 5.10938L149.545 4.5625L149.74 4.25H150.209L151.537 4.83594L153.334 4.21094H153.529V4.52344L153.334 4.79688V5.10938C153.933 5.08333 154.232 6.42448 154.232 9.13281L154.037 10.2656L154.701 10.8516C154.675 8.35156 155.704 6.71094 157.787 5.92969V5.34375L157.553 3.35156L158.92 3.625L160.248 3.3125V3.58594L160.482 3.3125H161.147L161.342 3.58594L161.576 3.3125L163.139 3.58594H164.506L164.74 6.4375V12.2188L164.545 12.4922V12.8047L164.74 13.0781H164.975C164.792 15.5781 164.506 16.8281 164.115 16.8281L129.272 17.0625L128.803 16.5156ZM135.248 12.7266L137.045 13L137.943 12.6875L137.709 12.4141V12.1016L135.248 12.4141V12.7266ZM121.928 67.1016L120.795 67.0625V66.75L121.381 66.2031L121.928 66.8281V67.1016ZM147.201 25.4219L147.162 26.2422L147.748 26.2812L147.787 25.4609L147.201 25.4219ZM152.514 30.6172V30.8906C153.295 30.9167 153.673 31.2943 153.647 32.0234L154.506 32.0625L154.311 29.5625C153.529 29.5365 153.126 29.888 153.1 30.6172H152.514ZM155.17 30.1484V30.4219L156.029 30.1875L156.068 29.6406H155.756L155.17 30.1484ZM154.35 30.9688L153.998 31.75L154.311 31.7891L154.897 31.2422L154.623 30.9688H154.35ZM151.342 31.3984L151.303 31.6719L152.475 31.7109L152.514 31.1641H152.201L151.342 31.3984ZM152.162 31.9844L151.85 32.8047L153.022 33.1172L153.295 32.8438L153.334 32.5703L152.475 31.9844H152.162ZM155.092 32.375L155.053 33.1953L156.498 32.9609V32.6875L155.092 32.375ZM153.881 33.1562L154.428 33.7031L154.74 33.4297V33.1562H153.881ZM125.365 32.3359V32.6094L126.537 32.6484V32.375L125.365 32.3359ZM154.857 37.2969L154.545 37.5703V37.8438L155.443 37.8828L154.857 37.2969ZM119.74 51.0469V50.7734H119.154L118.295 51.0078V51.2812L118.568 51.3203L119.74 51.0469ZM118.451 47.0234L117.592 46.9844L117.045 46.3984L117.084 45.8516L117.982 45.0312C118.712 45.3438 119.076 45.6432 119.076 45.9297L119.037 46.4766L118.451 47.0234ZM127.943 47.5703L127.631 48.3906H128.217V47.5703H127.943ZM122.592 43.5078L122.045 42.9219L122.084 42.3359L122.631 42.9219L122.592 43.5078ZM150.834 58.5859V58.8594L151.107 58.8984C151.134 58.3516 151.446 58.0781 152.045 58.0781L152.357 57.0234C151.654 57.3359 151.147 57.8568 150.834 58.5859ZM156.811 74.4453L157.279 72.8828H156.381V74.4453H156.811ZM130.443 65.6172L131.576 66.7891V67.0625L129.857 65.8906L130.17 65.6172H130.443ZM159.467 69.7969H158.607C158.634 69.276 159.076 69.0156 159.936 69.0156L160.404 67.8438C159.519 67.8438 159.089 67.4531 159.115 66.6719H158.686C158.66 67.974 158.36 68.612 157.787 68.5859L158.607 70.5781L159.467 69.7969ZM119.115 68.8594L118.295 66.5156L119.623 65.3438H117.904L117.436 67.2969C118.009 67.2969 118.282 67.9479 118.256 69.25L118.686 68.8594H119.115ZM146.928 69.6406L146.967 68.4688L146.068 68.4297V69.6016L146.928 69.6406ZM174.818 89.8359V89.0547L139.662 88.2344L139.193 88.625V89.0156L139.623 89.4062L174.818 89.8359ZM167.436 89.7578C167.462 88.4557 156.759 87.6615 135.326 87.375L138.764 88.5859L138.803 87.8047C137.631 87.8047 143.764 85.9297 157.201 82.1797H156.772L156.732 83.3516C161.055 84.4453 163.204 85.3828 163.178 86.1641L164.506 85.8125L164.467 87.375H164.897C164.923 86.5938 165.222 86.2031 165.795 86.2031C165.769 87.2448 166.186 87.7786 167.045 87.8047L167.006 89.7578H167.436ZM161.85 88.1172L162.748 86.5547H161.029L160.131 87.2969L161.85 88.1172ZM149.779 86.0078L150.209 85.6172V84.8359H148.92V85.2266L149.779 86.0078ZM156.342 82.5703C156.342 81.9974 155.196 81.4635 152.904 80.9688L152.865 81.75L156.342 82.5703ZM152.045 80.5391V80.1484L149.897 79.7578C149.871 80.2786 150.3 80.5391 151.186 80.5391H152.045ZM149.037 78.9375V78.5469L147.318 77.7656H146.889C146.889 78.4167 147.462 78.8073 148.607 78.9375H149.037ZM165.04 20.1484L175.626 52.4141V72.4531H183.399V51.8672L193.399 20.1484H185.626C184.011 22.0495 182.149 27.8047 180.04 37.4141H179.493C178.764 37.4141 176.732 31.6589 173.399 20.1484H165.04ZM148.048 12.6875H149.18V13L148.594 13.5469L148.048 13V12.6875ZM175.899 12.1016V12.9609H176.485V12.1016H175.899ZM181.29 17.2578V17.5312C182.045 17.5312 182.423 17.9089 182.423 18.6641H183.282L183.008 16.125C182.253 16.125 181.876 16.5026 181.876 17.2578H181.29ZM183.868 16.6719V16.9453L184.727 16.6719V16.125H184.415L183.868 16.6719ZM183.087 17.5312L182.813 18.3906H183.087L183.673 17.8047L183.36 17.5312H183.087ZM180.157 18.1172V18.3906H181.29V17.8047H181.016L180.157 18.1172ZM181.016 18.6641L180.743 19.5234L181.876 19.7969L182.149 19.5234V19.25L181.29 18.6641H181.016ZM183.868 18.9375V19.7969L185.274 19.5234V19.25L183.868 18.9375ZM182.735 19.7969L183.282 20.3828L183.594 20.1094V19.7969H182.735ZM154.883 20.1094V20.3828H156.016V20.1094H154.883ZM183.868 24.0938L183.594 24.3672V24.6406H184.415L183.868 24.0938ZM150.899 28.625V28.8984H151.446L152.305 28.625V28.3516H152.032L150.899 28.625ZM152.305 32.6094H153.165L153.751 33.1953V33.7422L152.891 34.6016C152.136 34.3151 151.758 34.0286 151.758 33.7422V33.1953L152.305 32.6094ZM158.008 35.7344L157.696 36.5938H158.282V35.7344H158.008ZM154.571 28.8984L155.157 29.4453V30.0312L154.571 29.4453V28.8984ZM187.071 38.8594V39.1328H187.344C187.344 38.5599 187.631 38.2734 188.204 38.2734L188.477 37.1406C187.8 37.4792 187.331 38.0521 187.071 38.8594ZM136.016 63.1953L135.352 64.6797H136.68V63.1953H136.016ZM167.462 46.9062L168.594 48.0391V48.3125L166.876 47.1797L167.149 46.9062H167.462ZM131.954 67.6875H133.321C133.321 68.1823 132.644 68.4297 131.29 68.4297L130.587 69.5625C131.941 69.5625 132.618 69.9401 132.618 70.6953H133.321C133.321 69.4453 133.764 68.8203 134.649 68.8203L133.321 66.9453L131.954 67.6875ZM195.04 68.0781L196.368 70.3047L194.337 71.4375H197.032L197.735 69.5625C196.824 69.5625 196.368 68.9375 196.368 67.6875L195.704 68.0781H195.04ZM151.563 67.6875V68.8203H152.93V67.6875H151.563ZM136.016 71.4375V72.1797L190.977 72.5703L191.641 72.1797V71.8281L190.977 71.4375H136.016ZM147.501 71.4375C147.501 72.6615 164.245 73.2734 197.735 73.2734L192.305 72.1797V72.9219C194.128 72.9219 184.597 74.7969 163.712 78.5469H164.415V77.4141C157.644 76.4245 154.258 75.5521 154.258 74.7969L152.266 75.1484V73.6641H151.563C151.563 74.4193 151.12 74.7969 150.235 74.7969C150.235 73.7812 149.558 73.2734 148.204 73.2734V71.4375H147.501ZM156.29 72.9219L154.962 74.4062H157.657L159.024 73.6641L156.29 72.9219ZM175.235 74.7969L174.532 75.1484V75.9297H176.563V75.5391L175.235 74.7969ZM165.079 78.1562C165.079 78.7031 166.876 79.2109 170.469 79.6797V78.8984L165.079 78.1562ZM171.837 80.0312V80.4219L175.235 80.7734C175.235 80.2786 174.558 80.0312 173.204 80.0312H171.837ZM176.563 81.5156V81.9062L179.298 82.6484H179.962C179.962 82.0234 179.063 81.6458 177.266 81.5156H176.563ZM163.321 14.3281H196.173L197.149 15.3438V17.375L196.641 20.3828L197.149 25.4609V80.5781L196.173 81.5938H163.321L162.344 80.5781V15.3438L163.321 14.3281ZM162.852 12.6094V2.64844H163.204V3.07812L164.493 2.88281H165.938L166.68 1.98438L166.876 2.21875H167.579C168.1 1.48958 168.712 1.125 169.415 1.125V0.65625C170.274 1.15104 170.704 1.59375 170.704 1.98438L170.86 1.78906C171.589 1.89323 171.954 2.03646 171.954 2.21875L172.149 2.02344H172.344L173.048 2.45312L173.243 2.21875V2.02344L175.235 2.21875L177.071 2.02344L179.61 3.11719L179.962 2.6875L180.704 2.92188L180.899 2.6875L181.798 2.92188H182.344V2.49219H182.54L183.087 2.92188L184.727 2.49219L184.883 2.72656L184.727 2.92188V3.39062L185.079 2.92188L185.977 3.15625L186.915 2.72656V2.92188L188.712 1.82812C189.936 2.0625 190.548 2.28385 190.548 2.49219L190.743 2.29688H190.899L191.837 2.72656L192.93 2.29688L194.18 2.72656H194.376L195.118 2.29688L195.821 2.72656L196.915 2.53125L197.462 3.19531V12.7266L197.071 13.1562L163.204 13.0391L162.852 12.6094ZM197.071 83.0391L197.149 88.4297H196.758V88.1953L195.508 88.3125H194.024L193.321 88.8203L193.126 88.7031H192.423C191.902 89.0938 191.29 89.2891 190.587 89.2891V89.5234C189.727 89.263 189.298 89.0286 189.298 88.8203L189.141 88.9375C188.412 88.8854 188.048 88.8073 188.048 88.7031L187.852 88.8203H187.657L186.954 88.5859L186.758 88.7031V88.8203L184.766 88.7031L182.93 88.8203L180.391 88.2344L180.04 88.4688L179.298 88.3516L179.102 88.4688L178.204 88.3516H177.657V88.625H177.462L176.915 88.3516L175.313 88.625L175.118 88.5078L175.274 88.3906V88.1172L174.923 88.3906L174.024 88.2734L173.126 88.5078V88.3906L171.29 88.9766C170.092 88.8724 169.48 88.7552 169.454 88.625L169.298 88.7422H169.102L168.204 88.5078L167.11 88.7422L165.821 88.5078H165.665L164.923 88.7422L164.18 88.5078L163.087 88.625L162.54 88.2734L162.501 83.1562L162.852 82.8828L196.719 82.8047L197.071 83.0391ZM203.256 2.02344H232.513L233.685 3.3125V11.6328L233.099 14.2109L233.685 16.75V18.0391L233.099 19.9922L233.685 23.1953V87.9219L232.513 89.2109H203.256L202.084 87.9219V3.3125L203.256 2.02344ZM206.615 18.4297V21.3203L206.029 21.9062L206.615 22.4531V67.8828L206.029 68.4297L206.615 69.0156V72.4531L209.506 73.0391L210.053 72.4531H213.529L214.076 73.0391H214.662L215.248 72.4531V50.6172L216.381 49.4844H225.599L227.865 46.5938H228.451V46.0469H227.318V44.875H228.451V44.2891H227.318C227.032 42.388 226.459 41.4375 225.599 41.4375H216.381L215.248 40.2656V27.6484L216.381 26.4766H230.756V25.3438L230.17 24.7578L230.756 24.1719V23.625L230.17 23.0391V22.4531L230.756 20.7344H230.17L230.756 20.1484V18.4297H210.638L210.053 17.8438L206.615 18.4297ZM251.25 88.7422L233.125 88.5469L231.68 87.3359L232.852 3.74219L234.336 2.57031L252.461 2.72656L253.868 3.9375L252.696 87.5312L251.25 88.7422ZM247.032 72.8047L247.657 19.3672L238.438 19.25L237.852 72.6875L247.032 72.8047ZM287.331 88.1953L252.057 88.2344L250.847 87.0234V77.8047C250.612 74.1068 250.495 70.6432 250.495 67.4141V63.1172C250.469 59.7839 250.573 56.099 250.807 52.0625V39.1719C250.781 38.2604 250.873 37.6354 251.081 37.2969C251.055 31.776 250.951 27.0755 250.768 23.1953L250.729 4.17188L251.979 2.96094L287.214 2.88281L288.464 4.13281L288.542 86.9844L287.331 88.1953ZM258.581 18.1172V72.4531H266.667V52.8047L267.839 51.6328H270.729C271.875 51.6328 273.998 58.5729 277.097 72.4531H285.768C281.914 58.4167 279.987 50.3177 279.987 48.1562C282.669 45.7865 284.011 42.8958 284.011 39.4844V31.3984C284.011 22.5443 280.352 18.1172 273.034 18.1172H258.581ZM267.839 26.2031H271.315C274.388 26.2031 275.925 28.7031 275.925 33.7031C275.925 40.2656 274.193 43.5469 270.729 43.5469H267.839L266.667 42.375V27.375L267.839 26.2031ZM288.568 35.8125C288.828 42.2188 294.805 49.8099 306.497 58.5859L307.826 62.6875L307.943 66.2031C306.589 68.599 304.883 69.8359 302.826 69.9141C300.612 70.0182 298.737 67.362 297.201 61.9453L290.755 62.1797L289.622 63.3906L289.662 64.5625C291.563 73.4948 295.846 77.8307 302.513 77.5703L304.271 77.4922C311.589 77.2318 315.755 73.1562 316.771 65.2656L316.654 62.9609C316.445 57.2318 311.094 50.5651 300.599 42.9609C298.516 40.3307 297.435 37.8307 297.357 35.4609C297.253 33.0651 298.568 31.2422 301.302 29.9922C304.427 29.862 306.25 31.763 306.771 35.6953L315.56 34.1328C315.274 26.7891 310.612 22.8568 301.576 22.3359L299.818 22.375C293.412 22.6354 289.662 27.1146 288.568 35.8125ZM327.474 88.5859H325.951C325.742 88.5859 325.638 88.1693 325.638 87.3359L325.443 86.9453H325.287V88.5859L324.935 87.7656C325.065 85.526 325.234 84.4062 325.443 84.4062L325.287 82.3359C325.287 81.2161 325.56 80.6562 326.107 80.6562L326.458 78.9766L326.419 76.0469L326.263 75.6172L325.404 73.9375V73.5469L325.755 71.4766L324.74 64.3672L324.896 63.9375L324.544 63.0781L324.896 60.1484L324.701 58.8984H324.544L324.388 60.1484L323.88 59.7578L323.724 61.0078H323.372L322.865 59.7578V59.3281H323.021C323.255 59.3281 323.372 59.7448 323.372 60.5781H323.529V59.3281L323.177 58.0781L323.685 57.6484V56.8281L323.529 56.3984V55.9688L323.372 56.3984H323.177L322.669 55.1484L323.021 54.3281L323.685 55.5781H323.88L323.529 54.2891V53.4688L323.685 53.0391V52.6484H323.333V52.2188C323.333 50.1615 323.503 49.0417 323.841 48.8594L322.982 42.1797L323.138 40.9297H323.333C323.542 40.9297 323.646 41.3464 323.646 42.1797L323.841 42.5703H324.154L323.333 38.8203L323.49 36.7109L323.294 37.1406H323.138L322.982 36.7109V36.3203H323.138L322.982 35.8906V33.7812L323.802 33.3906L323.294 30.0312L323.646 29.2109V28.7812H323.294V27.1016L323.802 24.9922H323.294V23.3516L323.607 22.4922L323.763 22.9219H323.958V22.4922L323.451 19.9922L323.607 19.5625L323.451 19.1328V18.3125L323.607 17.8828V17.4922H323.412L323.763 16.2031L323.607 15.8125V15.3828C323.581 13.7161 323.737 12.8828 324.076 12.8828V12.0234C323.737 12.0234 323.568 11.1901 323.568 9.52344L323.763 9.09375L323.412 8.27344V7.41406C323.412 6.86719 323.75 6.45052 324.427 6.16406V5.34375L324.232 5.73438H324.076L323.216 4.09375V3.23438L323.724 1.98438H327.279L327.591 2.80469L327.826 87.7656L327.474 88.5859ZM327.982 88.3125L327.357 87.9219L322.943 88.3516L292.201 88.4297L290.951 87.5703L290.912 77.5312L290.287 75.0312L290.912 74.6016L290.287 71.7109L290.247 65.8516L289.622 58.7422H290.247L289.622 58.3125V57.8828L288.919 25.2656L288.294 22.3359H288.88L288.294 21.9062L288.216 2.64844L289.466 1.78906L323.997 1.71094C324.961 1.71094 325.586 3.80729 325.872 8H325.247L323.372 7.57031V8L323.997 8.42969V8.82031L323.372 9.25V9.67969L323.997 11.3594L323.372 12.6094H324.037L323.412 13.0391V13.8594L324.037 13.4297H324.662L325.912 14.2891V14.6797H324.662L324.037 14.2891H323.412V16.3594L324.662 19.7188L322.787 21.3984L325.287 22.2188L324.662 24.3281V25.5781H324.037L323.412 25.1484H322.787V25.5781C322.787 26.2812 323.633 26.6979 325.326 26.8281V28.0781H324.701L322.787 27.2578L322.162 29.3672L323.451 31.8672L322.826 32.2578V32.6875L324.076 34.7969C321.992 34.7969 320.951 36.75 320.951 40.6562L319.701 41.9062H322.201L320.951 45.6562L321.615 48.1953V49.0156L320.99 49.4453L321.615 49.875V50.2656L320.365 51.125L320.99 51.5156V51.9453L320.365 52.375V52.8047C321.615 52.8047 322.24 53.0781 322.24 53.625V54.875L321.615 55.3047V55.7344C323.021 55.7083 323.854 56.5417 324.115 58.2344L323.49 58.625C323.932 63.599 324.779 67.375 326.029 69.9531H326.693L327.279 67.4141C326.211 67.4141 325.586 66.724 325.404 65.3438L324.779 64.9141L326.029 63.6641L325.404 63.2344V61.5547L327.279 61.1641L327.904 61.5547V61.9844L327.279 62.4141V62.8047C328.529 62.8047 329.154 63.0911 329.154 63.6641H328.529L329.154 64.0547V64.4844L328.568 66.9844L329.193 67.4141C330.365 68.9245 330.781 69.7578 330.443 69.9141L329.818 71.2031L331.693 72.4531L331.068 72.8438L331.693 73.2344L330.443 74.0938V74.5234L331.068 74.9141L332.982 75.3438V75.7734L333.607 75.3438H334.857L335.482 79.0938H334.857C332.695 79.1198 331.445 79.5495 331.107 80.3828L331.732 82.0625L328.607 82.4531L329.232 84.5625L326.693 82.8828L327.318 79.1328L326.693 78.7031H326.068L325.443 81.2031L326.068 82.8828L324.818 83.7422C327.057 83.7422 328.529 84.7188 329.232 86.6719L327.982 88.3125ZM324.662 86.2422L323.685 84.1328H323.177V85.4219L323.685 87.4922C324.362 87.4922 324.688 87.0755 324.662 86.2422ZM321.068 78.5078L321.029 78.0781L320.482 76.8672L320.951 76.3984L320.482 76.4375L319.466 77.3359L319.505 77.7656L320.56 78.5469L321.068 78.5078ZM321.966 64.6406L321.927 63.3906L320.99 64.2891L321.458 64.6797L321.966 64.6406ZM317.044 54.7969L316.537 54.4453V54.0156C317.188 53.9896 317.5 53.5599 317.474 52.7266L318.451 52.6875L318.49 53.0781C318.021 54.1979 317.539 54.7708 317.044 54.7969ZM320.951 51.2812L320.794 48.7812L319.818 48.8203L320.365 49.25L320.404 50.0703L319.896 50.5L319.935 50.9297L320.443 51.3203L320.951 51.2812ZM321.81 47.9219V48.3125L322.318 48.7422L322.357 49.1719L321.81 47.9219ZM322.669 28.2344C322.669 34.6667 325.208 43.4818 330.287 54.6797H323.841L322.669 55.8516V57.0234C324.206 66.0339 324.948 61.3333 324.896 42.9219C324.844 24.4844 324.102 19.5885 322.669 28.2344ZM354.258 88.2344L322.422 88.2734L321.328 87.2188V84.0156L322.422 82.4531L322.383 43.7812L321.289 37.9219V18.7812L322.344 17.7266L354.18 17.6875L355.273 18.7422L355.312 87.1797L354.258 88.2344ZM326.289 19.1719V27.2578H333.789L334.922 28.4297V73.3906H343.008V28.4297L344.18 27.2578H351.68V19.1719H326.289ZM321.367 16.5156V15.6562L321.797 15.0703V15.3438L322.031 15.0703H322.266L322.93 15.3438L325.625 15.0312L330.742 14.9922L331.641 14.7188L332.539 14.9922L336.328 14.9531L337.656 14.6406L337.891 14.9531H338.125L339.453 14.6406V14.3672L333.867 13.8203L333.633 14.0938L323.828 12.7266L323.594 13.0391C322.109 12.8568 321.367 12.5703 321.367 12.1797L321.328 3.82031L321.992 2.96094H323.086L323.984 3.23438L324.883 2.92188L326.68 3.23438C326.68 2.92188 327.344 2.42708 328.672 1.75L329.141 2.33594L329.57 1.75H329.805C330.091 1.75 330.234 2.14062 330.234 2.92188L330.703 2.88281L330.898 2.60938H331.133L331.602 3.19531H332.266L333.359 2.88281L333.594 3.74219L333.828 3.46875L334.922 3.74219H335.156C335.26 2.77865 335.482 2.29688 335.82 2.29688H336.289C337.383 2.97396 338.867 3.53385 340.742 3.97656L340.977 6.86719V7.72656L340.781 8L340.977 8.3125L341.016 11.75C341.016 12.1406 340.117 12.4401 338.32 12.6484L336.758 12.375L336.094 12.6484L335.859 12.375V12.0625L335.664 12.375H333.867L332.969 12.6875L332.07 12.4141H331.406V12.6875L342.344 13.4688V13.1953L342.109 11.1641L342.344 10.8906H342.578L342.344 10.5781V10.3047L342.539 8.85938L342.344 7.14062L342.539 5.10938L342.109 4.5625L342.305 4.25H342.773L344.102 4.83594L345.898 4.21094H346.094V4.52344L345.898 4.79688V5.10938C346.497 5.08333 346.797 6.42448 346.797 9.13281L346.602 10.2656L347.266 10.8516C347.24 8.35156 348.268 6.71094 350.352 5.92969V5.34375L350.117 3.35156L351.484 3.625L352.812 3.3125V3.58594L353.047 3.3125H353.711L353.906 3.58594L354.141 3.3125L355.703 3.58594H357.07L357.305 6.4375V12.2188L357.109 12.4922V12.8047L357.305 13.0781H357.539C357.357 15.5781 357.07 16.8281 356.68 16.8281L321.836 17.0625L321.367 16.5156ZM327.812 12.7266L329.609 13L330.508 12.6875L330.273 12.4141V12.1016L327.812 12.4141V12.7266ZM314.492 67.1016L313.359 67.0625V66.75L313.945 66.2031L314.492 66.8281V67.1016ZM339.766 25.4219L339.727 26.2422L340.312 26.2812L340.352 25.4609L339.766 25.4219ZM345.078 30.6172V30.8906C345.859 30.9167 346.237 31.2943 346.211 32.0234L347.07 32.0625L346.875 29.5625C346.094 29.5365 345.69 29.888 345.664 30.6172H345.078ZM347.734 30.1484V30.4219L348.594 30.1875L348.633 29.6406H348.32L347.734 30.1484ZM346.914 30.9688L346.562 31.75L346.875 31.7891L347.461 31.2422L347.188 30.9688H346.914ZM343.906 31.3984L343.867 31.6719L345.039 31.7109L345.078 31.1641H344.766L343.906 31.3984ZM344.727 31.9844L344.414 32.8047L345.586 33.1172L345.859 32.8438L345.898 32.5703L345.039 31.9844H344.727ZM347.656 32.375L347.617 33.1953L349.062 32.9609V32.6875L347.656 32.375ZM346.445 33.1562L346.992 33.7031L347.305 33.4297V33.1562H346.445ZM317.93 32.3359V32.6094L319.102 32.6484V32.375L317.93 32.3359ZM347.422 37.2969L347.109 37.5703V37.8438L348.008 37.8828L347.422 37.2969ZM312.305 51.0469V50.7734H311.719L310.859 51.0078V51.2812L311.133 51.3203L312.305 51.0469ZM311.016 47.0234L310.156 46.9844L309.609 46.3984L309.648 45.8516L310.547 45.0312C311.276 45.3438 311.641 45.6432 311.641 45.9297L311.602 46.4766L311.016 47.0234ZM320.508 47.5703L320.195 48.3906H320.781V47.5703H320.508ZM315.156 43.5078L314.609 42.9219L314.648 42.3359L315.195 42.9219L315.156 43.5078ZM343.398 58.5859V58.8594L343.672 58.8984C343.698 58.3516 344.01 58.0781 344.609 58.0781L344.922 57.0234C344.219 57.3359 343.711 57.8568 343.398 58.5859ZM349.375 74.4453L349.844 72.8828H348.945V74.4453H349.375ZM323.008 65.6172L324.141 66.7891V67.0625L322.422 65.8906L322.734 65.6172H323.008ZM352.031 69.7969H351.172C351.198 69.276 351.641 69.0156 352.5 69.0156L352.969 67.8438C352.083 67.8438 351.654 67.4531 351.68 66.6719H351.25C351.224 67.974 350.924 68.612 350.352 68.5859L351.172 70.5781L352.031 69.7969ZM311.68 68.8594L310.859 66.5156L312.188 65.3438H310.469L310 67.2969C310.573 67.2969 310.846 67.9479 310.82 69.25L311.25 68.8594H311.68ZM339.492 69.6406L339.531 68.4688L338.633 68.4297V69.6016L339.492 69.6406ZM367.383 89.8359V89.0547L332.227 88.2344L331.758 88.625V89.0156L332.188 89.4062L367.383 89.8359ZM360 89.7578C360.026 88.4557 349.323 87.6615 327.891 87.375L331.328 88.5859L331.367 87.8047C330.195 87.8047 336.328 85.9297 349.766 82.1797H349.336L349.297 83.3516C353.62 84.4453 355.768 85.3828 355.742 86.1641L357.07 85.8125L357.031 87.375H357.461C357.487 86.5938 357.786 86.2031 358.359 86.2031C358.333 87.2448 358.75 87.7786 359.609 87.8047L359.57 89.7578H360ZM354.414 88.1172L355.312 86.5547H353.594L352.695 87.2969L354.414 88.1172ZM342.344 86.0078L342.773 85.6172V84.8359H341.484V85.2266L342.344 86.0078ZM348.906 82.5703C348.906 81.9974 347.76 81.4635 345.469 80.9688L345.43 81.75L348.906 82.5703ZM344.609 80.5391V80.1484L342.461 79.7578C342.435 80.2786 342.865 80.5391 343.75 80.5391H344.609ZM341.602 78.9375V78.5469L339.883 77.7656H339.453C339.453 78.4167 340.026 78.8073 341.172 78.9375H341.602Z" fill="white" fill-opacity="0.5"/>
</svg>
