<svg width="479" height="72" viewBox="0 0 479 72" fill="none" xmlns="http://www.w3.org/2000/svg">
<path d="M12.32 40.36C12.32 46.6 12.5333 50.36 12.96 51.64C13.3867 52.92 14.6133 53.56 16.64 53.56C17.0133 53.56 17.5733 53.5333 18.32 53.48C19.0667 53.4267 19.6267 53.4 20 53.4H20.4C21.5733 53.4 22.16 53.72 22.16 54.36C22.16 55.0533 21.68 55.4 20.72 55.4C20.4533 55.4 20.3467 55.4 20.4 55.4L17.6 55.16L14.32 54.92L12 54.84H10.48L8.24 54.92L4.88 55.16L2.08 55.4C2.02667 55.4 1.94667 55.4 1.84 55.4C0.826667 55.4 0.32 55.08 0.32 54.44C0.32 53.7467 0.906667 53.4 2.08 53.4H2.48C2.85333 53.4 3.41333 53.4267 4.16 53.48C4.96 53.5333 5.54667 53.56 5.92 53.56C7.94667 53.56 9.17333 52.92 9.6 51.64C10.0267 50.36 10.24 46.6 10.24 40.36V27.8C10.24 23.9067 10.24 22.2267 10.24 22.76C10.1333 19.9867 9.73333 18.3867 9.04 17.96C8.61333 17.6933 7.92 17.56 6.96 17.56C6.64 17.56 5.76 17.6133 4.32 17.72L2.16 17.88C2.10667 17.88 2.02667 17.88 1.92 17.88C0.853333 17.88 0.32 17.5333 0.32 16.84C0.32 16.1467 0.773333 15.8 1.68 15.8H1.92L4.32 16.04H8.16C8.48 16.04 8.96 16.0133 9.6 15.96C10.24 15.8533 10.72 15.8 11.04 15.8C11.8933 15.8 12.32 16.4133 12.32 17.64V40.36ZM10.48 3.88C11.28 3.88 11.9467 4.17333 12.48 4.76C13.0667 5.34666 13.36 6.04 13.36 6.84C13.36 7.64 13.0667 8.33333 12.48 8.92C11.9467 9.45333 11.3067 9.72 10.56 9.72C9.70667 9.72 8.98667 9.45333 8.4 8.92C7.86667 8.33333 7.6 7.64 7.6 6.84C7.6 5.98666 7.86667 5.29333 8.4 4.76C8.98667 4.17333 9.68 3.88 10.48 3.88ZM38.6075 19.08V23.4C40.4742 20.04 42.8475 17.7467 45.7275 16.52C48.1808 15.5067 50.7142 15 53.3275 15C57.1675 15 60.3142 15.8533 62.7675 17.56C65.2208 19.2133 66.7675 21.56 67.4075 24.6C67.8342 26.68 68.0475 29.96 68.0475 34.44V40.36C68.0475 46.6 68.2608 50.36 68.6875 51.64C69.1142 52.92 70.3408 53.56 72.3675 53.56C72.7408 53.56 73.3008 53.5333 74.0475 53.48C74.8475 53.4267 75.4342 53.4 75.8075 53.4H76.2075C77.3808 53.4 77.9675 53.72 77.9675 54.36C77.9675 55.0533 77.4608 55.4 76.4475 55.4C76.2875 55.4 76.2075 55.4 76.2075 55.4L73.4075 55.16L70.0475 54.92L67.8075 54.84H66.2875L63.9675 54.92L60.6875 55.16L57.8875 55.4C57.8875 55.4 57.7808 55.4 57.5675 55.4C56.6075 55.4 56.1275 55.08 56.1275 54.44C56.1275 53.7467 56.7142 53.4 57.8875 53.4H58.2075C58.5808 53.4 59.1408 53.4267 59.8875 53.48C60.6875 53.5333 61.2742 53.56 61.6475 53.56C63.7275 53.56 64.9542 52.9467 65.3275 51.72C65.7542 50.44 65.9675 46.6533 65.9675 40.36V34.36C65.9675 27.5867 65.2208 23.16 63.7275 21.08C61.5942 18.0933 58.0208 16.6 53.0075 16.6C46.8742 16.6 42.5808 19.0267 40.1275 23.88C39.1142 25.8533 38.6075 29.0267 38.6075 33.4V40.36C38.6075 46.6 38.8208 50.36 39.2475 51.64C39.6742 52.92 40.9008 53.56 42.9275 53.56C43.3008 53.56 43.8608 53.5333 44.6075 53.48C45.3542 53.4267 45.9142 53.4 46.2875 53.4H46.6875C47.8608 53.4 48.4475 53.72 48.4475 54.36C48.4475 55.0533 47.9675 55.4 47.0075 55.4C46.7408 55.4 46.6342 55.4 46.6875 55.4L43.8875 55.16L40.6075 54.92L38.2075 54.84H36.7675L34.5275 54.92L31.1675 55.16L28.3675 55.4C28.3142 55.4 28.2342 55.4 28.1275 55.4C27.1142 55.4 26.6075 55.08 26.6075 54.44C26.6075 53.7467 27.1942 53.4 28.3675 53.4H28.7675C29.1408 53.4 29.7008 53.4267 30.4475 53.48C31.1942 53.5333 31.7542 53.56 32.1275 53.56C34.2075 53.56 35.4608 52.92 35.8875 51.64C36.3142 50.36 36.5275 46.6 36.5275 40.36V27.8C36.5275 23.96 36.5275 22.28 36.5275 22.76C36.4208 19.9867 36.0208 18.3867 35.3275 17.96C34.9008 17.6933 34.2075 17.56 33.2475 17.56C32.9275 17.56 32.0475 17.6133 30.6075 17.72L28.2075 17.88C27.1408 17.88 26.6075 17.5333 26.6075 16.84C26.6075 16.1467 27.0875 15.8 28.0475 15.8C28.4208 15.8 29.2475 15.8533 30.5275 15.96C31.1675 16.0133 31.7808 16.04 32.3675 16.04H33.8875C34.2075 16.04 34.7142 16.0133 35.4075 15.96C36.1008 15.8533 36.6075 15.8 36.9275 15.8C37.6742 15.8 38.1275 15.9867 38.2875 16.36C38.5008 16.7333 38.6075 17.64 38.6075 19.08ZM113.874 51.32V48.12C110.674 53.5067 106.14 56.2 100.274 56.2C95.1537 56.2 90.9671 54.3333 87.7137 50.6C84.5137 46.8667 82.9137 42.04 82.9137 36.12C82.9137 30.04 84.6204 25 88.0337 21C91.5004 17 95.8471 15 101.074 15C107.154 15 111.42 17.64 113.874 22.92V12.44C113.874 7.10666 113.687 4.06666 113.314 3.32C112.94 2.57333 112.06 2.2 110.674 2.2C110.087 2.2 109.18 2.28 107.954 2.44C106.727 2.6 105.927 2.68 105.554 2.68C104.54 2.68 104.034 2.33333 104.034 1.64C104.034 0.946665 104.487 0.599999 105.394 0.599999H105.634L107.954 0.759997H111.874C112.407 0.759997 112.86 0.733331 113.234 0.679998H114.274C114.86 0.679998 115.26 0.786665 115.474 0.999999C115.74 1.21333 115.874 1.74667 115.874 2.6V4.84L115.954 8.12V43.4C115.954 48.7867 116.14 51.8533 116.514 52.6C116.887 53.2933 117.767 53.64 119.154 53.64C119.527 53.64 120.407 53.56 121.794 53.4C123.18 53.24 123.98 53.16 124.194 53.16C125.26 53.16 125.794 53.5067 125.794 54.2C125.794 54.8933 125.34 55.24 124.434 55.24H124.194L121.874 55.08H117.714C117.02 55.08 116.594 55.08 116.434 55.08C116.274 55.1333 116.087 55.1867 115.874 55.24C115.66 55.24 115.527 55.24 115.474 55.24C114.887 55.24 114.46 55.0267 114.194 54.6C113.98 54.12 113.874 53.0267 113.874 51.32ZM114.034 36.76V35.72C114.034 29.5333 113.314 25.1333 111.874 22.52C109.687 18.5733 106.034 16.6 100.914 16.6C96.3804 16.6 92.6204 18.4667 89.6337 22.2C86.6471 25.88 85.1537 30.5467 85.1537 36.2C85.1537 41.5867 86.5671 46.0133 89.3937 49.48C92.2737 52.8933 95.9804 54.6 100.514 54.6C104.354 54.6 107.554 53.2133 110.114 50.44C111.607 48.7867 112.62 47 113.154 45.08C113.74 43.16 114.034 40.3867 114.034 36.76ZM166.436 50.84C166.436 48.8133 166.436 47.8 166.436 47.8C165.476 49.6667 164.383 51.16 163.156 52.28C160.276 54.8933 156.65 56.2 152.276 56.2C147.05 56.2 143.21 54.7333 140.756 51.8C139.423 50.2 138.543 48.2533 138.116 45.96C137.903 44.6267 137.796 42.44 137.796 39.4V27.72C137.796 22.92 137.636 20.0133 137.316 19C136.996 17.9867 136.063 17.48 134.516 17.48C133.77 17.48 132.916 17.5333 131.956 17.64C130.57 17.8 129.796 17.88 129.636 17.88C128.623 17.88 128.116 17.5067 128.116 16.76C128.116 16.12 128.516 15.8 129.316 15.8H129.556L131.796 16.04H136.436L137.236 15.96L138.516 15.8C139.476 15.8 139.956 16.7867 139.956 18.76V19.24C139.903 19.6667 139.876 20.28 139.876 21.08V39.64C139.876 42.4667 140.01 44.52 140.276 45.8C140.65 47.9333 141.53 49.72 142.916 51.16C145.103 53.4533 148.25 54.6 152.356 54.6C157.796 54.6 161.663 52.7067 163.956 48.92C165.61 46.2 166.436 42.1467 166.436 36.76V27.72C166.436 22.3333 166.223 19.2933 165.796 18.6C165.423 17.8533 164.57 17.48 163.236 17.48C162.436 17.48 161.556 17.5333 160.596 17.64L158.276 17.88C157.263 17.88 156.756 17.5333 156.756 16.84C156.756 16.1467 157.183 15.8 158.036 15.8H158.276L160.436 16.04H164.436C165.236 16.04 165.796 16.0133 166.116 15.96C166.436 15.8533 166.783 15.8 167.156 15.8C168.17 15.8 168.676 16.8667 168.676 19C168.676 19.7467 168.65 20.28 168.596 20.6C168.596 20.76 168.596 21.56 168.596 23C168.543 24.4933 168.516 25.9067 168.516 27.24V43.4C168.516 48.7867 168.703 51.8533 169.076 52.6C169.45 53.2933 170.33 53.64 171.716 53.64C171.876 53.64 172.73 53.56 174.276 53.4C175.343 53.2933 176.17 53.24 176.756 53.24C177.77 53.24 178.276 53.5867 178.276 54.28C178.276 54.9733 177.796 55.32 176.836 55.32H176.676L174.356 55.16L172.516 55.08H171.556C171.396 55.08 171.13 55.1067 170.756 55.16C170.383 55.16 170.063 55.16 169.796 55.16C169.423 55.2133 168.97 55.24 168.436 55.24C167.636 55.24 167.103 55.0267 166.836 54.6C166.57 54.12 166.436 53.2133 166.436 51.88V50.84ZM200.814 56.2C194.52 56.2 189.88 53.96 186.894 49.48C187 50.44 187.08 51.1067 187.134 51.48C187.24 53.6133 187.294 54.5467 187.294 54.28C187.294 55.4533 186.947 56.04 186.254 56.04C185.454 56.04 185.054 55.5067 185.054 54.44C185.054 53.8 185.134 52.8133 185.294 51.48C185.454 50.0933 185.534 48.2533 185.534 45.96C185.534 43.4533 185.454 41.5067 185.294 40.12C185.134 38.7333 185.054 38.0133 185.054 37.96C185.054 37.0533 185.4 36.6 186.094 36.6C186.84 36.6 187.214 37.2667 187.214 38.6C187.214 38.6533 187.187 38.92 187.134 39.4C187.08 39.8267 187.054 40.3067 187.054 40.84C187 41.5867 186.974 42.3333 186.974 43.08C186.974 46.4933 188.254 49.2667 190.814 51.4C193.374 53.5333 196.707 54.6 200.814 54.6C204.654 54.6 207.747 53.6933 210.094 51.88C212.44 50.0667 213.614 47.6933 213.614 44.76C213.614 42.0933 212.734 40.1467 210.974 38.92C209.214 37.6933 206.12 36.8133 201.694 36.28C196.52 35.6933 193.054 35.0267 191.294 34.28C189.8 33.64 188.6 32.6 187.694 31.16C186.787 29.6667 186.334 28.0667 186.334 26.36C186.334 23.16 187.614 20.4667 190.174 18.28C192.787 16.0933 196.04 15 199.934 15C205.214 15 209.267 17.1867 212.094 21.56V17.72C212.094 16.1733 212.414 15.4 213.054 15.4C213.694 15.4 214.014 15.8267 214.014 16.68C214.014 16.9467 213.934 17.6133 213.774 18.68C213.774 18.7867 213.747 19.1333 213.694 19.72C213.64 20.3067 213.614 20.84 213.614 21.32L213.534 24.28C213.534 26.4667 213.56 27.8 213.614 28.28C213.667 28.7067 213.72 29.1333 213.774 29.56C213.774 30.04 213.774 30.28 213.774 30.28C213.774 31.1867 213.427 31.64 212.734 31.64C212.094 31.64 211.774 31.2133 211.774 30.36V30.2L211.934 28.36C211.987 27.72 212.014 27.5333 212.014 27.8C212.014 24.4933 210.894 21.8 208.654 19.72C206.467 17.64 203.587 16.6 200.014 16.6C196.707 16.6 193.96 17.48 191.774 19.24C189.64 20.9467 188.574 23.16 188.574 25.88C188.574 28.4933 189.4 30.3867 191.054 31.56C192.76 32.68 195.854 33.48 200.334 33.96C205.08 34.44 208.6 35.1867 210.894 36.2C214.2 37.64 215.854 40.2533 215.854 44.04C215.854 47.6133 214.44 50.5467 211.614 52.84C208.84 55.08 205.24 56.2 200.814 56.2ZM232.189 18.68C232.135 19 232.109 19.88 232.109 21.32V38.12C232.109 43.4 232.429 47.1867 233.069 49.48C234.029 52.8933 236.215 54.6 239.629 54.6C242.349 54.6 244.269 53.6933 245.389 51.88C246.509 50.0133 247.069 46.8667 247.069 42.44V40.04C247.069 39.88 247.069 39.72 247.069 39.56C247.015 39.4 246.989 39.2933 246.989 39.24C246.989 38.12 247.362 37.56 248.109 37.56C248.855 37.56 249.229 38.12 249.229 39.24V41.24C249.229 44.9733 248.962 47.9067 248.429 50.04C247.415 54.1467 244.482 56.2 239.629 56.2C233.229 56.2 230.029 51.6133 230.029 42.44V21.32C230.029 19.6133 229.895 18.5733 229.629 18.2C229.415 17.7733 228.775 17.56 227.709 17.56C227.389 17.56 226.589 17.6133 225.309 17.72L223.469 17.88C222.455 17.88 221.949 17.5067 221.949 16.76C221.949 16.12 222.429 15.8 223.389 15.8C223.815 15.8 224.455 15.8533 225.309 15.96C226.162 16.0133 226.802 16.04 227.229 16.04C228.882 16.04 229.895 15.5333 230.269 14.52C230.482 13.9333 230.589 12.8933 230.589 11.4V11C230.589 8.76 230.642 7.37333 230.749 6.84C230.909 6.25333 231.229 5.96 231.709 5.96C232.295 5.96 232.589 6.38666 232.589 7.24V7.4L232.349 11.24C232.295 12.0933 232.269 13.1067 232.269 14.28C232.269 15.4533 233.042 16.04 234.589 16.04H237.229C237.815 16.04 238.695 16.0133 239.869 15.96C241.095 15.8533 242.002 15.8 242.589 15.8C243.655 15.8 244.189 16.1467 244.189 16.84C244.189 17.5333 243.602 17.88 242.429 17.88H242.269L239.789 17.8C239.362 17.8 238.482 17.7467 237.149 17.64C236.029 17.5867 235.149 17.56 234.509 17.56C233.069 17.56 232.295 17.9333 232.189 18.68ZM266.529 22.68C269.463 17.56 273.649 15 279.089 15C282.289 15 284.903 15.9067 286.929 17.72C289.009 19.48 290.049 21.7733 290.049 24.6C290.049 26.4667 289.569 28.04 288.609 29.32C287.703 30.5467 286.529 31.16 285.089 31.16C283.169 31.16 282.209 30.28 282.209 28.52C282.209 26.92 283.009 26.12 284.609 26.12C285.036 26.12 285.463 26.28 285.889 26.6C286.316 26.92 286.609 27.08 286.769 27.08C287.463 27.08 287.809 26.12 287.809 24.2C287.809 21.96 286.983 20.1467 285.329 18.76C283.676 17.32 281.516 16.6 278.849 16.6C274.263 16.6 270.929 18.3067 268.849 21.72C267.303 24.28 266.529 28.2267 266.529 33.56V40.36C266.529 46.6 266.743 50.36 267.169 51.64C267.596 52.92 268.823 53.56 270.849 53.56C271.223 53.56 271.783 53.5333 272.529 53.48C273.276 53.4267 273.836 53.4 274.209 53.4H274.609C275.783 53.4 276.369 53.72 276.369 54.36C276.369 55.0533 275.863 55.4 274.849 55.4C274.689 55.4 274.609 55.4 274.609 55.4L271.809 55.16L268.529 54.92L266.129 54.84H264.689L262.369 54.92L259.089 55.16L256.289 55.4C256.236 55.4 256.156 55.4 256.049 55.4C255.036 55.4 254.529 55.08 254.529 54.44C254.529 53.7467 255.116 53.4 256.289 53.4H256.689C257.063 53.4 257.623 53.4267 258.369 53.48C259.116 53.5333 259.676 53.56 260.049 53.56C262.129 53.56 263.383 52.92 263.809 51.64C264.236 50.36 264.449 46.6 264.449 40.36V27.8C264.449 23.96 264.449 22.28 264.449 22.76C264.343 19.9867 263.943 18.3867 263.249 17.96C262.823 17.6933 262.129 17.56 261.169 17.56C260.849 17.56 259.969 17.6133 258.529 17.72L256.129 17.88C255.063 17.88 254.529 17.5333 254.529 16.84C254.529 16.1467 254.983 15.8 255.889 15.8C256.369 15.8 257.223 15.8533 258.449 15.96C259.036 16.0133 259.649 16.04 260.289 16.04H261.489C262.076 16.04 262.929 15.96 264.049 15.8C264.156 15.8 264.289 15.7733 264.449 15.72C264.663 15.72 264.796 15.72 264.849 15.72C265.969 15.72 266.529 16.3067 266.529 17.48V22.68ZM332.522 20.68L331.002 24.2L317.562 56.52C316.122 59.9333 314.415 62.92 312.442 65.48C309.829 68.7867 306.309 70.44 301.882 70.44C299.002 70.44 296.602 69.6667 294.682 68.12C292.762 66.6267 291.802 64.7333 291.802 62.44C291.802 61.32 292.202 60.3333 293.002 59.48C293.749 58.6267 294.629 58.2 295.642 58.2C296.389 58.2 297.029 58.4667 297.562 59C298.149 59.5333 298.442 60.1733 298.442 60.92C298.442 62.5733 297.562 63.4 295.802 63.4C295.482 63.4 295.162 63.32 294.842 63.16C294.735 63.16 294.629 63.1333 294.522 63.08C294.202 63.08 294.042 63.3467 294.042 63.88C294.042 65.1067 294.842 66.2267 296.442 67.24C298.095 68.3067 299.909 68.84 301.882 68.84C306.895 68.84 310.815 66.0667 313.642 60.52C314.549 58.76 315.002 57.48 315.002 56.68C315.002 56.2 314.815 55.48 314.442 54.52L302.122 23.4C301.269 21.2133 300.682 19.9067 300.362 19.48C299.562 18.36 298.389 17.8 296.842 17.8C296.469 17.8 296.175 17.8267 295.962 17.88H295.162C294.095 17.88 293.562 17.56 293.562 16.92C293.562 16.1733 294.095 15.8 295.162 15.8C295.002 15.8 295.722 15.8533 297.322 15.96C298.282 16.12 300.015 16.2 302.522 16.2C303.749 16.2 305.482 16.12 307.722 15.96C309.215 15.8533 310.282 15.8 310.922 15.8C312.255 15.8 312.922 16.1733 312.922 16.92C312.922 17.56 312.335 17.88 311.162 17.88H310.922L308.762 17.72C308.015 17.6667 307.295 17.64 306.602 17.64C304.469 17.64 303.402 18.1467 303.402 19.16C303.402 19.5333 303.509 20.04 303.722 20.68L304.522 23.16L315.882 52.28C316.149 52.9733 316.362 53.32 316.522 53.32C316.682 53.32 316.895 52.9733 317.162 52.28L330.042 20.68C330.255 20.0933 330.362 19.6933 330.362 19.48C330.362 18.3067 329.269 17.72 327.082 17.72C326.549 17.72 325.775 17.7733 324.762 17.88C323.749 17.9333 323.002 17.96 322.522 17.96C321.455 17.96 320.922 17.6133 320.922 16.92C320.922 16.1733 321.429 15.8 322.442 15.8C322.389 15.8 323.162 15.8533 324.762 15.96C325.029 16.0667 325.855 16.1467 327.242 16.2L330.282 16.36C332.682 16.36 334.682 16.2267 336.282 15.96C337.669 15.8533 338.415 15.8 338.522 15.8C339.482 15.8 339.962 16.12 339.962 16.76C339.962 17.5067 339.322 17.88 338.042 17.88H336.842C336.629 17.8267 336.309 17.8 335.882 17.8C334.922 17.8 334.229 18.0133 333.802 18.44C333.429 18.8133 333.002 19.56 332.522 20.68ZM407.758 38.68H398.638C397.838 38.68 397.331 38.7867 397.118 39C396.958 39.16 396.878 39.64 396.878 40.44V49C396.878 50.8667 397.118 52.12 397.598 52.76C398.131 53.4 399.278 53.72 401.038 53.72H401.438L403.518 53.64C403.518 53.64 404.211 53.64 405.598 53.64C406.665 53.64 407.198 53.9333 407.198 54.52C407.198 55.2133 406.611 55.56 405.438 55.56C404.638 55.56 403.545 55.48 402.158 55.32C400.558 55.16 399.491 55.0533 398.958 55C397.145 54.8933 395.971 54.84 395.438 54.84C394.851 54.84 393.651 54.8933 391.838 55C390.558 55.1067 388.665 55.2933 386.158 55.56H385.998C384.878 55.56 384.318 55.2133 384.318 54.52C384.318 53.88 384.905 53.56 386.078 53.56C386.558 53.56 387.305 53.6133 388.318 53.72C389.331 53.7733 390.105 53.8 390.638 53.8C392.238 53.8 393.278 53.48 393.758 52.84C394.291 52.2 394.611 50.8133 394.718 48.68L394.798 46.6V40.44C394.798 39.64 394.691 39.16 394.478 39C394.265 38.7867 393.758 38.68 392.958 38.68H368.158C366.025 38.68 364.958 38.2 364.958 37.24C364.958 36.6533 365.385 35.8267 366.238 34.76L392.238 2.68C393.571 1.02666 394.638 0.199995 395.438 0.199995C396.398 0.199995 396.878 0.919995 396.878 2.36V35.08C396.878 35.88 396.958 36.3867 397.118 36.6C397.278 36.76 397.651 36.84 398.238 36.84H398.638L405.278 36.68C405.491 36.6267 405.785 36.6 406.158 36.6C406.531 36.5467 406.798 36.52 406.958 36.52H407.358C408.638 36.52 409.278 36.8667 409.278 37.56C409.278 38.3067 408.771 38.68 407.758 38.68ZM392.958 36.92C393.811 36.92 394.318 36.84 394.478 36.68C394.691 36.4667 394.798 35.96 394.798 35.16V4.2C394.798 3.50667 394.665 3.16 394.398 3.16C394.238 3.16 394.025 3.32 393.758 3.64L367.918 35.8C367.598 36.1733 367.438 36.44 367.438 36.6C367.438 36.8133 367.758 36.92 368.398 36.92H392.958ZM420.809 71.48C420.063 71.48 419.689 71.16 419.689 70.52C419.689 70.4133 419.823 70.1467 420.089 69.72C420.196 69.6133 420.756 68.8667 421.769 67.48C423.956 64.4933 425.049 61.4267 425.049 58.28C425.049 56.5733 424.596 55.72 423.689 55.72C423.263 55.72 422.916 55.7733 422.649 55.88C422.009 55.9867 421.663 56.04 421.609 56.04C420.756 56.04 420.009 55.6933 419.369 55C418.729 54.3067 418.409 53.5067 418.409 52.6C418.409 51.48 418.783 50.5467 419.529 49.8C420.329 49.0533 421.289 48.68 422.409 48.68C425.663 48.68 427.289 51.08 427.289 55.88C427.289 60.4133 425.743 64.9467 422.649 69.48C421.743 70.8133 421.129 71.48 420.809 71.48ZM457.511 0.119996C464.071 0.119996 469.218 2.65333 472.951 7.72C476.738 12.7867 478.631 19.7467 478.631 28.6C478.631 37.1867 476.711 43.9867 472.871 49C469.031 54.0133 463.858 56.52 457.351 56.52C450.791 56.52 445.618 54.0133 441.831 49C438.045 43.9867 436.151 37.1333 436.151 28.44C436.151 19.8 438.071 12.92 441.911 7.8C445.805 2.68 451.005 0.119996 457.511 0.119996ZM457.271 54.76C463.298 54.76 467.965 52.44 471.271 47.8C474.631 43.16 476.311 36.5733 476.311 28.04C476.311 19.7733 474.631 13.3733 471.271 8.84C467.965 4.25333 463.271 1.96 457.191 1.96C451.378 1.96 446.791 4.36 443.431 9.16C440.125 13.9067 438.471 20.44 438.471 28.76C438.471 36.9733 440.125 43.3733 443.431 47.96C446.738 52.4933 451.351 54.76 457.271 54.76Z" fill="white" fill-opacity="0.5"/>
</svg>
