<svg width="318" height="57" viewBox="0 0 318 57" fill="none" xmlns="http://www.w3.org/2000/svg">
<path d="M41.92 55.32L34.96 55.08L24.72 55L15.76 54.76H10.88L8.64 54.68C8.26667 54.68 7.68 54.7067 6.88 54.76C6.4 54.76 5.62667 54.8133 4.56 54.92L2.56 55.08C2.50667 55.08 2.4 55.08 2.24 55.08C0.746667 55.08 2.98023e-08 54.68 2.98023e-08 53.88C2.98023e-08 53.0267 0.666667 52.6 2 52.6C2.21333 52.6 2.37333 52.6267 2.48 52.68L4.64 52.92C5.6 53.0267 6.48 53.08 7.28 53.08C8.88 53.08 9.89333 52.44 10.32 51.16C10.5333 50.5733 10.64 49.24 10.64 47.16V46.52C10.64 46.2 10.6667 44.52 10.72 41.48C10.72 41.48 10.72 39.5867 10.72 35.8V20.68C10.72 16.8933 10.72 15 10.72 15L10.64 9.32C10.64 7.18667 10.5333 5.85333 10.32 5.32C9.94667 4.04 8.93333 3.4 7.28 3.4C6.48 3.4 5.6 3.45333 4.64 3.56L2.48 3.8H2.08C0.693333 3.8 2.98023e-08 3.4 2.98023e-08 2.6C2.98023e-08 1.85333 0.72 1.48 2.16 1.48C2.48 1.48 2.61333 1.48 2.56 1.48C5.76 1.69333 7.81333 1.8 8.72 1.8L34.96 1.72L41.84 1.32C41.84 1.32 42 1.32 42.32 1.32C44.08 1.32 44.96 2.14667 44.96 3.8C44.96 4.33333 44.9333 5.37333 44.88 6.92C44.8267 8.46666 44.8 10.2267 44.8 12.2C44.8 15.3467 44.88 17.7733 45.04 19.48V19.96C45.04 21.8267 44.64 22.76 43.84 22.76C43.04 22.76 42.64 21.96 42.64 20.36V19.72C42.7467 18.6 42.8267 17.48 42.88 16.36L42.96 13.32L43.12 10.2C43.12 10.2 43.12 9.96 43.12 9.48C43.12 6.65333 42.72 4.94666 41.92 4.36C41.12 3.72 38.88 3.4 35.2 3.4H17.84C15.5467 3.4 14.16 3.77333 13.68 4.52C13.2 5.21333 12.96 7.37333 12.96 11L13.04 23.8C13.0933 24.9733 13.28 25.6933 13.6 25.96C13.92 26.1733 14.8533 26.28 16.4 26.28H24.8C29.0133 26.28 31.12 24.8933 31.12 22.12V21.88L31.04 19.64L30.88 16.6C30.88 15.16 31.2267 14.44 31.92 14.44C32.6667 14.44 33.04 15.1867 33.04 16.68C33.04 17.0533 32.96 18.0933 32.8 19.8C32.5333 22.5733 32.4 24.9467 32.4 26.92C32.4 31.5067 32.64 35.56 33.12 39.08V39.8C33.12 41.2933 32.7467 42.04 32 42.04C31.1467 42.04 30.72 41.1867 30.72 39.48C30.72 39.2667 30.72 39.1333 30.72 39.08L30.96 36.2L31.12 33.56C31.12 33.56 31.12 33.3733 31.12 33C31.12 31.0267 30.6667 29.6933 29.76 29C28.8533 28.2533 27.2 27.88 24.8 27.88H15.92C14.5333 27.88 13.68 28.0667 13.36 28.44C13.0933 28.76 12.96 29.6667 12.96 31.16V48.12C12.96 49.6133 12.9867 50.52 13.04 50.84C13.2533 51.9067 13.76 52.5733 14.56 52.84C15.0933 53 16.5867 53.08 19.04 53.08H33.84C38.64 53.08 41.5467 52.6533 42.56 51.8C43.6267 50.8933 44.16 48.4667 44.16 44.52C44.16 43.1867 44.1333 42.0133 44.08 41L43.92 37.72C43.92 36.12 44.2933 35.32 45.04 35.32C45.7333 35.32 46.08 35.9867 46.08 37.32V37.64L45.84 40.12C45.84 40.8667 45.7867 41.9867 45.68 43.48C45.6267 44.92 45.6 46.0133 45.6 46.76V51.4C45.6 52.9467 45.3333 54.0133 44.8 54.6C44.32 55.1333 43.36 55.3733 41.92 55.32ZM97.1063 52.36L67.0262 4.52C66.8129 4.2 66.6529 4.04 66.5462 4.04C66.3862 4.04 66.3062 4.30666 66.3062 4.84L66.4662 47.96C66.5196 50.04 66.8129 51.48 67.3462 52.28C67.9329 53.0267 68.9462 53.4 70.3862 53.4C70.8129 53.4 71.6396 53.3467 72.8663 53.24C73.5063 53.1867 74.1729 53.16 74.8662 53.16C75.9863 53.16 76.5463 53.5067 76.5463 54.2C76.5463 54.8933 75.9863 55.24 74.8662 55.24H74.6262C74.4662 55.24 74.1996 55.24 73.8263 55.24C73.4529 55.1867 73.1329 55.16 72.8663 55.16C72.2262 55.1067 71.4529 55.0267 70.5462 54.92C68.8929 54.76 67.9862 54.68 67.8262 54.68H62.6262C62.5196 54.68 61.6129 54.76 59.9062 54.92C59.5329 54.92 58.7596 55 57.5862 55.16C57.3196 55.16 56.9996 55.1867 56.6262 55.24C56.1996 55.24 55.9329 55.24 55.8262 55.24H55.5062C54.3862 55.24 53.8262 54.92 53.8262 54.28C53.8262 53.5333 54.4129 53.16 55.5862 53.16C56.2796 53.16 56.9462 53.1867 57.5862 53.24C58.8129 53.3467 59.6396 53.4 60.0662 53.4C61.6662 53.4 62.7596 52.8667 63.3462 51.8C63.6662 51.1067 63.8529 49.8267 63.9062 47.96L64.0662 42.04V9.56C64.0129 7 63.8796 5.42666 63.6662 4.84C63.1862 3.77333 61.9596 3.24 59.9862 3.24C59.1862 3.24 58.4662 3.26667 57.8262 3.32C56.5462 3.42666 55.8529 3.48 55.7462 3.48H55.5062C54.3862 3.48 53.8262 3.16 53.8262 2.52C53.8262 1.72 54.3862 1.32 55.5062 1.32C55.9329 1.32 56.6262 1.4 57.5862 1.56C59.9862 1.72 61.3996 1.8 61.8262 1.8C62.0929 1.8 62.4396 1.77333 62.8662 1.72C63.2929 1.72 63.6129 1.72 63.8262 1.72C64.9462 1.56 65.6929 1.48 66.0662 1.48C67.0796 1.48 67.9062 2.04 68.5462 3.16L69.3462 4.52L99.0262 51.32C99.1863 51.6933 99.3996 51.88 99.6663 51.88C99.8796 51.88 99.9863 51.5867 99.9863 51L99.8262 8.68C99.7729 6.81333 99.5596 5.53333 99.1863 4.84C98.6529 3.77333 97.5596 3.24 95.9063 3.24C95.4796 3.24 94.6529 3.29333 93.4263 3.4C92.1996 3.50667 91.5329 3.56 91.4263 3.56C90.3063 3.56 89.7463 3.18667 89.7463 2.44C89.7463 1.8 90.3063 1.48 91.4263 1.48H91.6662L93.5062 1.56C93.8796 1.61333 94.6263 1.69333 95.7462 1.8C97.3463 1.96 98.7596 2.04 99.9863 2.04H102.226C103.506 2.04 104.92 1.96 106.466 1.8C107.106 1.74667 107.88 1.66667 108.786 1.56L110.786 1.48C111.906 1.48 112.466 1.8 112.466 2.44C112.466 3.18667 111.906 3.56 110.786 3.56C110.68 3.56 110.013 3.50667 108.786 3.4C107.56 3.29333 106.733 3.24 106.306 3.24C104.653 3.24 103.56 3.77333 103.026 4.84C102.653 5.53333 102.44 6.81333 102.386 8.68L102.226 14.6V51.32C102.226 53.24 102.013 54.44 101.586 54.92C101.32 55.1867 100.893 55.32 100.306 55.32C99.3996 55.32 98.3329 54.3333 97.1063 52.36ZM157.283 1.16C158.083 1.16 158.589 1.53333 158.803 2.28C158.856 2.54666 158.883 3.24 158.883 4.36V36.68C158.883 39.24 158.909 41.4 158.963 43.16L159.123 48.68C159.123 50.5467 159.443 51.88 160.083 52.68C160.776 53.4267 161.923 53.8 163.523 53.8C163.576 53.8 163.869 53.7733 164.403 53.72C164.989 53.6667 165.736 53.6133 166.643 53.56C167.549 53.5067 168.189 53.48 168.563 53.48C169.896 53.48 170.563 53.8533 170.563 54.6C170.563 55.24 170.056 55.56 169.043 55.56C168.669 55.56 167.416 55.4533 165.283 55.24C161.016 54.8133 158.269 54.6 157.043 54.6C154.643 54.6 152.243 54.76 149.843 55.08C147.869 55.3467 146.776 55.48 146.563 55.48C145.336 55.48 144.723 55.1067 144.723 54.36C144.723 53.6667 145.309 53.32 146.483 53.32C147.123 53.32 147.816 53.3733 148.563 53.48C149.363 53.5867 150.349 53.64 151.523 53.64C153.443 53.64 154.749 53.24 155.443 52.44C156.189 51.5867 156.563 50.04 156.563 47.8C156.563 45.7733 156.589 43.96 156.643 42.36C156.696 40.7067 156.723 38.7333 156.723 36.44V12.84C156.723 8.25333 156.483 5.45333 156.003 4.44C155.523 3.37333 154.243 2.84 152.163 2.84C151.789 2.84 150.803 2.89333 149.203 3C148.403 3.05333 147.603 3.08 146.803 3.08C145.523 3.08 144.883 2.70666 144.883 1.96C144.883 1.26666 145.389 0.919995 146.403 0.919995C146.563 0.919995 146.696 0.946663 146.803 0.999999L148.963 1.32C150.029 1.48 151.363 1.56 152.963 1.56C153.229 1.56 153.549 1.53333 153.923 1.48C154.243 1.48 154.456 1.48 154.563 1.48C156.003 1.26666 156.909 1.16 157.283 1.16ZM198.687 0.119996C205.247 0.119996 210.394 2.65333 214.127 7.72C217.914 12.7867 219.807 19.7467 219.807 28.6C219.807 37.1867 217.887 43.9867 214.047 49C210.207 54.0133 205.034 56.52 198.527 56.52C191.967 56.52 186.794 54.0133 183.007 49C179.22 43.9867 177.327 37.1333 177.327 28.44C177.327 19.8 179.247 12.92 183.087 7.8C186.98 2.68 192.18 0.119996 198.687 0.119996ZM198.447 54.76C204.474 54.76 209.14 52.44 212.447 47.8C215.807 43.16 217.487 36.5733 217.487 28.04C217.487 19.7733 215.807 13.3733 212.447 8.84C209.14 4.25333 204.447 1.96 198.367 1.96C192.554 1.96 187.967 4.36 184.607 9.16C181.3 13.9067 179.647 20.44 179.647 28.76C179.647 36.9733 181.3 43.3733 184.607 47.96C187.914 52.4933 192.527 54.76 198.447 54.76ZM265.338 25.24C265.338 23.7467 265.205 21.96 264.938 19.88C264.031 24.52 262.378 28.0667 259.978 30.52C256.458 34.1467 251.738 35.96 245.818 35.96C240.325 35.96 235.871 34.4133 232.458 31.32C229.098 28.2267 227.418 24.1467 227.418 19.08C227.418 13.5867 229.231 9.05333 232.858 5.48C236.485 1.90666 241.098 0.119996 246.698 0.119996C253.205 0.119996 258.325 2.46666 262.058 7.16C265.791 11.8 267.658 18.2267 267.658 26.44C267.658 35.4 265.525 42.6533 261.258 48.2C257.045 53.7467 251.525 56.52 244.698 56.52C240.165 56.52 236.405 55.4 233.418 53.16C230.485 50.92 229.018 48.12 229.018 44.76C229.018 41.2933 230.378 39.56 233.098 39.56C234.965 39.56 235.898 40.4133 235.898 42.12C235.898 42.7067 235.685 43.24 235.258 43.72C234.885 44.2 234.431 44.44 233.898 44.44C233.578 44.44 233.231 44.36 232.858 44.2C232.538 43.9867 232.351 43.88 232.298 43.88C231.658 43.88 231.338 44.5733 231.338 45.96C231.338 48.4133 232.645 50.4933 235.258 52.2C237.871 53.9067 241.045 54.76 244.778 54.76C251.125 54.76 256.138 52.1467 259.818 46.92C263.498 41.64 265.338 34.4133 265.338 25.24ZM246.698 1.96C241.685 1.96 237.605 3.56 234.458 6.76C231.311 9.90666 229.738 14.0133 229.738 19.08C229.738 23.6133 231.178 27.2667 234.058 30.04C236.938 32.76 240.751 34.12 245.498 34.12C250.831 34.12 255.125 32.5733 258.378 29.48C261.685 26.3333 263.338 22.2533 263.338 17.24C263.338 12.76 261.765 9.10666 258.618 6.28C255.525 3.4 251.551 1.96 246.698 1.96ZM296.629 0.119996C303.189 0.119996 308.336 2.65333 312.069 7.72C315.856 12.7867 317.749 19.7467 317.749 28.6C317.749 37.1867 315.829 43.9867 311.989 49C308.149 54.0133 302.976 56.52 296.469 56.52C289.909 56.52 284.736 54.0133 280.949 49C277.163 43.9867 275.269 37.1333 275.269 28.44C275.269 19.8 277.189 12.92 281.029 7.8C284.923 2.68 290.123 0.119996 296.629 0.119996ZM296.389 54.76C302.416 54.76 307.083 52.44 310.389 47.8C313.749 43.16 315.429 36.5733 315.429 28.04C315.429 19.7733 313.749 13.3733 310.389 8.84C307.083 4.25333 302.389 1.96 296.309 1.96C290.496 1.96 285.909 4.36 282.549 9.16C279.243 13.9067 277.589 20.44 277.589 28.76C277.589 36.9733 279.243 43.3733 282.549 47.96C285.856 52.4933 290.469 54.76 296.389 54.76Z" fill="white" fill-opacity="0.5"/>
</svg>
