<svg width="754" height="72" viewBox="0 0 754 72" fill="none" xmlns="http://www.w3.org/2000/svg">
<path d="M4.8 1.76H8.48C8.69333 1.76 9.38667 1.70666 10.56 1.6H11.28C12.0267 1.6 12.5067 1.84 12.72 2.32C12.8267 2.53333 12.88 3.09333 12.88 4V41.36C12.88 47.5467 13.0933 51.3067 13.52 52.64C13.9467 53.92 15.2 54.56 17.28 54.56C17.6533 54.56 18.2133 54.5333 18.96 54.48C19.7067 54.4267 20.2667 54.4 20.64 54.4H21.04C22.16 54.4 22.72 54.72 22.72 55.36C22.72 56.0533 22.24 56.4 21.28 56.4C21.12 56.4 21.04 56.4 21.04 56.4L18.24 56.16L14.96 55.92L12.64 55.84H11.04L8.72 55.92L5.44 56.16L2.64 56.4C2.64 56.4 2.53333 56.4 2.32 56.4C1.36 56.4 0.88 56.08 0.88 55.44C0.88 54.7467 1.46667 54.4 2.64 54.4H2.96C3.33333 54.4 3.89333 54.4267 4.64 54.48C5.44 54.5333 6.02667 54.56 6.4 54.56C8.48 54.56 9.73333 53.92 10.16 52.64C10.5867 51.36 10.8 47.6 10.8 41.36V13.44C10.8 8.58667 10.64 5.68 10.32 4.72C10 3.76 9.06667 3.28 7.52 3.28C6.72 3.28 5.84 3.33333 4.88 3.44C3.44 3.6 2.64 3.68 2.48 3.68C1.41333 3.68 0.88 3.33333 0.88 2.64C0.88 1.94666 1.33333 1.6 2.24 1.6H2.48L4.8 1.76ZM61.2013 33.52C61.2013 34.64 60.9346 35.3067 60.4013 35.52C59.9213 35.7333 59.1479 35.84 58.0813 35.84H29.7613C29.0146 35.84 28.5346 35.9467 28.3213 36.16C28.1613 36.3733 28.0813 36.9067 28.0813 37.76C28.0813 43.0933 29.5213 47.4133 32.4013 50.72C35.3346 53.9733 39.1479 55.6 43.8413 55.6C48.9079 55.6 52.8813 53.8133 55.7613 50.24C56.8813 48.8533 57.6813 47.3333 58.1613 45.68C58.1613 45.52 58.2946 44.8533 58.5613 43.68C58.7746 42.7733 59.1746 42.32 59.7613 42.32C60.4013 42.32 60.7213 42.6933 60.7213 43.44C60.7213 44.3467 60.4279 45.5467 59.8413 47.04C58.5613 50.24 56.5079 52.7467 53.6813 54.56C50.9079 56.32 47.6546 57.2 43.9213 57.2C38.4813 57.2 34.1079 55.36 30.8013 51.68C27.4946 48 25.8413 43.1467 25.8413 37.12C25.8413 30.88 27.5479 25.8133 30.9613 21.92C34.4279 17.9733 38.8813 16 44.3213 16C49.0679 16 53.0679 17.7067 56.3213 21.12C59.5746 24.48 61.2013 28.6133 61.2013 33.52ZM28.4013 32.8C28.4013 33.6 28.9879 34 30.1613 34H57.6813C58.5879 34 59.0413 33.5733 59.0413 32.72C59.0413 29.3067 57.8679 26.0533 55.5213 22.96C52.8013 19.3867 49.0146 17.6 44.1613 17.6C40.4813 17.6 37.3079 18.64 34.6413 20.72C32.0279 22.7467 30.1613 25.6267 29.0413 29.36C28.6146 30.7467 28.4013 31.8933 28.4013 32.8ZM95.9469 48.72L95.8669 48.08L95.5469 48.64C94.8535 49.8133 93.8669 51.04 92.5869 52.32C89.2802 55.5733 85.1735 57.2 80.2669 57.2C76.4269 57.2 73.3069 56.1867 70.9069 54.16C68.5069 52.1333 67.3069 49.4933 67.3069 46.24C67.3069 43.52 68.1602 41.1733 69.8669 39.2C71.5735 37.2267 73.8402 35.9467 76.6669 35.36C78.5869 34.9867 80.8535 34.72 83.4669 34.56C87.7869 34.2933 90.9069 33.5467 92.8269 32.32C94.7469 31.04 95.7069 29.0933 95.7069 26.48C95.7069 23.8133 94.6669 21.68 92.5869 20.08C90.5069 18.4267 87.7602 17.6 84.3469 17.6C80.7735 17.6 77.8135 18.3733 75.4669 19.92C73.1735 21.4667 72.0269 23.4133 72.0269 25.76C72.0269 26.6133 72.2669 27.04 72.7469 27.04C72.8535 27.04 73.0135 26.9333 73.2269 26.72C73.2269 26.6667 73.2802 26.5067 73.3869 26.24C73.7602 25.3333 74.4802 24.88 75.5469 24.88C77.1469 24.88 77.9469 25.7333 77.9469 27.44C77.9469 28.3467 77.5735 29.1467 76.8269 29.84C76.1335 30.48 75.2802 30.8 74.2669 30.8C73.0402 30.8 71.9735 30.3467 71.0669 29.44C70.2135 28.48 69.7869 27.36 69.7869 26.08C69.7869 23.2 71.1469 20.8 73.8669 18.88C76.6402 16.96 80.0802 16 84.1869 16C88.3469 16 91.6269 16.9867 94.0269 18.96C96.6402 21.1467 97.9469 24.56 97.9469 29.2V44.64L98.1069 49.12C98.2669 53.44 99.6535 55.6 102.267 55.6C105.147 55.6 106.587 53.6267 106.587 49.68V49.28L106.507 45.76C106.454 44.2133 106.827 43.44 107.627 43.44C108.32 43.44 108.667 43.9733 108.667 45.04L108.587 48.24C108.427 54.2133 106.294 57.2 102.187 57.2C98.3469 57.2 96.2935 54.8533 96.0269 50.16L95.9469 48.72ZM80.5869 55.6C84.8535 55.6 88.4535 54.1067 91.3869 51.12C94.3735 48.1333 95.8669 44.5333 95.8669 40.32V32.56C95.8669 32.0267 95.7602 31.76 95.5469 31.76C95.4935 31.76 95.2002 32.08 94.6669 32.72C92.9602 34.8 89.1735 36.0267 83.3069 36.4C79.8935 36.6133 77.3335 37.0133 75.6269 37.6C73.9735 38.1867 72.5869 39.1733 71.4669 40.56C70.1869 42.1067 69.5469 44.0267 69.5469 46.32C69.5469 48.9867 70.5869 51.2 72.6669 52.96C74.7469 54.72 77.3869 55.6 80.5869 55.6ZM121.859 20.08V24.4C123.725 21.04 126.099 18.7467 128.979 17.52C131.432 16.5067 133.965 16 136.579 16C140.419 16 143.565 16.8533 146.019 18.56C148.472 20.2133 150.019 22.56 150.659 25.6C151.085 27.68 151.299 30.96 151.299 35.44V41.36C151.299 47.6 151.512 51.36 151.939 52.64C152.365 53.92 153.592 54.56 155.619 54.56C155.992 54.56 156.552 54.5333 157.299 54.48C158.099 54.4267 158.685 54.4 159.059 54.4H159.459C160.632 54.4 161.219 54.72 161.219 55.36C161.219 56.0533 160.712 56.4 159.699 56.4C159.539 56.4 159.459 56.4 159.459 56.4L156.659 56.16L153.299 55.92L151.059 55.84H149.539L147.219 55.92L143.939 56.16L141.139 56.4C141.139 56.4 141.032 56.4 140.819 56.4C139.859 56.4 139.379 56.08 139.379 55.44C139.379 54.7467 139.965 54.4 141.139 54.4H141.459C141.832 54.4 142.392 54.4267 143.139 54.48C143.939 54.5333 144.525 54.56 144.899 54.56C146.979 54.56 148.205 53.9467 148.579 52.72C149.005 51.44 149.219 47.6533 149.219 41.36V35.36C149.219 28.5867 148.472 24.16 146.979 22.08C144.845 19.0933 141.272 17.6 136.259 17.6C130.125 17.6 125.832 20.0267 123.379 24.88C122.365 26.8533 121.859 30.0267 121.859 34.4V41.36C121.859 47.6 122.072 51.36 122.499 52.64C122.925 53.92 124.152 54.56 126.179 54.56C126.552 54.56 127.112 54.5333 127.859 54.48C128.605 54.4267 129.165 54.4 129.539 54.4H129.939C131.112 54.4 131.699 54.72 131.699 55.36C131.699 56.0533 131.219 56.4 130.259 56.4C129.992 56.4 129.885 56.4 129.939 56.4L127.139 56.16L123.859 55.92L121.459 55.84H120.019L117.779 55.92L114.419 56.16L111.619 56.4C111.565 56.4 111.485 56.4 111.379 56.4C110.365 56.4 109.859 56.08 109.859 55.44C109.859 54.7467 110.445 54.4 111.619 54.4H112.019C112.392 54.4 112.952 54.4267 113.699 54.48C114.445 54.5333 115.005 54.56 115.379 54.56C117.459 54.56 118.712 53.92 119.139 52.64C119.565 51.36 119.779 47.6 119.779 41.36V28.8C119.779 24.96 119.779 23.28 119.779 23.76C119.672 20.9867 119.272 19.3867 118.579 18.96C118.152 18.6933 117.459 18.56 116.499 18.56C116.179 18.56 115.299 18.6133 113.859 18.72L111.459 18.88C110.392 18.88 109.859 18.5333 109.859 17.84C109.859 17.1467 110.339 16.8 111.299 16.8C111.672 16.8 112.499 16.8533 113.779 16.96C114.419 17.0133 115.032 17.04 115.619 17.04H117.139C117.459 17.04 117.965 17.0133 118.659 16.96C119.352 16.8533 119.859 16.8 120.179 16.8C120.925 16.8 121.379 16.9867 121.539 17.36C121.752 17.7333 121.859 18.64 121.859 20.08ZM194.485 18.88V23.68C197.258 18.56 201.658 16 207.685 16C212.378 16 215.818 17.28 218.005 19.84C218.965 20.96 219.845 22.6133 220.645 24.8C221.765 22.56 222.885 20.88 224.005 19.76C226.618 17.2533 230.032 16 234.245 16C237.392 16 240.058 16.6667 242.245 18C244.485 19.28 245.952 21.0667 246.645 23.36C247.018 24.5867 247.232 26.0533 247.285 27.76C247.338 29.4667 247.365 31.36 247.365 33.44V41.36C247.365 47.5467 247.578 51.3067 248.005 52.64C248.432 53.92 249.658 54.56 251.685 54.56C252.058 54.56 252.618 54.5333 253.365 54.48C254.112 54.4267 254.672 54.4 255.045 54.4H255.445C256.618 54.4 257.205 54.72 257.205 55.36C257.205 56.0533 256.725 56.4 255.765 56.4C255.552 56.4 255.445 56.4 255.445 56.4L252.645 56.16L249.365 55.92L247.125 55.84H245.525L243.205 55.92L239.925 56.16L237.125 56.4C237.072 56.4 236.992 56.4 236.885 56.4C235.872 56.4 235.365 56.08 235.365 55.44C235.365 54.7467 235.952 54.4 237.125 54.4H237.525C237.898 54.4 238.458 54.4267 239.205 54.48C239.952 54.5333 240.512 54.56 240.885 54.56C242.965 54.56 244.218 53.9467 244.645 52.72C245.072 51.44 245.285 47.6533 245.285 41.36V32.72C245.285 28.6667 245.205 26.1333 245.045 25.12C244.885 24.0533 244.352 22.9067 243.445 21.68C241.472 18.96 238.298 17.6 233.925 17.6C229.072 17.6 225.525 19.4667 223.285 23.2C221.898 25.5467 221.205 29.2267 221.205 34.24V41.36C221.205 47.6533 221.392 51.44 221.765 52.72C222.192 53.9467 223.472 54.56 225.605 54.56C225.978 54.56 226.538 54.5333 227.285 54.48C228.032 54.4267 228.592 54.4 228.965 54.4H229.285C230.458 54.4 231.045 54.72 231.045 55.36C231.045 56.0533 230.565 56.4 229.605 56.4H229.285L226.565 56.16L223.285 55.92L220.885 55.84H219.365L217.125 55.92L213.765 56.16L210.965 56.4C210.912 56.4 210.832 56.4 210.725 56.4C209.712 56.4 209.205 56.08 209.205 55.44C209.205 54.7467 209.792 54.4 210.965 54.4H211.365C211.738 54.4 212.298 54.4267 213.045 54.48C213.845 54.5333 214.432 54.56 214.805 54.56C216.832 54.56 218.058 53.92 218.485 52.64C218.912 51.36 219.125 47.6 219.125 41.36V31.36C219.125 28.7467 219.072 27.04 218.965 26.24C218.698 24.48 218.005 22.9067 216.885 21.52C214.805 18.9067 211.712 17.6 207.605 17.6C203.072 17.6 199.552 19.2533 197.045 22.56C195.445 24.6933 194.645 27.84 194.645 32V41.36C194.645 47.6 194.832 51.36 195.205 52.64C195.632 53.92 196.858 54.56 198.885 54.56C199.258 54.56 199.818 54.5333 200.565 54.48C201.365 54.4267 201.952 54.4 202.325 54.4H202.725C203.898 54.4 204.485 54.72 204.485 55.36C204.485 56.0533 203.978 56.4 202.965 56.4C202.805 56.4 202.725 56.4 202.725 56.4L199.925 56.16L196.565 55.92L194.485 55.84H192.805L190.565 55.92L187.205 56.16L184.405 56.4C184.352 56.4 184.272 56.4 184.165 56.4C183.152 56.4 182.645 56.08 182.645 55.44C182.645 54.7467 183.232 54.4 184.405 54.4H184.805C185.178 54.4 185.738 54.4267 186.485 54.48C187.232 54.5333 187.792 54.56 188.165 54.56C190.245 54.56 191.498 53.92 191.925 52.64C192.352 51.36 192.565 47.6 192.565 41.36V28.8C192.565 24.8533 192.565 23.1733 192.565 23.76C192.458 20.9867 192.032 19.3867 191.285 18.96C190.912 18.6933 190.245 18.56 189.285 18.56C188.965 18.56 188.085 18.6133 186.645 18.72L184.485 18.88C184.432 18.88 184.352 18.88 184.245 18.88C183.178 18.88 182.645 18.5333 182.645 17.84C182.645 17.1467 183.098 16.8 184.005 16.8H184.245L186.565 17.04H190.165C190.485 17.04 190.992 17.0133 191.685 16.96C192.378 16.8533 192.885 16.8 193.205 16.8C194.058 16.8 194.485 17.4933 194.485 18.88ZM288.473 48.72L288.393 48.08L288.073 48.64C287.379 49.8133 286.393 51.04 285.113 52.32C281.806 55.5733 277.699 57.2 272.793 57.2C268.953 57.2 265.833 56.1867 263.433 54.16C261.033 52.1333 259.833 49.4933 259.833 46.24C259.833 43.52 260.686 41.1733 262.393 39.2C264.099 37.2267 266.366 35.9467 269.193 35.36C271.113 34.9867 273.379 34.72 275.993 34.56C280.313 34.2933 283.433 33.5467 285.353 32.32C287.273 31.04 288.233 29.0933 288.233 26.48C288.233 23.8133 287.193 21.68 285.113 20.08C283.033 18.4267 280.286 17.6 276.873 17.6C273.299 17.6 270.339 18.3733 267.993 19.92C265.699 21.4667 264.553 23.4133 264.553 25.76C264.553 26.6133 264.793 27.04 265.273 27.04C265.379 27.04 265.539 26.9333 265.753 26.72C265.753 26.6667 265.806 26.5067 265.913 26.24C266.286 25.3333 267.006 24.88 268.073 24.88C269.673 24.88 270.473 25.7333 270.473 27.44C270.473 28.3467 270.099 29.1467 269.353 29.84C268.659 30.48 267.806 30.8 266.793 30.8C265.566 30.8 264.499 30.3467 263.593 29.44C262.739 28.48 262.313 27.36 262.313 26.08C262.313 23.2 263.673 20.8 266.393 18.88C269.166 16.96 272.606 16 276.713 16C280.873 16 284.153 16.9867 286.553 18.96C289.166 21.1467 290.473 24.56 290.473 29.2V44.64L290.633 49.12C290.793 53.44 292.179 55.6 294.793 55.6C297.673 55.6 299.113 53.6267 299.113 49.68V49.28L299.033 45.76C298.979 44.2133 299.353 43.44 300.153 43.44C300.846 43.44 301.193 43.9733 301.193 45.04L301.113 48.24C300.953 54.2133 298.819 57.2 294.713 57.2C290.873 57.2 288.819 54.8533 288.553 50.16L288.473 48.72ZM273.113 55.6C277.379 55.6 280.979 54.1067 283.913 51.12C286.899 48.1333 288.393 44.5333 288.393 40.32V32.56C288.393 32.0267 288.286 31.76 288.073 31.76C288.019 31.76 287.726 32.08 287.193 32.72C285.486 34.8 281.699 36.0267 275.833 36.4C272.419 36.6133 269.859 37.0133 268.153 37.6C266.499 38.1867 265.113 39.1733 263.993 40.56C262.713 42.1067 262.073 44.0267 262.073 46.32C262.073 48.9867 263.113 51.2 265.193 52.96C267.273 54.72 269.913 55.6 273.113 55.6ZM314.384 20.08V24.4C316.251 21.04 318.624 18.7467 321.504 17.52C323.958 16.5067 326.491 16 329.104 16C332.944 16 336.091 16.8533 338.544 18.56C340.998 20.2133 342.544 22.56 343.184 25.6C343.611 27.68 343.824 30.96 343.824 35.44V41.36C343.824 47.6 344.038 51.36 344.464 52.64C344.891 53.92 346.118 54.56 348.144 54.56C348.518 54.56 349.078 54.5333 349.824 54.48C350.624 54.4267 351.211 54.4 351.584 54.4H351.984C353.158 54.4 353.744 54.72 353.744 55.36C353.744 56.0533 353.238 56.4 352.224 56.4C352.064 56.4 351.984 56.4 351.984 56.4L349.184 56.16L345.824 55.92L343.584 55.84H342.064L339.744 55.92L336.464 56.16L333.664 56.4C333.664 56.4 333.558 56.4 333.344 56.4C332.384 56.4 331.904 56.08 331.904 55.44C331.904 54.7467 332.491 54.4 333.664 54.4H333.984C334.358 54.4 334.918 54.4267 335.664 54.48C336.464 54.5333 337.051 54.56 337.424 54.56C339.504 54.56 340.731 53.9467 341.104 52.72C341.531 51.44 341.744 47.6533 341.744 41.36V35.36C341.744 28.5867 340.998 24.16 339.504 22.08C337.371 19.0933 333.798 17.6 328.784 17.6C322.651 17.6 318.358 20.0267 315.904 24.88C314.891 26.8533 314.384 30.0267 314.384 34.4V41.36C314.384 47.6 314.598 51.36 315.024 52.64C315.451 53.92 316.678 54.56 318.704 54.56C319.078 54.56 319.638 54.5333 320.384 54.48C321.131 54.4267 321.691 54.4 322.064 54.4H322.464C323.638 54.4 324.224 54.72 324.224 55.36C324.224 56.0533 323.744 56.4 322.784 56.4C322.518 56.4 322.411 56.4 322.464 56.4L319.664 56.16L316.384 55.92L313.984 55.84H312.544L310.304 55.92L306.944 56.16L304.144 56.4C304.091 56.4 304.011 56.4 303.904 56.4C302.891 56.4 302.384 56.08 302.384 55.44C302.384 54.7467 302.971 54.4 304.144 54.4H304.544C304.918 54.4 305.478 54.4267 306.224 54.48C306.971 54.5333 307.531 54.56 307.904 54.56C309.984 54.56 311.238 53.92 311.664 52.64C312.091 51.36 312.304 47.6 312.304 41.36V28.8C312.304 24.96 312.304 23.28 312.304 23.76C312.198 20.9867 311.798 19.3867 311.104 18.96C310.678 18.6933 309.984 18.56 309.024 18.56C308.704 18.56 307.824 18.6133 306.384 18.72L303.984 18.88C302.918 18.88 302.384 18.5333 302.384 17.84C302.384 17.1467 302.864 16.8 303.824 16.8C304.198 16.8 305.024 16.8533 306.304 16.96C306.944 17.0133 307.558 17.04 308.144 17.04H309.664C309.984 17.04 310.491 17.0133 311.184 16.96C311.878 16.8533 312.384 16.8 312.704 16.8C313.451 16.8 313.904 16.9867 314.064 17.36C314.278 17.7333 314.384 18.64 314.384 20.08ZM391.891 51.84C391.891 49.8133 391.891 48.8 391.891 48.8C390.931 50.6667 389.837 52.16 388.611 53.28C385.731 55.8933 382.104 57.2 377.731 57.2C372.504 57.2 368.664 55.7333 366.211 52.8C364.877 51.2 363.997 49.2533 363.571 46.96C363.357 45.6267 363.251 43.44 363.251 40.4V28.72C363.251 23.92 363.091 21.0133 362.771 20C362.451 18.9867 361.517 18.48 359.971 18.48C359.224 18.48 358.371 18.5333 357.411 18.64C356.024 18.8 355.251 18.88 355.091 18.88C354.077 18.88 353.571 18.5067 353.571 17.76C353.571 17.12 353.971 16.8 354.771 16.8H355.011L357.251 17.04H361.891L362.691 16.96L363.971 16.8C364.931 16.8 365.411 17.7867 365.411 19.76V20.24C365.357 20.6667 365.331 21.28 365.331 22.08V40.64C365.331 43.4667 365.464 45.52 365.731 46.8C366.104 48.9333 366.984 50.72 368.371 52.16C370.557 54.4533 373.704 55.6 377.811 55.6C383.251 55.6 387.117 53.7067 389.411 49.92C391.064 47.2 391.891 43.1467 391.891 37.76V28.72C391.891 23.3333 391.677 20.2933 391.251 19.6C390.877 18.8533 390.024 18.48 388.691 18.48C387.891 18.48 387.011 18.5333 386.051 18.64L383.731 18.88C382.717 18.88 382.211 18.5333 382.211 17.84C382.211 17.1467 382.637 16.8 383.491 16.8H383.731L385.891 17.04H389.891C390.691 17.04 391.251 17.0133 391.571 16.96C391.891 16.8533 392.237 16.8 392.611 16.8C393.624 16.8 394.131 17.8667 394.131 20C394.131 20.7467 394.104 21.28 394.051 21.6C394.051 21.76 394.051 22.56 394.051 24C393.997 25.4933 393.971 26.9067 393.971 28.24V44.4C393.971 49.7867 394.157 52.8533 394.531 53.6C394.904 54.2933 395.784 54.64 397.171 54.64C397.331 54.64 398.184 54.56 399.731 54.4C400.797 54.2933 401.624 54.24 402.211 54.24C403.224 54.24 403.731 54.5867 403.731 55.28C403.731 55.9733 403.251 56.32 402.291 56.32H402.131L399.811 56.16L397.971 56.08H397.011C396.851 56.08 396.584 56.1067 396.211 56.16C395.837 56.16 395.517 56.16 395.251 56.16C394.877 56.2133 394.424 56.24 393.891 56.24C393.091 56.24 392.557 56.0267 392.291 55.6C392.024 55.12 391.891 54.2133 391.891 52.88V51.84ZM425.868 56.4L423.068 56.16L419.788 55.92L417.468 55.84H415.948L413.708 55.92L410.348 56.16L407.548 56.4C407.495 56.4 407.415 56.4 407.308 56.4C406.295 56.4 405.788 56.08 405.788 55.44C405.788 54.7467 406.375 54.4 407.548 54.4H407.948C408.321 54.4 408.881 54.4267 409.628 54.48C410.428 54.5333 411.015 54.56 411.388 54.56C413.415 54.56 414.641 53.92 415.068 52.64C415.495 51.36 415.708 47.6 415.708 41.36V20.72C415.708 19.28 415.228 18.56 414.268 18.56C413.788 18.56 412.935 18.6133 411.708 18.72C410.481 18.8267 409.708 18.88 409.388 18.88C408.161 18.88 407.548 18.5067 407.548 17.76C407.548 17.12 408.001 16.8 408.908 16.8H409.148L411.468 16.96C411.735 17.0133 412.535 17.04 413.868 17.04H414.028C414.828 17.04 415.308 16.9067 415.468 16.64C415.681 16.3733 415.788 15.6533 415.788 14.48C415.895 5.46666 420.055 0.959998 428.268 0.959998C430.828 0.959998 432.935 1.54667 434.588 2.72C436.295 3.89333 437.148 5.36 437.148 7.12C437.148 9.52 436.055 10.72 433.868 10.72C432.108 10.72 431.228 9.84 431.228 8.08C431.228 6.48 431.948 5.68 433.388 5.68C433.815 5.68 434.028 5.54667 434.028 5.28C434.028 4.69333 433.521 4.13333 432.508 3.6C431.228 2.90666 429.708 2.56 427.948 2.56C421.175 2.56 417.788 6.77333 417.788 15.2C417.788 16.0533 417.895 16.5867 418.108 16.8C418.321 17.0133 418.855 17.12 419.708 17.12C419.815 17.12 419.948 17.12 420.108 17.12C420.321 17.0667 420.481 17.04 420.588 17.04L427.948 16.8C429.281 16.8 429.948 17.12 429.948 17.76C429.948 18.5067 429.228 18.88 427.788 18.88C428.161 18.88 427.095 18.8267 424.588 18.72L420.828 18.56C420.721 18.56 420.561 18.5333 420.348 18.48C420.081 18.48 419.895 18.48 419.788 18.48C418.935 18.48 418.375 18.6133 418.108 18.88C417.895 19.1467 417.788 19.76 417.788 20.72V41.36C417.788 47.6 418.001 51.36 418.428 52.64C418.855 53.92 420.081 54.56 422.108 54.56C422.481 54.56 423.041 54.5333 423.788 54.48C424.535 54.4267 425.095 54.4 425.468 54.4H425.868C427.041 54.4 427.628 54.72 427.628 55.36C427.628 56.0533 427.148 56.4 426.188 56.4C425.921 56.4 425.815 56.4 425.868 56.4ZM459.826 48.72L459.746 48.08L459.426 48.64C458.733 49.8133 457.746 51.04 456.466 52.32C453.16 55.5733 449.053 57.2 444.146 57.2C440.306 57.2 437.186 56.1867 434.786 54.16C432.386 52.1333 431.186 49.4933 431.186 46.24C431.186 43.52 432.04 41.1733 433.746 39.2C435.453 37.2267 437.72 35.9467 440.546 35.36C442.466 34.9867 444.733 34.72 447.346 34.56C451.666 34.2933 454.786 33.5467 456.706 32.32C458.626 31.04 459.586 29.0933 459.586 26.48C459.586 23.8133 458.546 21.68 456.466 20.08C454.386 18.4267 451.64 17.6 448.226 17.6C444.653 17.6 441.693 18.3733 439.346 19.92C437.053 21.4667 435.906 23.4133 435.906 25.76C435.906 26.6133 436.146 27.04 436.626 27.04C436.733 27.04 436.893 26.9333 437.106 26.72C437.106 26.6667 437.16 26.5067 437.266 26.24C437.64 25.3333 438.36 24.88 439.426 24.88C441.026 24.88 441.826 25.7333 441.826 27.44C441.826 28.3467 441.453 29.1467 440.706 29.84C440.013 30.48 439.16 30.8 438.146 30.8C436.92 30.8 435.853 30.3467 434.946 29.44C434.093 28.48 433.666 27.36 433.666 26.08C433.666 23.2 435.026 20.8 437.746 18.88C440.52 16.96 443.96 16 448.066 16C452.226 16 455.506 16.9867 457.906 18.96C460.52 21.1467 461.826 24.56 461.826 29.2V44.64L461.986 49.12C462.146 53.44 463.533 55.6 466.146 55.6C469.026 55.6 470.466 53.6267 470.466 49.68V49.28L470.386 45.76C470.333 44.2133 470.706 43.44 471.506 43.44C472.2 43.44 472.546 43.9733 472.546 45.04L472.466 48.24C472.306 54.2133 470.173 57.2 466.066 57.2C462.226 57.2 460.173 54.8533 459.906 50.16L459.826 48.72ZM444.466 55.6C448.733 55.6 452.333 54.1067 455.266 51.12C458.253 48.1333 459.746 44.5333 459.746 40.32V32.56C459.746 32.0267 459.64 31.76 459.426 31.76C459.373 31.76 459.08 32.08 458.546 32.72C456.84 34.8 453.053 36.0267 447.186 36.4C443.773 36.6133 441.213 37.0133 439.506 37.6C437.853 38.1867 436.466 39.1733 435.346 40.56C434.066 42.1067 433.426 44.0267 433.426 46.32C433.426 48.9867 434.466 51.2 436.546 52.96C438.626 54.72 441.266 55.6 444.466 55.6ZM502.698 28.4C503.391 28.4 503.845 28.5333 504.058 28.8L504.538 29.36C504.805 29.52 505.018 29.6 505.178 29.6C505.925 29.6 506.298 28.8533 506.298 27.36C506.298 24.64 505.071 22.3467 502.618 20.48C500.218 18.56 497.285 17.6 493.818 17.6C488.645 17.6 484.511 19.36 481.418 22.88C478.325 26.4 476.778 31.12 476.778 37.04C476.778 42.7467 478.245 47.28 481.178 50.64C484.165 53.9467 488.191 55.6 493.258 55.6C498.058 55.6 501.685 54.0533 504.138 50.96C505.845 48.7733 506.751 46.64 506.858 44.56C506.911 43.2267 507.285 42.56 507.978 42.56C508.725 42.56 509.098 43.0667 509.098 44.08C509.098 47.28 507.711 50.2667 504.938 53.04C502.165 55.8133 498.351 57.2 493.498 57.2C487.791 57.2 483.205 55.36 479.738 51.68C476.271 47.9467 474.538 43.0667 474.538 37.04C474.538 30.8 476.298 25.7333 479.818 21.84C483.338 17.9467 487.925 16 493.578 16C497.738 16 501.231 17.1467 504.058 19.44C506.885 21.68 508.298 24.4533 508.298 27.76C508.298 29.4667 507.818 30.88 506.858 32C505.951 33.12 504.805 33.68 503.418 33.68C501.338 33.68 500.298 32.72 500.298 30.8C500.298 29.2 501.098 28.4 502.698 28.4ZM522.359 19.68C522.306 20 522.279 20.88 522.279 22.32V39.12C522.279 44.4 522.599 48.1867 523.239 50.48C524.199 53.8933 526.386 55.6 529.799 55.6C532.519 55.6 534.439 54.6933 535.559 52.88C536.679 51.0133 537.239 47.8667 537.239 43.44V41.04C537.239 40.88 537.239 40.72 537.239 40.56C537.186 40.4 537.159 40.2933 537.159 40.24C537.159 39.12 537.533 38.56 538.279 38.56C539.026 38.56 539.399 39.12 539.399 40.24V42.24C539.399 45.9733 539.133 48.9067 538.599 51.04C537.586 55.1467 534.653 57.2 529.799 57.2C523.399 57.2 520.199 52.6133 520.199 43.44V22.32C520.199 20.6133 520.066 19.5733 519.799 19.2C519.586 18.7733 518.946 18.56 517.879 18.56C517.559 18.56 516.759 18.6133 515.479 18.72L513.639 18.88C512.626 18.88 512.119 18.5067 512.119 17.76C512.119 17.12 512.599 16.8 513.559 16.8C513.986 16.8 514.626 16.8533 515.479 16.96C516.333 17.0133 516.973 17.04 517.399 17.04C519.053 17.04 520.066 16.5333 520.439 15.52C520.653 14.9333 520.759 13.8933 520.759 12.4V12C520.759 9.76 520.813 8.37333 520.919 7.84C521.079 7.25333 521.399 6.96 521.879 6.96C522.466 6.96 522.759 7.38666 522.759 8.24V8.4L522.519 12.24C522.466 13.0933 522.439 14.1067 522.439 15.28C522.439 16.4533 523.213 17.04 524.759 17.04H527.399C527.986 17.04 528.866 17.0133 530.039 16.96C531.266 16.8533 532.173 16.8 532.759 16.8C533.826 16.8 534.359 17.1467 534.359 17.84C534.359 18.5333 533.773 18.88 532.599 18.88H532.439L529.959 18.8C529.533 18.8 528.653 18.7467 527.319 18.64C526.199 18.5867 525.319 18.56 524.679 18.56C523.239 18.56 522.466 18.9333 522.359 19.68ZM578.7 51.84C578.7 49.8133 578.7 48.8 578.7 48.8C577.74 50.6667 576.647 52.16 575.42 53.28C572.54 55.8933 568.913 57.2 564.54 57.2C559.313 57.2 555.473 55.7333 553.02 52.8C551.687 51.2 550.807 49.2533 550.38 46.96C550.167 45.6267 550.06 43.44 550.06 40.4V28.72C550.06 23.92 549.9 21.0133 549.58 20C549.26 18.9867 548.327 18.48 546.78 18.48C546.033 18.48 545.18 18.5333 544.22 18.64C542.833 18.8 542.06 18.88 541.9 18.88C540.887 18.88 540.38 18.5067 540.38 17.76C540.38 17.12 540.78 16.8 541.58 16.8H541.82L544.06 17.04H548.7L549.5 16.96L550.78 16.8C551.74 16.8 552.22 17.7867 552.22 19.76V20.24C552.167 20.6667 552.14 21.28 552.14 22.08V40.64C552.14 43.4667 552.273 45.52 552.54 46.8C552.913 48.9333 553.793 50.72 555.18 52.16C557.367 54.4533 560.513 55.6 564.62 55.6C570.06 55.6 573.927 53.7067 576.22 49.92C577.873 47.2 578.7 43.1467 578.7 37.76V28.72C578.7 23.3333 578.487 20.2933 578.06 19.6C577.687 18.8533 576.833 18.48 575.5 18.48C574.7 18.48 573.82 18.5333 572.86 18.64L570.54 18.88C569.527 18.88 569.02 18.5333 569.02 17.84C569.02 17.1467 569.447 16.8 570.3 16.8H570.54L572.7 17.04H576.7C577.5 17.04 578.06 17.0133 578.38 16.96C578.7 16.8533 579.047 16.8 579.42 16.8C580.433 16.8 580.94 17.8667 580.94 20C580.94 20.7467 580.913 21.28 580.86 21.6C580.86 21.76 580.86 22.56 580.86 24C580.807 25.4933 580.78 26.9067 580.78 28.24V44.4C580.78 49.7867 580.967 52.8533 581.34 53.6C581.713 54.2933 582.593 54.64 583.98 54.64C584.14 54.64 584.993 54.56 586.54 54.4C587.607 54.2933 588.433 54.24 589.02 54.24C590.033 54.24 590.54 54.5867 590.54 55.28C590.54 55.9733 590.06 56.32 589.1 56.32H588.94L586.62 56.16L584.78 56.08H583.82C583.66 56.08 583.393 56.1067 583.02 56.16C582.647 56.16 582.327 56.16 582.06 56.16C581.687 56.2133 581.233 56.24 580.7 56.24C579.9 56.24 579.367 56.0267 579.1 55.6C578.833 55.12 578.7 54.2133 578.7 52.88V51.84ZM604.917 23.68C607.851 18.56 612.037 16 617.477 16C620.677 16 623.291 16.9067 625.317 18.72C627.397 20.48 628.437 22.7733 628.437 25.6C628.437 27.4667 627.957 29.04 626.997 30.32C626.091 31.5467 624.917 32.16 623.477 32.16C621.557 32.16 620.597 31.28 620.597 29.52C620.597 27.92 621.397 27.12 622.997 27.12C623.424 27.12 623.851 27.28 624.277 27.6C624.704 27.92 624.997 28.08 625.157 28.08C625.851 28.08 626.197 27.12 626.197 25.2C626.197 22.96 625.371 21.1467 623.717 19.76C622.064 18.32 619.904 17.6 617.237 17.6C612.651 17.6 609.317 19.3067 607.237 22.72C605.691 25.28 604.917 29.2267 604.917 34.56V41.36C604.917 47.6 605.131 51.36 605.557 52.64C605.984 53.92 607.211 54.56 609.237 54.56C609.611 54.56 610.171 54.5333 610.917 54.48C611.664 54.4267 612.224 54.4 612.597 54.4H612.997C614.171 54.4 614.757 54.72 614.757 55.36C614.757 56.0533 614.251 56.4 613.237 56.4C613.077 56.4 612.997 56.4 612.997 56.4L610.197 56.16L606.917 55.92L604.517 55.84H603.077L600.757 55.92L597.477 56.16L594.677 56.4C594.624 56.4 594.544 56.4 594.437 56.4C593.424 56.4 592.917 56.08 592.917 55.44C592.917 54.7467 593.504 54.4 594.677 54.4H595.077C595.451 54.4 596.011 54.4267 596.757 54.48C597.504 54.5333 598.064 54.56 598.437 54.56C600.517 54.56 601.771 53.92 602.197 52.64C602.624 51.36 602.837 47.6 602.837 41.36V28.8C602.837 24.96 602.837 23.28 602.837 23.76C602.731 20.9867 602.331 19.3867 601.637 18.96C601.211 18.6933 600.517 18.56 599.557 18.56C599.237 18.56 598.357 18.6133 596.917 18.72L594.517 18.88C593.451 18.88 592.917 18.5333 592.917 17.84C592.917 17.1467 593.371 16.8 594.277 16.8C594.757 16.8 595.611 16.8533 596.837 16.96C597.424 17.0133 598.037 17.04 598.677 17.04H599.877C600.464 17.04 601.317 16.96 602.437 16.8C602.544 16.8 602.677 16.7733 602.837 16.72C603.051 16.72 603.184 16.72 603.237 16.72C604.357 16.72 604.917 17.3067 604.917 18.48V23.68ZM643.732 41.36C643.732 47.6 643.946 51.36 644.372 52.64C644.799 53.92 646.026 54.56 648.052 54.56C648.426 54.56 648.986 54.5333 649.732 54.48C650.479 54.4267 651.039 54.4 651.412 54.4H651.812C652.986 54.4 653.572 54.72 653.572 55.36C653.572 56.0533 653.092 56.4 652.132 56.4C651.866 56.4 651.759 56.4 651.812 56.4L649.012 56.16L645.732 55.92L643.412 55.84H641.892L639.652 55.92L636.292 56.16L633.492 56.4C633.439 56.4 633.359 56.4 633.252 56.4C632.239 56.4 631.732 56.08 631.732 55.44C631.732 54.7467 632.319 54.4 633.492 54.4H633.892C634.266 54.4 634.826 54.4267 635.572 54.48C636.372 54.5333 636.959 54.56 637.332 54.56C639.359 54.56 640.586 53.92 641.012 52.64C641.439 51.36 641.652 47.6 641.652 41.36V28.8C641.652 24.9067 641.652 23.2267 641.652 23.76C641.546 20.9867 641.146 19.3867 640.452 18.96C640.026 18.6933 639.332 18.56 638.372 18.56C638.052 18.56 637.172 18.6133 635.732 18.72L633.572 18.88C633.519 18.88 633.439 18.88 633.332 18.88C632.266 18.88 631.732 18.5333 631.732 17.84C631.732 17.1467 632.186 16.8 633.092 16.8H633.332L635.732 17.04H639.572C639.892 17.04 640.372 17.0133 641.012 16.96C641.652 16.8533 642.132 16.8 642.452 16.8C643.306 16.8 643.732 17.4133 643.732 18.64V41.36ZM641.892 4.88C642.692 4.88 643.359 5.17333 643.892 5.76C644.479 6.34666 644.772 7.04 644.772 7.84C644.772 8.64 644.479 9.33333 643.892 9.92C643.359 10.4533 642.719 10.72 641.972 10.72C641.119 10.72 640.399 10.4533 639.812 9.92C639.279 9.33333 639.012 8.64 639.012 7.84C639.012 6.98666 639.279 6.29333 639.812 5.76C640.399 5.17333 641.092 4.88 641.892 4.88ZM667.86 20.08V24.4C669.727 21.04 672.1 18.7467 674.98 17.52C677.433 16.5067 679.967 16 682.58 16C686.42 16 689.567 16.8533 692.02 18.56C694.473 20.2133 696.02 22.56 696.66 25.6C697.087 27.68 697.3 30.96 697.3 35.44V41.36C697.3 47.6 697.513 51.36 697.94 52.64C698.367 53.92 699.593 54.56 701.62 54.56C701.993 54.56 702.553 54.5333 703.3 54.48C704.1 54.4267 704.687 54.4 705.06 54.4H705.46C706.633 54.4 707.22 54.72 707.22 55.36C707.22 56.0533 706.713 56.4 705.7 56.4C705.54 56.4 705.46 56.4 705.46 56.4L702.66 56.16L699.3 55.92L697.06 55.84H695.54L693.22 55.92L689.94 56.16L687.14 56.4C687.14 56.4 687.033 56.4 686.82 56.4C685.86 56.4 685.38 56.08 685.38 55.44C685.38 54.7467 685.967 54.4 687.14 54.4H687.46C687.833 54.4 688.393 54.4267 689.14 54.48C689.94 54.5333 690.527 54.56 690.9 54.56C692.98 54.56 694.207 53.9467 694.58 52.72C695.007 51.44 695.22 47.6533 695.22 41.36V35.36C695.22 28.5867 694.473 24.16 692.98 22.08C690.847 19.0933 687.273 17.6 682.26 17.6C676.127 17.6 671.833 20.0267 669.38 24.88C668.367 26.8533 667.86 30.0267 667.86 34.4V41.36C667.86 47.6 668.073 51.36 668.5 52.64C668.927 53.92 670.153 54.56 672.18 54.56C672.553 54.56 673.113 54.5333 673.86 54.48C674.607 54.4267 675.167 54.4 675.54 54.4H675.94C677.113 54.4 677.7 54.72 677.7 55.36C677.7 56.0533 677.22 56.4 676.26 56.4C675.993 56.4 675.887 56.4 675.94 56.4L673.14 56.16L669.86 55.92L667.46 55.84H666.02L663.78 55.92L660.42 56.16L657.62 56.4C657.567 56.4 657.487 56.4 657.38 56.4C656.367 56.4 655.86 56.08 655.86 55.44C655.86 54.7467 656.447 54.4 657.62 54.4H658.02C658.393 54.4 658.953 54.4267 659.7 54.48C660.447 54.5333 661.007 54.56 661.38 54.56C663.46 54.56 664.713 53.92 665.14 52.64C665.567 51.36 665.78 47.6 665.78 41.36V28.8C665.78 24.96 665.78 23.28 665.78 23.76C665.673 20.9867 665.273 19.3867 664.58 18.96C664.153 18.6933 663.46 18.56 662.5 18.56C662.18 18.56 661.3 18.6133 659.86 18.72L657.46 18.88C656.393 18.88 655.86 18.5333 655.86 17.84C655.86 17.1467 656.34 16.8 657.3 16.8C657.673 16.8 658.5 16.8533 659.78 16.96C660.42 17.0133 661.033 17.04 661.62 17.04H663.14C663.46 17.04 663.967 17.0133 664.66 16.96C665.353 16.8533 665.86 16.8 666.18 16.8C666.927 16.8 667.38 16.9867 667.54 17.36C667.753 17.7333 667.86 18.64 667.86 20.08ZM730.726 41.84C725.82 41.84 721.873 40.3467 718.886 37.36H718.406C717.126 37.36 716.086 37.7333 715.286 38.48C714.486 39.2267 714.086 40.2133 714.086 41.44C714.086 45.1733 717.66 47.0933 724.806 47.2L730.486 47.28C736.94 47.3867 741.686 48.0533 744.726 49.28C749.42 51.2 751.766 54.4267 751.766 58.96C751.766 62.9067 749.98 65.92 746.406 68C742.833 70.08 737.66 71.12 730.886 71.12C724.22 71.12 719.046 70.08 715.366 68C711.686 65.9733 709.846 63.0667 709.846 59.28C709.846 54.32 713.153 50.6933 719.766 48.4C714.486 47.6 711.846 45.2533 711.846 41.36C711.846 38.32 713.766 36.32 717.606 35.36C716.7 33.44 716.246 31.52 716.246 29.6C716.246 25.6533 717.606 22.4 720.326 19.84C723.1 17.28 726.593 16 730.806 16C733.793 16 736.913 16.9067 740.166 18.72C739.953 17.8133 739.846 17.0933 739.846 16.56C739.846 14.7467 740.54 13.2267 741.926 12C743.366 10.7733 745.153 10.16 747.286 10.16C749.1 10.16 750.593 10.6667 751.766 11.68C752.94 12.6933 753.526 13.9733 753.526 15.52C753.526 16.5867 753.18 17.52 752.486 18.32C751.846 19.0667 751.046 19.44 750.086 19.44C748.433 19.44 747.606 18.64 747.606 17.04C747.606 15.5467 748.273 14.8 749.606 14.8C749.66 14.8 749.9 14.8533 750.326 14.96C750.22 14.96 750.353 14.9867 750.726 15.04C751.1 15.04 751.286 14.8267 751.286 14.4C751.286 13.76 750.886 13.2 750.086 12.72C749.34 12.24 748.433 12 747.366 12C745.66 12 744.3 12.48 743.286 13.44C742.273 14.4 741.766 15.68 741.766 17.28C741.766 18.1333 741.98 18.9867 742.406 19.84L744.006 23.04C744.913 24.8533 745.366 26.8533 745.366 29.04C745.366 32.88 744.006 35.9733 741.286 38.32C738.62 40.6667 735.1 41.84 730.726 41.84ZM730.806 40.24C734.54 40.24 737.526 39.2267 739.766 37.2C742.006 35.1733 743.126 32.4533 743.126 29.04C743.126 25.5733 742.006 22.8 739.766 20.72C737.58 18.64 734.646 17.6 730.966 17.6C727.233 17.6 724.22 18.6933 721.926 20.88C719.633 23.0133 718.486 25.84 718.486 29.36C718.486 32.6667 719.606 35.3067 721.846 37.28C724.086 39.2533 727.073 40.24 730.806 40.24ZM731.126 69.52C736.94 69.52 741.446 68.6133 744.646 66.8C747.9 64.9867 749.526 62.4267 749.526 59.12C749.526 52.2933 743.02 48.88 730.006 48.88C724.3 48.88 719.873 49.7867 716.726 51.6C713.633 53.4133 712.086 56 712.086 59.36C712.086 62.6133 713.713 65.12 716.966 66.88C720.273 68.64 724.993 69.52 731.126 69.52Z" fill="white" fill-opacity="0.5"/>
</svg>
