<svg width="560" height="64" viewBox="0 0 560 64" fill="none" xmlns="http://www.w3.org/2000/svg">
<path d="M55.8 22.64C55.8 6.24 46.36 1.2 29.24 1.2H0.6V62H29.72C47 62 55.8 55.52 55.8 41.68V22.64ZM33.24 42.64C33.24 46.72 31.56 48.16 27.16 48.16H23.08V15.04H27.4C32.2 15.04 33.24 16.48 33.24 20.88V42.64ZM115.772 1.2H96.0919V26.8H95.6119L83.5319 1.2H61.2119V62H80.8919V32H81.3719L94.8119 62H115.772V1.2ZM157.089 1.2L150.769 38.88H150.129L143.489 1.2H119.489L135.409 62H163.169L178.209 1.2H157.089ZM257.051 22.32C257.051 8.64 248.811 0.159995 229.371 0.159995C209.451 0.159995 201.691 8.88 201.691 22.32V40.88C201.691 53.84 209.131 62.96 229.371 62.96C248.891 62.96 257.051 54.48 257.051 40.88V22.32ZM234.411 44.32C234.411 47.44 231.931 49.12 229.371 49.12C226.571 49.12 224.251 47.44 224.251 44.24V18.96C224.251 15.76 226.891 14 229.291 14C231.691 14 234.411 15.52 234.411 18.96V44.32ZM311.688 44.32C311.688 34.08 306.568 30.48 294.168 24.56C286.328 20.8 284.248 19.68 284.248 17.04V16.64C284.248 14.96 285.448 13.6 288.488 13.6C291.928 13.6 292.968 14.64 292.968 17.84C292.968 19.28 292.808 20.08 292.568 21.2L310.008 21.92C310.328 20 310.408 18.4 310.408 15.76C310.408 7.2 304.488 0.159995 286.888 0.159995C269.448 0.159995 261.688 8.4 261.688 16.56V17.68C261.688 26 265.688 30.24 275.688 35.6C287.528 41.92 289.208 43.6 289.208 45.68V46.16C289.208 48.48 287.688 49.52 284.488 49.52C281.288 49.52 279.528 48.16 279.528 45.44C279.528 44.08 279.688 42.56 280.008 41.36L261.768 40.72C261.528 42.32 261.288 44.24 261.288 47.36C261.288 57.04 268.808 62.96 285.688 62.96C304.728 62.96 311.688 54.64 311.688 45.52V44.32ZM387.214 46.24C387.214 42.88 386.734 39.6 386.334 38.08L368.734 38.72C369.054 40.24 369.294 41.84 369.294 43.84C369.294 47.6 367.694 49.36 364.334 49.36C360.894 49.36 359.134 47.44 359.134 44.64V18.72C359.134 15.92 360.894 14 364.174 14C367.774 14 369.294 15.6 369.294 18.8C369.294 21.44 369.054 22.96 368.734 24.64L386.494 25.28C386.894 22.96 387.134 20.56 387.134 17.12C387.134 5.84 377.214 0.159995 363.614 0.159995C344.494 0.159995 336.574 8.48 336.574 22V41.52C336.574 54 344.014 63.2 363.294 63.2C376.814 63.2 387.214 57.76 387.214 46.24ZM465.923 38.96H457.203V1.2H437.283L411.763 42.24V51.76H435.843V62H457.203V51.76H465.923V38.96ZM426.723 38.96L435.363 23.52H435.843V38.96H426.723ZM520.787 22C520.787 11.2 514.467 0.159995 495.587 0.159995C477.027 0.159995 469.667 10.24 469.667 21.44V40.96C469.667 52.64 476.307 62.96 495.667 62.96C512.627 62.96 520.787 53.6 520.787 41.04V22ZM499.427 44.8C499.427 47.44 498.067 49.12 495.347 49.12C492.307 49.12 491.027 47.36 491.027 44.64V18.4C491.027 15.6 492.307 14 495.347 14C497.907 14 499.427 15.84 499.427 18.4V44.8ZM559.349 1.2H543.589C541.109 8.16 536.069 10 524.549 10V20.64H537.909V62H559.349V1.2Z" fill="white" fill-opacity="0.5"/>
</svg>
